<svg width="256" height="256" viewBox="0 0 256 256" fill="none" xmlns="http://www.w3.org/2000/svg">
<path d="M74.1476 23.8032L71.1625 34.7705C67.3583 35.4248 63.6959 36.7161 60.3321 38.5892L50.9908 31.9474L36.9615 48.3033L45.0652 56.3897C44.3952 58.1799 43.8798 60.0237 43.5244 61.9013C43.1795 63.7882 42.9973 65.7014 42.9798 67.62L32.561 72.283L39.8689 92.5545L50.9339 89.6699C53.4252 92.6068 56.4006 95.1038 59.733 97.054L58.6251 108.391L79.9624 112.306L82.9476 101.338C86.7518 100.684 90.4141 99.3928 93.7779 97.5197L103.119 104.161L117.149 87.8055L109.045 79.7192C109.715 77.929 110.23 76.0852 110.586 74.2076C110.931 72.3206 111.113 70.4075 111.13 68.4889L121.549 63.8265L114.241 43.5543L103.176 46.4389C100.685 43.502 97.7094 41.0051 94.3771 39.0549L95.4848 27.7188L74.1476 23.8032ZM79.2725 55.9706C82.5062 56.564 85.3739 58.4062 87.2446 61.092C89.1153 63.7778 89.8359 67.0871 89.2477 70.2919C88.6596 73.4967 86.811 76.3346 84.1086 78.1811C81.4061 80.0277 78.0713 80.7317 74.8376 80.1383C71.6039 79.5449 68.7362 77.7026 66.8655 75.0169C64.9948 72.3311 64.2742 69.0218 64.8623 65.817C65.4504 62.6121 67.2991 59.7743 70.0015 57.9277C72.7039 56.0812 76.0388 55.3772 79.2725 55.9706Z" fill="url(#paint0_linear_4356_283)"/>
<path d="M127.333 84L125.687 103.491C119.451 105.78 113.653 109.104 108.541 113.319L90.6665 104.978L72 137.021L88.2286 148.192C87.6506 151.43 87.3509 154.711 87.3326 157.999C87.3348 161.3 87.6207 164.595 88.1871 167.848L72 178.978L90.6665 211.021L108.5 202.701C113.629 206.898 119.441 210.201 125.687 212.467L127.333 232H164.667L166.313 212.508C172.549 210.218 178.347 206.895 183.459 202.68L201.333 211.021L220 178.978L203.771 167.807C204.349 164.569 204.649 161.288 204.667 157.999C204.665 154.698 204.379 151.403 203.813 148.15L220 137.022L201.333 104.978L183.5 113.298C178.371 109.101 172.559 105.798 166.313 103.532L164.667 84H127.333ZM146 136.857C151.658 136.857 157.084 139.084 161.085 143.049C165.086 147.014 167.333 152.392 167.333 157.999C167.333 163.607 165.086 168.985 161.085 172.95C157.084 176.915 151.658 179.142 146 179.142C140.342 179.142 134.916 176.915 130.915 172.95C126.914 168.985 124.667 163.607 124.667 157.999C124.667 152.392 126.914 147.014 130.915 143.049C134.916 139.084 140.342 136.857 146 136.857Z" fill="url(#paint1_linear_4356_283)"/>
<path d="M52.8571 150.857C56.9187 146.796 60 138 60 138C60 138 63.0813 146.796 67.1429 150.857C71.2044 154.919 80 158 80 158C80 158 71.2044 161.081 67.1429 165.143C63.0813 169.204 60 178 60 178C60 178 56.9187 169.204 52.8571 165.143C48.7956 161.081 40 158 40 158C40 158 48.7956 154.919 52.8571 150.857Z" fill="url(#paint2_linear_4356_283)"/>
<path d="M140.286 54.2857C143.535 51.0365 146 44 146 44C146 44 148.465 51.0365 151.714 54.2857C154.963 57.5349 162 60 162 60C162 60 154.963 62.4651 151.714 65.7143C148.465 68.9635 146 76 146 76C146 76 143.535 68.9635 140.286 65.7143C137.037 62.4651 130 60 130 60C130 60 137.037 57.5349 140.286 54.2857Z" fill="url(#paint3_linear_4356_283)"/>
<path fill-rule="evenodd" clip-rule="evenodd" d="M146 130C161.464 130 174 142.536 174 158C174 173.464 161.464 186 146 186C130.536 186 118 173.464 118 158C118 142.536 130.536 130 146 130ZM146 139.625C135.852 139.625 127.625 147.852 127.625 158C127.625 168.148 135.852 176.375 146 176.375C156.148 176.375 164.375 168.148 164.375 158C164.375 147.852 156.148 139.625 146 139.625Z" fill="url(#paint4_linear_4356_283)"/>
<path fill-rule="evenodd" clip-rule="evenodd" d="M77 51C86.3888 51 94 58.6112 94 68C94 77.3888 86.3888 85 77 85C67.6112 85 60 77.3888 60 68C60 58.6112 67.6112 51 77 51ZM77 56.8438C70.8386 56.8438 65.8438 61.8386 65.8438 68C65.8438 74.1614 70.8386 79.1562 77 79.1562C83.1614 79.1562 88.1562 74.1614 88.1562 68C88.1562 61.8386 83.1614 56.8438 77 56.8438Z" fill="url(#paint5_linear_4356_283)"/>
<defs>
<linearGradient id="paint0_linear_4356_283" x1="84.8162" y1="25.7617" x2="69.2937" y2="110.349" gradientUnits="userSpaceOnUse">
<stop stop-color="#D38F00"/>
<stop offset="1" stop-color="#AC7300"/>
</linearGradient>
<linearGradient id="paint1_linear_4356_283" x1="94.4242" y1="108.106" x2="190.288" y2="221.348" gradientUnits="userSpaceOnUse">
<stop stop-color="#AC7300"/>
<stop offset="1" stop-color="#AE46DE"/>
</linearGradient>
<linearGradient id="paint2_linear_4356_283" x1="60" y1="138" x2="60" y2="178" gradientUnits="userSpaceOnUse">
<stop stop-color="#FCAB00"/>
<stop offset="1" stop-color="#AC7300"/>
</linearGradient>
<linearGradient id="paint3_linear_4356_283" x1="146" y1="44" x2="146" y2="76" gradientUnits="userSpaceOnUse">
<stop stop-color="#FCAB00"/>
<stop offset="1" stop-color="#AC7300"/>
</linearGradient>
<linearGradient id="paint4_linear_4356_283" x1="129.375" y1="141.375" x2="162.187" y2="175.5" gradientUnits="userSpaceOnUse">
<stop stop-color="#C9F9FF"/>
<stop offset="1" stop-color="#EED2FF"/>
</linearGradient>
<linearGradient id="paint5_linear_4356_283" x1="66.9062" y1="57.9063" x2="86.8281" y2="78.625" gradientUnits="userSpaceOnUse">
<stop stop-color="#C9F9FF"/>
<stop offset="1" stop-color="#EED2FF"/>
</linearGradient>
</defs>
</svg>
