<svg
    width="601"
    height="382"
    viewBox="0 0 601 382"
    fill="none"
    xmlns="http://www.w3.org/2000/svg"
>
<g clip-path="url(#clip0_4455_9529)">
<g filter="url(#filter0_d_4455_9529)">
<path
                d="M16 28C16 19.1634 23.1634 12 32 12H569C577.837 12 585 19.1634 585 28V346C585 354.837 577.837 362 569 362H32C23.1634 362 16 354.837 16 346V28Z"
                fill="#3D3D3D"
            />
</g>
<path
            d="M32.4727 13H568.527C577.072 13 584 19.9197 584 28.4556V345.544C584 354.08 577.072 361 568.527 361H32.4727C23.9274 361 17 354.08 17 345.544V28.4556C17 19.9197 23.9274 13 32.4727 13Z"
            fill="#1B1B1B"
        />
<path
            d="M48 52C48 43.1634 54.9396 36 63.5 36H537.5C546.06 36 553 43.1634 553 52C553 60.8366 546.06 68 537.5 68H63.5C54.9396 68 48 60.8366 48 52Z"
            fill="#262626"
        />
<path
            d="M77.4203 58.8261L77.4243 58.8221C77.5651 58.959 77.7431 59.0514 77.9361 59.0878C78.1291 59.1241 78.3286 59.1029 78.5096 59.0266C78.6905 58.9504 78.8451 58.8225 78.9539 58.659C79.0626 58.4955 79.1209 58.3035 79.1213 58.1071C79.1553 57.8091 78.9683 57.5301 78.8263 57.3881L75.7253 54.2871L74.3223 55.7171L77.4203 58.8261Z"
            fill="#C4C4C4"
        />
<path
            d="M70.5 45C69.0413 45 67.6424 45.5795 66.6109 46.6109C65.5795 47.6424 65 49.0413 65 50.5C65 51.9587 65.5795 53.3576 66.6109 54.3891C67.6424 55.4205 69.0413 56 70.5 56C71.9587 56 73.3576 55.4205 74.3891 54.3891C75.4205 53.3576 76 51.9587 76 50.5C76 49.0413 75.4205 47.6424 74.3891 46.6109C73.3576 45.5795 71.9587 45 70.5 45ZM70.5 47C71.4283 47 72.3185 47.3687 72.9749 48.0251C73.6313 48.6815 74 49.5717 74 50.5C74 51.4283 73.6313 52.3185 72.9749 52.9749C72.3185 53.6313 71.4283 54 70.5 54C69.5717 54 68.6815 53.6313 68.0251 52.9749C67.3687 52.3185 67 51.4283 67 50.5C67 49.5717 67.3687 48.6815 68.0251 48.0251C68.6815 47.3687 69.5717 47 70.5 47Z"
            fill="#C4C4C4"
        />
<path
            d="M545 84H56C51.5817 84 48 87.5817 48 92V126C48 130.418 51.5817 134 56 134H545C549.418 134 553 130.418 553 126V92C553 87.5817 549.418 84 545 84Z"
            fill="#4D4D4D"
            fill-opacity="0.3"
        />
<path
            d="M491.35 104.186C491.929 104.186 492.414 104.261 492.806 104.41C493.208 104.559 493.614 104.802 494.024 105.138L493.296 105.992C492.708 105.516 492.088 105.278 491.434 105.278C490.632 105.278 489.983 105.586 489.488 106.202C489.003 106.818 488.76 107.807 488.76 109.17C488.76 110.495 489.003 111.475 489.488 112.11C489.974 112.735 490.618 113.048 491.42 113.048C491.831 113.048 492.19 112.978 492.498 112.838C492.806 112.698 493.133 112.502 493.478 112.25L494.136 113.09C493.838 113.398 493.455 113.655 492.988 113.86C492.522 114.065 491.985 114.168 491.378 114.168C490.594 114.168 489.894 113.977 489.278 113.594C488.672 113.202 488.196 112.633 487.85 111.886C487.514 111.13 487.346 110.225 487.346 109.17C487.346 108.115 487.524 107.215 487.878 106.468C488.233 105.712 488.714 105.143 489.32 104.76C489.927 104.377 490.604 104.186 491.35 104.186Z"
            fill="#C4C4C4"
        />
<path
            d="M499.04 113.664C498.555 114 498.004 114.168 497.388 114.168C496.763 114.168 496.273 113.991 495.918 113.636C495.573 113.272 495.4 112.749 495.4 112.068V107.616H494.112V106.622H495.4V104.956L496.688 104.802V106.622H498.438L498.298 107.616H496.688V112.012C496.688 112.395 496.754 112.675 496.884 112.852C497.024 113.02 497.253 113.104 497.57 113.104C497.86 113.104 498.186 113.006 498.55 112.81L499.04 113.664Z"
            fill="#C4C4C4"
        />
<path
            d="M503.581 106.454C503.842 106.454 504.085 106.482 504.309 106.538L504.071 107.798C503.847 107.742 503.632 107.714 503.427 107.714C502.97 107.714 502.601 107.882 502.321 108.218C502.041 108.554 501.822 109.077 501.663 109.786V114H500.375V106.622H501.481L501.607 108.12C501.803 107.569 502.069 107.154 502.405 106.874C502.741 106.594 503.133 106.454 503.581 106.454Z"
            fill="#C4C4C4"
        />
<path
            d="M507.245 114.168C506.769 114.168 506.391 114.028 506.111 113.748C505.841 113.459 505.705 113.057 505.705 112.544V103.654L506.993 103.5V112.516C506.993 112.721 507.026 112.871 507.091 112.964C507.166 113.057 507.287 113.104 507.455 113.104C507.633 113.104 507.791 113.076 507.931 113.02L508.267 113.916C507.959 114.084 507.619 114.168 507.245 114.168Z"
            fill="#C4C4C4"
        />
<path
            d="M516.326 106.734V108.834H518.37V109.898H516.326V111.984H515.15V109.898H513.12V108.834H515.15V106.734H516.326Z"
            fill="#C4C4C4"
        />
<path
            d="M527.465 104.634V114H526.177V106.006L523.993 107.336L523.433 106.426L526.331 104.634H527.465Z"
            fill="#C4C4C4"
        />
<path d="M56 134H545V135H56V134Z" fill="#C4C4C4" fill-opacity="0.2" />
<path
            d="M490.475 155.186C491.054 155.186 491.539 155.261 491.931 155.41C492.333 155.559 492.739 155.802 493.149 156.138L492.421 156.992C491.833 156.516 491.213 156.278 490.559 156.278C489.757 156.278 489.108 156.586 488.613 157.202C488.128 157.818 487.885 158.807 487.885 160.17C487.885 161.495 488.128 162.475 488.613 163.11C489.099 163.735 489.743 164.048 490.545 164.048C490.956 164.048 491.315 163.978 491.623 163.838C491.931 163.698 492.258 163.502 492.603 163.25L493.261 164.09C492.963 164.398 492.58 164.655 492.113 164.86C491.647 165.065 491.11 165.168 490.503 165.168C489.719 165.168 489.019 164.977 488.403 164.594C487.797 164.202 487.321 163.633 486.975 162.886C486.639 162.13 486.471 161.225 486.471 160.17C486.471 159.115 486.649 158.215 487.003 157.468C487.358 156.712 487.839 156.143 488.445 155.76C489.052 155.377 489.729 155.186 490.475 155.186Z"
            fill="#C4C4C4"
        />
<path
            d="M498.165 164.664C497.68 165 497.129 165.168 496.513 165.168C495.888 165.168 495.398 164.991 495.043 164.636C494.698 164.272 494.525 163.749 494.525 163.068V158.616H493.237V157.622H494.525V155.956L495.813 155.802V157.622H497.563L497.423 158.616H495.813V163.012C495.813 163.395 495.879 163.675 496.009 163.852C496.149 164.02 496.378 164.104 496.695 164.104C496.985 164.104 497.311 164.006 497.675 163.81L498.165 164.664Z"
            fill="#C4C4C4"
        />
<path
            d="M502.706 157.454C502.967 157.454 503.21 157.482 503.434 157.538L503.196 158.798C502.972 158.742 502.757 158.714 502.552 158.714C502.095 158.714 501.726 158.882 501.446 159.218C501.166 159.554 500.947 160.077 500.788 160.786V165H499.5V157.622H500.606L500.732 159.12C500.928 158.569 501.194 158.154 501.53 157.874C501.866 157.594 502.258 157.454 502.706 157.454Z"
            fill="#C4C4C4"
        />
<path
            d="M506.37 165.168C505.894 165.168 505.516 165.028 505.236 164.748C504.966 164.459 504.83 164.057 504.83 163.544V154.654L506.118 154.5V163.516C506.118 163.721 506.151 163.871 506.216 163.964C506.291 164.057 506.412 164.104 506.58 164.104C506.758 164.104 506.916 164.076 507.056 164.02L507.392 164.916C507.084 165.084 506.744 165.168 506.37 165.168Z"
            fill="#C4C4C4"
        />
<path
            d="M515.451 157.734V159.834H517.495V160.898H515.451V162.984H514.275V160.898H512.245V159.834H514.275V157.734H515.451Z"
            fill="#C4C4C4"
        />
<path
            d="M525.26 155.494C525.82 155.494 526.31 155.606 526.73 155.83C527.16 156.054 527.491 156.362 527.724 156.754C527.958 157.137 528.074 157.571 528.074 158.056C528.074 158.625 527.944 159.171 527.682 159.694C527.43 160.217 527.038 160.781 526.506 161.388C525.974 161.995 525.167 162.839 524.084 163.922H528.298L528.144 165H522.614V163.978C523.865 162.681 524.752 161.733 525.274 161.136C525.797 160.529 526.17 160.002 526.394 159.554C526.618 159.106 526.73 158.625 526.73 158.112C526.73 157.627 526.59 157.249 526.31 156.978C526.03 156.698 525.657 156.558 525.19 156.558C524.808 156.558 524.472 156.637 524.182 156.796C523.893 156.955 523.585 157.216 523.258 157.58L522.418 156.908C522.801 156.432 523.226 156.077 523.692 155.844C524.159 155.611 524.682 155.494 525.26 155.494Z"
            fill="#C4C4C4"
        />
<path d="M56 185H545V186H56V185Z" fill="#C4C4C4" fill-opacity="0.2" />
<path
            d="M124.969 201.875H99.0312C98.5307 201.875 98.125 202.281 98.125 202.781V205.844C98.125 206.344 98.5307 206.75 99.0312 206.75H124.969C125.469 206.75 125.875 206.344 125.875 205.844V202.781C125.875 202.281 125.469 201.875 124.969 201.875Z"
            fill="#051719"
            fill-opacity="0.314"
        />
<path
            d="M116.938 206H107.062C106.959 206 106.875 206.084 106.875 206.188V208.688C106.875 208.791 106.959 208.875 107.062 208.875H116.938C117.041 208.875 117.125 208.791 117.125 208.688V206.188C117.125 206.084 117.041 206 116.938 206Z"
            fill="#676767"
            fill-opacity="0.502"
        />
<path
            d="M116.875 206.125H107.125C107.056 206.125 107 206.181 107 206.25V208C107 208.069 107.056 208.125 107.125 208.125H116.875C116.944 208.125 117 208.069 117 208V206.25C117 206.181 116.944 206.125 116.875 206.125Z"
            fill="#FAFAFA"
        />
<path
            d="M73 115.5V107.5C73 107 73.52 107 73.52 107H77V110H75V114.003H81V112.003H83V115.5C83 115.977 82.5 116 82.5 116H73.5C73.5 116 73 116 73 115.5Z"
            fill="#C4C4C4"
        />
<path
            d="M73 166.5V158.5C73 158 73.52 158 73.52 158H77V161H75V165.003H81V163.003H83V166.5C83 166.977 82.5 167 82.5 167H73.5C73.5 167 73 167 73 166.5Z"
            fill="#C4C4C4"
        />
<path
            d="M73 217.5V209.5C73 209 73.52 209 73.52 209H77V212H75V216.003H81V214.003H83V217.5C83 217.977 82.5 218 82.5 218H73.5C73.5 218 73 218 73 217.5Z"
            fill="#C4C4C4"
        />
<path
            d="M78.5 102C78 102 78 102.5 78 102.5V110.5C78 111 78.5 111 78.5 111H87.5C87.5 111 88 111 88 110.5V102.5C88 102 87.5 102 87.5 102H78.5ZM80 105H86V108.997H80V105Z"
            fill="#C4C4C4"
        />
<path
            d="M78.5 153C78 153 78 153.5 78 153.5V161.5C78 162 78.5 162 78.5 162H87.5C87.5 162 88 162 88 161.5V153.5C88 153 87.5 153 87.5 153H78.5ZM80 156H86V159.997H80V156Z"
            fill="#C4C4C4"
        />
<path
            d="M78.5 204C78 204 78 204.5 78 204.5V212.5C78 213 78.5 213 78.5 213H87.5C87.5 213 88 213 88 212.5V204.5C88 204 87.5 204 87.5 204H78.5ZM80 207H86V210.997H80V207Z"
            fill="#C4C4C4"
        />
<path
            d="M490.421 206.186C490.999 206.186 491.485 206.261 491.877 206.41C492.278 206.559 492.684 206.802 493.095 207.138L492.367 207.992C491.779 207.516 491.158 207.278 490.505 207.278C489.702 207.278 489.053 207.586 488.559 208.202C488.073 208.818 487.831 209.807 487.831 211.17C487.831 212.495 488.073 213.475 488.559 214.11C489.044 214.735 489.688 215.048 490.491 215.048C490.901 215.048 491.261 214.978 491.569 214.838C491.877 214.698 492.203 214.502 492.549 214.25L493.207 215.09C492.908 215.398 492.525 215.655 492.059 215.86C491.592 216.065 491.055 216.168 490.449 216.168C489.665 216.168 488.965 215.977 488.349 215.594C487.742 215.202 487.266 214.633 486.921 213.886C486.585 213.13 486.417 212.225 486.417 211.17C486.417 210.115 486.594 209.215 486.949 208.468C487.303 207.712 487.784 207.143 488.391 206.76C488.997 206.377 489.674 206.186 490.421 206.186Z"
            fill="#C4C4C4"
        />
<path
            d="M498.111 215.664C497.625 216 497.075 216.168 496.459 216.168C495.833 216.168 495.343 215.991 494.989 215.636C494.643 215.272 494.471 214.749 494.471 214.068V209.616H493.183V208.622H494.471V206.956L495.759 206.802V208.622H497.509L497.369 209.616H495.759V214.012C495.759 214.395 495.824 214.675 495.955 214.852C496.095 215.02 496.323 215.104 496.641 215.104C496.93 215.104 497.257 215.006 497.621 214.81L498.111 215.664Z"
            fill="#C4C4C4"
        />
<path
            d="M502.651 208.454C502.913 208.454 503.155 208.482 503.379 208.538L503.141 209.798C502.917 209.742 502.703 209.714 502.497 209.714C502.04 209.714 501.671 209.882 501.391 210.218C501.111 210.554 500.892 211.077 500.733 211.786V216H499.445V208.622H500.551L500.677 210.12C500.873 209.569 501.139 209.154 501.475 208.874C501.811 208.594 502.203 208.454 502.651 208.454Z"
            fill="#C4C4C4"
        />
<path
            d="M506.316 216.168C505.84 216.168 505.462 216.028 505.182 215.748C504.911 215.459 504.776 215.057 504.776 214.544V205.654L506.064 205.5V214.516C506.064 214.721 506.096 214.871 506.162 214.964C506.236 215.057 506.358 215.104 506.526 215.104C506.703 215.104 506.862 215.076 507.002 215.02L507.338 215.916C507.03 216.084 506.689 216.168 506.316 216.168Z"
            fill="#C4C4C4"
        />
<path
            d="M515.396 208.734V210.834H517.44V211.898H515.396V213.984H514.22V211.898H512.19V210.834H514.22V208.734H515.396Z"
            fill="#C4C4C4"
        />
<path
            d="M525.164 206.494C525.742 206.494 526.237 206.601 526.648 206.816C527.068 207.031 527.385 207.32 527.6 207.684C527.824 208.048 527.936 208.445 527.936 208.874C527.936 209.443 527.768 209.915 527.432 210.288C527.105 210.652 526.666 210.899 526.116 211.03C526.741 211.086 527.25 211.31 527.642 211.702C528.034 212.094 528.23 212.626 528.23 213.298C528.23 213.839 528.099 214.329 527.838 214.768C527.576 215.207 527.203 215.552 526.718 215.804C526.232 216.047 525.672 216.168 525.038 216.168C524.468 216.168 523.946 216.065 523.47 215.86C522.994 215.645 522.578 215.328 522.224 214.908L522.994 214.194C523.302 214.511 523.614 214.745 523.932 214.894C524.258 215.043 524.613 215.118 524.996 215.118C525.584 215.118 526.046 214.955 526.382 214.628C526.718 214.292 526.886 213.844 526.886 213.284C526.886 212.668 526.727 212.234 526.41 211.982C526.092 211.73 525.63 211.604 525.024 211.604H524.324L524.478 210.61H524.954C525.439 210.61 525.84 210.465 526.158 210.176C526.484 209.887 526.648 209.481 526.648 208.958C526.648 208.519 526.508 208.174 526.228 207.922C525.948 207.661 525.57 207.53 525.094 207.53C524.73 207.53 524.394 207.595 524.086 207.726C523.787 207.857 523.479 208.071 523.162 208.37L522.49 207.6C523.283 206.863 524.174 206.494 525.164 206.494Z"
            fill="#C4C4C4"
        />
<path
            d="M116.875 206.125H107.125C107.056 206.125 107 206.181 107 206.25V208C107 208.069 107.056 208.125 107.125 208.125H116.875C116.944 208.125 117 208.069 117 208V206.25C117 206.181 116.944 206.125 116.875 206.125Z"
            fill="#FAFAFA"
        />
<path d="M56 236H545V237H56V236Z" fill="#C4C4C4" fill-opacity="0.2" />
<path
            d="M489.956 257.186C490.534 257.186 491.02 257.261 491.412 257.41C491.813 257.559 492.219 257.802 492.63 258.138L491.902 258.992C491.314 258.516 490.693 258.278 490.04 258.278C489.237 258.278 488.588 258.586 488.094 259.202C487.608 259.818 487.366 260.807 487.366 262.17C487.366 263.495 487.608 264.475 488.094 265.11C488.579 265.735 489.223 266.048 490.026 266.048C490.436 266.048 490.796 265.978 491.104 265.838C491.412 265.698 491.738 265.502 492.084 265.25L492.742 266.09C492.443 266.398 492.06 266.655 491.594 266.86C491.127 267.065 490.59 267.168 489.984 267.168C489.2 267.168 488.5 266.977 487.884 266.594C487.277 266.202 486.801 265.633 486.456 264.886C486.12 264.13 485.952 263.225 485.952 262.17C485.952 261.115 486.129 260.215 486.484 259.468C486.838 258.712 487.319 258.143 487.926 257.76C488.532 257.377 489.209 257.186 489.956 257.186Z"
            fill="#C4C4C4"
        />
<path
            d="M497.646 266.664C497.16 267 496.61 267.168 495.994 267.168C495.368 267.168 494.878 266.991 494.524 266.636C494.178 266.272 494.006 265.749 494.006 265.068V260.616H492.718V259.622H494.006V257.956L495.294 257.802V259.622H497.044L496.904 260.616H495.294V265.012C495.294 265.395 495.359 265.675 495.49 265.852C495.63 266.02 495.858 266.104 496.176 266.104C496.465 266.104 496.792 266.006 497.156 265.81L497.646 266.664Z"
            fill="#C4C4C4"
        />
<path
            d="M502.186 259.454C502.448 259.454 502.69 259.482 502.914 259.538L502.676 260.798C502.452 260.742 502.238 260.714 502.032 260.714C501.575 260.714 501.206 260.882 500.926 261.218C500.646 261.554 500.427 262.077 500.268 262.786V267H498.98V259.622H500.086L500.212 261.12C500.408 260.569 500.674 260.154 501.01 259.874C501.346 259.594 501.738 259.454 502.186 259.454Z"
            fill="#C4C4C4"
        />
<path
            d="M505.851 267.168C505.375 267.168 504.997 267.028 504.717 266.748C504.446 266.459 504.311 266.057 504.311 265.544V256.654L505.599 256.5V265.516C505.599 265.721 505.631 265.871 505.697 265.964C505.771 266.057 505.893 266.104 506.061 266.104C506.238 266.104 506.397 266.076 506.537 266.02L506.873 266.916C506.565 267.084 506.224 267.168 505.851 267.168Z"
            fill="#C4C4C4"
        />
<path
            d="M514.931 259.734V261.834H516.975V262.898H514.931V264.984H513.755V262.898H511.725V261.834H513.755V259.734H514.931Z"
            fill="#C4C4C4"
        />
<path
            d="M528.577 263.668V264.69H527.359V267H526.113V264.69H522.109V263.766L524.923 257.494L526.001 257.942L523.467 263.668H526.127L526.239 261.148H527.359V263.668H528.577Z"
            fill="#C4C4C4"
        />
<path d="M56 287H545V288H56V287Z" fill="#C4C4C4" fill-opacity="0.2" />
<path
            fill-rule="evenodd"
            clip-rule="evenodd"
            d="M537 33C547.493 33 556 41.5066 556 52C556 62.4934 547.493 71 537 71H64C53.5066 71 45 62.4934 45 52C45 41.5066 53.5066 33 64 33H537ZM64 34C54.0589 34 46 42.0589 46 52C46 61.9411 54.0589 70 64 70H537C546.941 70 555 61.9411 555 52C555 42.0589 546.941 34 537 34H64Z"
            fill="#63D0DF"
        />
<path
            d="M490.393 308.186C490.972 308.186 491.457 308.261 491.849 308.41C492.25 308.559 492.656 308.802 493.067 309.138L492.339 309.992C491.751 309.516 491.13 309.278 490.477 309.278C489.674 309.278 489.026 309.586 488.531 310.202C488.046 310.818 487.803 311.807 487.803 313.17C487.803 314.495 488.046 315.475 488.531 316.11C489.016 316.735 489.66 317.048 490.463 317.048C490.874 317.048 491.233 316.978 491.541 316.838C491.849 316.698 492.176 316.502 492.521 316.25L493.179 317.09C492.88 317.398 492.498 317.655 492.031 317.86C491.564 318.065 491.028 318.168 490.421 318.168C489.637 318.168 488.937 317.977 488.321 317.594C487.714 317.202 487.238 316.633 486.893 315.886C486.557 315.13 486.389 314.225 486.389 313.17C486.389 312.115 486.566 311.215 486.921 310.468C487.276 309.712 487.756 309.143 488.363 308.76C488.97 308.377 489.646 308.186 490.393 308.186Z"
            fill="#C4C4C4"
        />
<path
            d="M498.083 317.664C497.598 318 497.047 318.168 496.431 318.168C495.806 318.168 495.316 317.991 494.961 317.636C494.616 317.272 494.443 316.749 494.443 316.068V311.616H493.155V310.622H494.443V308.956L495.731 308.802V310.622H497.481L497.341 311.616H495.731V316.012C495.731 316.395 495.797 316.675 495.927 316.852C496.067 317.02 496.296 317.104 496.613 317.104C496.903 317.104 497.229 317.006 497.593 316.81L498.083 317.664Z"
            fill="#C4C4C4"
        />
<path
            d="M502.624 310.454C502.885 310.454 503.128 310.482 503.352 310.538L503.114 311.798C502.89 311.742 502.675 311.714 502.47 311.714C502.013 311.714 501.644 311.882 501.364 312.218C501.084 312.554 500.865 313.077 500.706 313.786V318H499.418V310.622H500.524L500.65 312.12C500.846 311.569 501.112 311.154 501.448 310.874C501.784 310.594 502.176 310.454 502.624 310.454Z"
            fill="#C4C4C4"
        />
<path
            d="M506.288 318.168C505.812 318.168 505.434 318.028 505.154 317.748C504.884 317.459 504.748 317.057 504.748 316.544V307.654L506.036 307.5V316.516C506.036 316.721 506.069 316.871 506.134 316.964C506.209 317.057 506.33 317.104 506.498 317.104C506.676 317.104 506.834 317.076 506.974 317.02L507.31 317.916C507.002 318.084 506.662 318.168 506.288 318.168Z"
            fill="#C4C4C4"
        />
<path
            d="M515.369 310.734V312.834H517.413V313.898H515.369V315.984H514.193V313.898H512.163V312.834H514.193V310.734H515.369Z"
            fill="#C4C4C4"
        />
<path
            d="M527.866 309.642H524.212V312.4C524.688 312.157 525.188 312.036 525.71 312.036C526.513 312.036 527.157 312.302 527.642 312.834C528.128 313.357 528.37 314.08 528.37 315.004C528.37 315.62 528.235 316.171 527.964 316.656C527.694 317.132 527.311 317.505 526.816 317.776C526.331 318.037 525.766 318.168 525.122 318.168C524.553 318.168 524.044 318.07 523.596 317.874C523.148 317.669 522.733 317.37 522.35 316.978L523.106 316.236C523.405 316.535 523.713 316.759 524.03 316.908C524.348 317.048 524.707 317.118 525.108 317.118C525.706 317.118 526.172 316.931 526.508 316.558C526.854 316.185 527.026 315.657 527.026 314.976C527.026 314.295 526.872 313.8 526.564 313.492C526.256 313.184 525.841 313.03 525.318 313.03C525.076 313.03 524.852 313.058 524.646 313.114C524.441 313.161 524.222 313.24 523.988 313.352H522.98V308.634H528.048L527.866 309.642Z"
            fill="#C4C4C4"
        />
<rect x="87" y="42" width="1" height="20" fill="#C4C4C4" />
<path
            d="M125.919 103.397C125.267 101.827 123.944 100.131 122.906 99.5957C123.751 101.252 124.24 102.914 124.427 104.154C124.427 104.157 124.428 104.163 124.43 104.179C122.732 99.9459 119.852 98.2389 117.5 94.5221C117.381 94.3342 117.262 94.1457 117.146 93.9471C117.087 93.8457 117.032 93.742 116.981 93.6364C116.883 93.4477 116.808 93.2483 116.756 93.0422C116.757 93.0325 116.753 93.0229 116.747 93.0155C116.741 93.008 116.732 93.0032 116.722 93.002C116.713 92.9993 116.703 92.9993 116.694 93.002C116.692 93.0027 116.689 93.0052 116.686 93.006C116.683 93.0074 116.679 93.0104 116.675 93.0123C116.677 93.01 116.681 93.005 116.682 93.0038C112.909 95.2135 111.629 99.3014 111.511 101.347C110.004 101.45 108.564 102.005 107.377 102.94C107.253 102.835 107.123 102.737 106.988 102.646C106.646 101.448 106.631 100.18 106.946 98.975C105.403 99.6776 104.203 100.788 103.33 101.769H103.323C102.728 101.015 102.77 98.5267 102.804 98.0073C102.797 97.9751 102.36 98.2342 102.302 98.2732C101.777 98.6483 101.286 99.0691 100.835 99.5307C100.321 100.051 99.8519 100.614 99.4319 101.213C99.4319 101.214 99.4314 101.214 99.4312 101.215C99.4312 101.214 99.4316 101.214 99.4319 101.213C98.466 102.582 97.781 104.128 97.4164 105.763C97.4093 105.796 97.4032 105.829 97.3962 105.862C97.3679 105.994 97.2662 106.656 97.2484 106.8C97.247 106.811 97.2464 106.821 97.2451 106.832C97.1135 107.516 97.0321 108.209 97.0013 108.905C97.0013 108.93 96.9998 108.956 96.9998 108.981C97 117.276 103.725 124 112.02 124C119.449 124 125.618 118.607 126.825 111.523C126.851 111.331 126.871 111.138 126.894 110.944C127.192 108.368 126.861 105.661 125.919 103.397ZM108.607 115.153C108.678 115.186 108.744 115.223 108.816 115.255C108.819 115.257 108.823 115.26 108.826 115.262C108.752 115.226 108.68 115.19 108.607 115.153ZM124.431 104.183L124.429 104.168C124.43 104.174 124.431 104.179 124.432 104.184L124.431 104.183Z"
            fill="url(#paint0_linear_4455_9529)"
        />
<path
            d="M125.919 103.397C125.267 101.827 123.944 100.132 122.906 99.5957C123.751 101.252 124.24 102.914 124.427 104.154C124.427 104.151 124.428 104.157 124.429 104.168C124.43 104.174 124.431 104.179 124.432 104.185C125.849 108.026 125.077 111.933 123.964 114.32C122.243 118.014 118.076 121.8 111.553 121.615C104.506 121.416 98.2979 116.187 97.1389 109.338C96.9278 108.258 97.1389 107.71 97.2452 106.833C97.1158 107.509 97.0664 107.704 97.0014 108.905C97.0014 108.931 96.9999 108.956 96.9999 108.982C97 117.276 103.725 124 112.02 124C119.449 124 125.618 118.607 126.825 111.523C126.851 111.331 126.871 111.138 126.894 110.944C127.192 108.368 126.861 105.661 125.919 103.397Z"
            fill="url(#paint1_radial_4455_9529)"
        />
<path
            d="M125.919 103.397C125.267 101.827 123.944 100.132 122.906 99.5957C123.751 101.252 124.24 102.914 124.427 104.154C124.427 104.151 124.428 104.157 124.429 104.168C124.43 104.174 124.431 104.179 124.432 104.185C125.849 108.026 125.077 111.933 123.964 114.32C122.243 118.014 118.076 121.8 111.553 121.615C104.506 121.416 98.2979 116.187 97.1389 109.338C96.9278 108.258 97.1389 107.71 97.2452 106.833C97.1158 107.509 97.0664 107.704 97.0014 108.905C97.0014 108.931 96.9999 108.956 96.9999 108.982C97 117.276 103.725 124 112.02 124C119.449 124 125.618 118.607 126.825 111.523C126.851 111.331 126.871 111.138 126.894 110.944C127.192 108.368 126.861 105.661 125.919 103.397Z"
            fill="url(#paint2_radial_4455_9529)"
        />
<path
            d="M118.62 105.162C118.653 105.185 118.683 105.208 118.713 105.231C118.336 104.562 117.867 103.949 117.319 103.412C112.65 98.743 116.095 93.2889 116.676 93.0119C116.677 93.0097 116.681 93.0046 116.682 93.0034C112.909 95.2132 111.629 99.301 111.511 101.346C111.686 101.334 111.861 101.319 112.039 101.319C114.854 101.319 117.307 102.867 118.62 105.162Z"
            fill="url(#paint3_radial_4455_9529)"
        />
<path
            d="M112.048 106.094C112.024 106.468 110.704 107.757 110.242 107.757C105.971 107.757 105.278 110.34 105.278 110.34C105.467 112.516 106.981 114.307 108.816 115.255C108.899 115.298 108.984 115.337 109.069 115.376C109.214 115.44 109.361 115.501 109.51 115.556C110.139 115.779 110.798 115.906 111.464 115.933C118.951 116.285 120.401 106.984 114.999 104.283C116.382 104.042 117.818 104.599 118.62 105.162C117.307 102.867 114.855 101.319 112.039 101.319C111.861 101.319 111.686 101.334 111.511 101.346C110.005 101.45 108.564 102.005 107.377 102.939C107.606 103.133 107.865 103.392 108.41 103.928C109.428 104.933 112.043 105.972 112.048 106.094Z"
            fill="url(#paint4_radial_4455_9529)"
        />
<path
            d="M112.048 106.094C112.024 106.468 110.704 107.757 110.242 107.757C105.971 107.757 105.278 110.34 105.278 110.34C105.467 112.516 106.981 114.307 108.816 115.255C108.899 115.298 108.984 115.337 109.069 115.376C109.214 115.44 109.361 115.501 109.51 115.556C110.139 115.779 110.798 115.906 111.464 115.933C118.951 116.285 120.401 106.984 114.999 104.283C116.382 104.042 117.818 104.599 118.62 105.162C117.307 102.867 114.855 101.319 112.039 101.319C111.861 101.319 111.686 101.334 111.511 101.346C110.005 101.45 108.564 102.005 107.377 102.939C107.606 103.133 107.865 103.392 108.41 103.928C109.428 104.933 112.043 105.972 112.048 106.094Z"
            fill="url(#paint5_radial_4455_9529)"
        />
<path
            d="M106.677 102.44C106.781 102.507 106.885 102.576 106.988 102.646C106.646 101.448 106.631 100.18 106.946 98.9751C105.403 99.6777 104.203 100.788 103.33 101.769C103.403 101.767 105.581 101.728 106.677 102.44Z"
            fill="url(#paint6_radial_4455_9529)"
        />
<path
            d="M97.1389 109.338C98.2979 116.187 104.506 121.416 111.553 121.615C118.076 121.8 122.243 118.014 123.964 114.321C125.077 111.933 125.849 108.027 124.432 104.185L124.431 104.183L124.429 104.169C124.428 104.157 124.427 104.151 124.427 104.154C124.427 104.157 124.428 104.163 124.43 104.179C124.963 107.658 123.193 111.028 120.427 113.307L120.419 113.327C115.028 117.716 109.87 115.975 108.826 115.262C108.752 115.227 108.679 115.19 108.607 115.153C105.464 113.651 104.166 110.788 104.445 108.333C101.791 108.333 100.886 106.095 100.886 106.095C100.886 106.095 103.269 104.396 106.409 105.874C109.317 107.242 112.048 106.095 112.048 106.095C112.043 105.973 109.428 104.933 108.409 103.929C107.865 103.392 107.606 103.134 107.377 102.94C107.253 102.835 107.123 102.737 106.988 102.646C106.885 102.576 106.781 102.507 106.677 102.44C105.581 101.728 103.402 101.767 103.33 101.769H103.323C102.728 101.014 102.77 98.5266 102.804 98.0072C102.797 97.975 102.36 98.234 102.302 98.2731C101.777 98.6481 101.286 99.0689 100.834 99.5306C100.321 100.051 99.8518 100.614 99.4319 101.213C99.4319 101.214 99.4314 101.215 99.4312 101.215C99.4312 101.215 99.4316 101.214 99.4319 101.213C98.466 102.582 97.781 104.128 97.4164 105.763C97.4092 105.796 96.8758 108.128 97.1389 109.338Z"
            fill="url(#paint7_radial_4455_9529)"
        />
<path
            d="M117.319 103.412C117.867 103.95 118.336 104.562 118.713 105.231C118.796 105.293 118.873 105.355 118.939 105.416C122.344 108.553 120.56 112.991 120.427 113.307C123.193 111.028 124.963 107.658 124.43 104.179C122.732 99.9459 119.852 98.2389 117.5 94.5221C117.381 94.3342 117.262 94.1457 117.146 93.9471C117.087 93.8457 117.032 93.742 116.981 93.6364C116.883 93.4477 116.808 93.2483 116.756 93.0422C116.757 93.0325 116.753 93.0229 116.747 93.0155C116.741 93.008 116.732 93.0032 116.722 93.002C116.713 92.9993 116.703 92.9993 116.694 93.002C116.692 93.0027 116.689 93.0052 116.686 93.006C116.683 93.0074 116.679 93.0104 116.675 93.0123C116.095 93.289 112.65 98.7432 117.319 103.412Z"
            fill="url(#paint8_radial_4455_9529)"
        />
<path
            d="M118.939 105.416C118.873 105.355 118.796 105.293 118.713 105.231C118.683 105.208 118.653 105.185 118.62 105.162C117.818 104.599 116.382 104.043 114.998 104.283C120.401 106.984 118.951 116.285 111.464 115.934C110.798 115.906 110.139 115.779 109.51 115.557C109.361 115.501 109.214 115.441 109.069 115.376C108.984 115.338 108.899 115.299 108.816 115.255C108.819 115.257 108.823 115.26 108.826 115.262C109.87 115.974 115.028 117.715 120.419 113.326L120.427 113.307C120.56 112.991 122.344 108.553 118.939 105.416Z"
            fill="url(#paint9_radial_4455_9529)"
        />
<path
            d="M105.277 110.34C105.277 110.34 105.971 107.757 110.242 107.757C110.704 107.757 112.024 106.468 112.048 106.095C112.073 105.721 109.317 107.242 106.409 105.873C103.269 104.396 100.886 106.095 100.886 106.095C100.886 106.095 101.791 108.333 104.445 108.333C104.166 110.788 105.465 113.651 108.607 115.153C108.677 115.186 108.743 115.223 108.815 115.255C106.981 114.307 105.467 112.516 105.277 110.34Z"
            fill="url(#paint10_radial_4455_9529)"
        />
<path
            d="M125.919 103.397C125.267 101.827 123.944 100.131 122.906 99.5957C123.751 101.252 124.24 102.914 124.427 104.154C124.427 104.157 124.428 104.163 124.43 104.179C122.732 99.9459 119.852 98.2389 117.5 94.5221C117.381 94.3342 117.262 94.1457 117.146 93.9471C117.087 93.8457 117.032 93.742 116.981 93.6364C116.883 93.4477 116.808 93.2483 116.756 93.0422C116.757 93.0325 116.753 93.0229 116.747 93.0155C116.741 93.008 116.732 93.0032 116.722 93.002C116.713 92.9993 116.703 92.9993 116.694 93.002C116.692 93.0027 116.689 93.0052 116.686 93.006C116.683 93.0074 116.679 93.0104 116.675 93.0123C116.677 93.01 116.681 93.005 116.682 93.0038C112.909 95.2135 111.629 99.3014 111.511 101.347C111.686 101.334 111.86 101.32 112.039 101.32C114.854 101.32 117.307 102.868 118.62 105.162C117.818 104.599 116.382 104.043 114.998 104.283C120.401 106.984 118.95 116.285 111.464 115.934C110.797 115.907 110.139 115.78 109.51 115.557C109.361 115.501 109.214 115.441 109.068 115.376C108.984 115.338 108.899 115.299 108.815 115.256C108.818 115.258 108.822 115.26 108.825 115.262C108.752 115.226 108.679 115.19 108.607 115.153C108.677 115.186 108.743 115.223 108.815 115.255C106.981 114.307 105.466 112.516 105.277 110.34C105.277 110.34 105.97 107.757 110.241 107.757C110.703 107.757 112.023 106.468 112.048 106.095C112.042 105.973 109.428 104.933 108.409 103.929C107.864 103.392 107.606 103.133 107.377 102.939C107.252 102.834 107.123 102.736 106.988 102.646C106.645 101.448 106.631 100.18 106.945 98.9749C105.402 99.6774 104.202 100.788 103.33 101.769H103.323C102.727 101.014 102.769 98.5265 102.803 98.0071C102.796 97.9749 102.359 98.234 102.302 98.273C101.777 98.6481 101.285 99.0689 100.834 99.5305C100.321 100.051 99.8517 100.614 99.4319 101.213C99.4319 101.214 99.4314 101.214 99.4312 101.215C99.4312 101.214 99.4316 101.214 99.4319 101.213C98.466 102.582 97.781 104.128 97.4164 105.763C97.4093 105.796 97.4032 105.829 97.3962 105.862C97.3679 105.994 97.2408 106.666 97.2231 106.809C97.2217 106.821 97.2244 106.798 97.2231 106.809C97.1071 107.503 97.0332 108.203 97.0016 108.905C97.0016 108.931 97 108.956 97 108.982C97 117.276 103.725 124 112.02 124C119.449 124 125.618 118.607 126.825 111.523C126.851 111.331 126.871 111.138 126.894 110.944C127.192 108.368 126.861 105.661 125.919 103.397ZM124.429 104.168C124.43 104.174 124.431 104.179 124.432 104.184L124.431 104.183L124.429 104.168Z"
            fill="url(#paint11_linear_4455_9529)"
        />
<path
            d="M125.919 154.397C125.267 152.827 123.944 151.131 122.906 150.596C123.751 152.252 124.24 153.914 124.427 155.154C124.427 155.157 124.428 155.163 124.43 155.179C122.732 150.946 119.852 149.239 117.5 145.522C117.381 145.334 117.262 145.146 117.146 144.947C117.087 144.846 117.032 144.742 116.981 144.636C116.883 144.448 116.808 144.248 116.756 144.042C116.757 144.032 116.753 144.023 116.747 144.015C116.741 144.008 116.732 144.003 116.722 144.002C116.713 143.999 116.703 143.999 116.694 144.002C116.692 144.003 116.689 144.005 116.686 144.006C116.683 144.007 116.679 144.01 116.675 144.012C116.677 144.01 116.681 144.005 116.682 144.004C112.909 146.214 111.629 150.301 111.511 152.347C110.004 152.45 108.564 153.005 107.377 153.94C107.253 153.835 107.123 153.737 106.988 153.646C106.646 152.448 106.631 151.18 106.946 149.975C105.403 150.678 104.203 151.788 103.33 152.769H103.323C102.728 152.015 102.77 149.527 102.804 149.007C102.797 148.975 102.36 149.234 102.302 149.273C101.777 149.648 101.286 150.069 100.835 150.531C100.321 151.051 99.8519 151.614 99.4319 152.213C99.4319 152.214 99.4314 152.214 99.4312 152.215C99.4312 152.214 99.4316 152.214 99.4319 152.213C98.466 153.582 97.781 155.128 97.4164 156.763C97.4093 156.796 97.4032 156.829 97.3962 156.862C97.3679 156.994 97.2662 157.656 97.2484 157.8C97.247 157.811 97.2464 157.821 97.2451 157.832C97.1135 158.516 97.0321 159.209 97.0013 159.905C97.0013 159.93 96.9998 159.956 96.9998 159.981C97 168.276 103.725 175 112.02 175C119.449 175 125.618 169.607 126.825 162.523C126.851 162.331 126.871 162.138 126.894 161.944C127.192 159.368 126.861 156.661 125.919 154.397ZM108.607 166.153C108.678 166.186 108.744 166.223 108.816 166.255C108.819 166.257 108.823 166.26 108.826 166.262C108.752 166.226 108.68 166.19 108.607 166.153ZM124.431 155.183L124.429 155.168C124.43 155.174 124.431 155.179 124.432 155.184L124.431 155.183Z"
            fill="url(#paint12_linear_4455_9529)"
        />
<path
            d="M125.919 154.397C125.267 152.827 123.944 151.132 122.906 150.596C123.751 152.252 124.24 153.914 124.427 155.154C124.427 155.151 124.428 155.157 124.429 155.168C124.43 155.174 124.431 155.179 124.432 155.185C125.849 159.026 125.077 162.933 123.964 165.32C122.243 169.014 118.076 172.8 111.553 172.615C104.506 172.416 98.2979 167.187 97.1389 160.338C96.9278 159.258 97.1389 158.71 97.2452 157.833C97.1158 158.509 97.0664 158.704 97.0014 159.905C97.0014 159.931 96.9999 159.956 96.9999 159.982C97 168.276 103.725 175 112.02 175C119.449 175 125.618 169.607 126.825 162.523C126.851 162.331 126.871 162.138 126.894 161.944C127.192 159.368 126.861 156.661 125.919 154.397Z"
            fill="url(#paint13_radial_4455_9529)"
        />
<path
            d="M125.919 154.397C125.267 152.827 123.944 151.132 122.906 150.596C123.751 152.252 124.24 153.914 124.427 155.154C124.427 155.151 124.428 155.157 124.429 155.168C124.43 155.174 124.431 155.179 124.432 155.185C125.849 159.026 125.077 162.933 123.964 165.32C122.243 169.014 118.076 172.8 111.553 172.615C104.506 172.416 98.2979 167.187 97.1389 160.338C96.9278 159.258 97.1389 158.71 97.2452 157.833C97.1158 158.509 97.0664 158.704 97.0014 159.905C97.0014 159.931 96.9999 159.956 96.9999 159.982C97 168.276 103.725 175 112.02 175C119.449 175 125.618 169.607 126.825 162.523C126.851 162.331 126.871 162.138 126.894 161.944C127.192 159.368 126.861 156.661 125.919 154.397Z"
            fill="url(#paint14_radial_4455_9529)"
        />
<path
            d="M118.62 156.162C118.653 156.185 118.683 156.208 118.713 156.231C118.336 155.562 117.867 154.949 117.319 154.412C112.65 149.743 116.095 144.289 116.676 144.012C116.677 144.01 116.681 144.005 116.682 144.003C112.909 146.213 111.629 150.301 111.511 152.346C111.686 152.334 111.861 152.319 112.039 152.319C114.854 152.319 117.307 153.867 118.62 156.162Z"
            fill="url(#paint15_radial_4455_9529)"
        />
<path
            d="M112.048 157.094C112.024 157.468 110.704 158.757 110.242 158.757C105.971 158.757 105.278 161.34 105.278 161.34C105.467 163.516 106.981 165.307 108.816 166.255C108.899 166.298 108.984 166.337 109.069 166.376C109.214 166.44 109.361 166.501 109.51 166.556C110.139 166.779 110.798 166.906 111.464 166.933C118.951 167.285 120.401 157.984 114.999 155.283C116.382 155.042 117.818 155.599 118.62 156.162C117.307 153.867 114.855 152.319 112.039 152.319C111.861 152.319 111.686 152.334 111.511 152.346C110.005 152.45 108.564 153.005 107.377 153.939C107.606 154.133 107.865 154.392 108.41 154.928C109.428 155.933 112.043 156.972 112.048 157.094Z"
            fill="url(#paint16_radial_4455_9529)"
        />
<path
            d="M112.048 157.094C112.024 157.468 110.704 158.757 110.242 158.757C105.971 158.757 105.278 161.34 105.278 161.34C105.467 163.516 106.981 165.307 108.816 166.255C108.899 166.298 108.984 166.337 109.069 166.376C109.214 166.44 109.361 166.501 109.51 166.556C110.139 166.779 110.798 166.906 111.464 166.933C118.951 167.285 120.401 157.984 114.999 155.283C116.382 155.042 117.818 155.599 118.62 156.162C117.307 153.867 114.855 152.319 112.039 152.319C111.861 152.319 111.686 152.334 111.511 152.346C110.005 152.45 108.564 153.005 107.377 153.939C107.606 154.133 107.865 154.392 108.41 154.928C109.428 155.933 112.043 156.972 112.048 157.094Z"
            fill="url(#paint17_radial_4455_9529)"
        />
<path
            d="M106.677 153.44C106.781 153.507 106.885 153.576 106.988 153.646C106.646 152.448 106.631 151.18 106.946 149.975C105.403 150.678 104.203 151.788 103.33 152.769C103.403 152.767 105.581 152.728 106.677 153.44Z"
            fill="url(#paint18_radial_4455_9529)"
        />
<path
            d="M97.1389 160.338C98.2979 167.187 104.506 172.416 111.553 172.615C118.076 172.8 122.243 169.014 123.964 165.321C125.077 162.933 125.849 159.027 124.432 155.185L124.431 155.183L124.429 155.169C124.428 155.157 124.427 155.151 124.427 155.154C124.427 155.157 124.428 155.163 124.43 155.179C124.963 158.658 123.193 162.028 120.427 164.307L120.419 164.327C115.028 168.716 109.87 166.975 108.826 166.262C108.752 166.227 108.679 166.19 108.607 166.153C105.464 164.651 104.166 161.788 104.445 159.333C101.791 159.333 100.886 157.095 100.886 157.095C100.886 157.095 103.269 155.396 106.409 156.874C109.317 158.242 112.048 157.095 112.048 157.095C112.043 156.973 109.428 155.933 108.409 154.929C107.865 154.392 107.606 154.134 107.377 153.94C107.253 153.835 107.123 153.737 106.988 153.646C106.885 153.576 106.781 153.507 106.677 153.44C105.581 152.728 103.402 152.767 103.33 152.769H103.323C102.728 152.014 102.77 149.527 102.804 149.007C102.797 148.975 102.36 149.234 102.302 149.273C101.777 149.648 101.286 150.069 100.834 150.531C100.321 151.051 99.8518 151.614 99.4319 152.213C99.4319 152.214 99.4314 152.215 99.4312 152.215C99.4312 152.215 99.4316 152.214 99.4319 152.213C98.466 153.582 97.781 155.128 97.4164 156.763C97.4092 156.796 96.8758 159.128 97.1389 160.338Z"
            fill="url(#paint19_radial_4455_9529)"
        />
<path
            d="M117.319 154.412C117.867 154.95 118.336 155.562 118.713 156.231C118.796 156.293 118.873 156.355 118.939 156.416C122.344 159.553 120.56 163.991 120.427 164.307C123.193 162.028 124.963 158.658 124.43 155.179C122.732 150.946 119.852 149.239 117.5 145.522C117.381 145.334 117.262 145.146 117.146 144.947C117.087 144.846 117.032 144.742 116.981 144.636C116.883 144.448 116.808 144.248 116.756 144.042C116.757 144.032 116.753 144.023 116.747 144.015C116.741 144.008 116.732 144.003 116.722 144.002C116.713 143.999 116.703 143.999 116.694 144.002C116.692 144.003 116.689 144.005 116.686 144.006C116.683 144.007 116.679 144.01 116.675 144.012C116.095 144.289 112.65 149.743 117.319 154.412Z"
            fill="url(#paint20_radial_4455_9529)"
        />
<path
            d="M118.939 156.416C118.873 156.355 118.796 156.293 118.713 156.231C118.683 156.208 118.653 156.185 118.62 156.162C117.818 155.599 116.382 155.043 114.998 155.283C120.401 157.984 118.951 167.285 111.464 166.934C110.798 166.906 110.139 166.779 109.51 166.557C109.361 166.501 109.214 166.441 109.069 166.376C108.984 166.338 108.899 166.299 108.816 166.255C108.819 166.257 108.823 166.26 108.826 166.262C109.87 166.974 115.028 168.715 120.419 164.326L120.427 164.307C120.56 163.991 122.344 159.553 118.939 156.416Z"
            fill="url(#paint21_radial_4455_9529)"
        />
<path
            d="M105.277 161.34C105.277 161.34 105.971 158.757 110.242 158.757C110.704 158.757 112.024 157.468 112.048 157.095C112.073 156.721 109.317 158.242 106.409 156.873C103.269 155.396 100.886 157.095 100.886 157.095C100.886 157.095 101.791 159.333 104.445 159.333C104.166 161.788 105.465 164.651 108.607 166.153C108.677 166.186 108.743 166.223 108.815 166.255C106.981 165.307 105.467 163.516 105.277 161.34Z"
            fill="url(#paint22_radial_4455_9529)"
        />
<path
            d="M125.919 154.397C125.267 152.827 123.944 151.131 122.906 150.596C123.751 152.252 124.24 153.914 124.427 155.154C124.427 155.157 124.428 155.163 124.43 155.179C122.732 150.946 119.852 149.239 117.5 145.522C117.381 145.334 117.262 145.146 117.146 144.947C117.087 144.846 117.032 144.742 116.981 144.636C116.883 144.448 116.808 144.248 116.756 144.042C116.757 144.032 116.753 144.023 116.747 144.015C116.741 144.008 116.732 144.003 116.722 144.002C116.713 143.999 116.703 143.999 116.694 144.002C116.692 144.003 116.689 144.005 116.686 144.006C116.683 144.007 116.679 144.01 116.675 144.012C116.677 144.01 116.681 144.005 116.682 144.004C112.909 146.214 111.629 150.301 111.511 152.347C111.686 152.334 111.86 152.32 112.039 152.32C114.854 152.32 117.307 153.868 118.62 156.162C117.818 155.599 116.382 155.043 114.998 155.283C120.401 157.984 118.95 167.285 111.464 166.934C110.797 166.907 110.139 166.78 109.51 166.557C109.361 166.501 109.214 166.441 109.068 166.376C108.984 166.338 108.899 166.299 108.815 166.256C108.818 166.258 108.822 166.26 108.825 166.262C108.752 166.226 108.679 166.19 108.607 166.153C108.677 166.186 108.743 166.223 108.815 166.255C106.981 165.307 105.466 163.516 105.277 161.34C105.277 161.34 105.97 158.757 110.241 158.757C110.703 158.757 112.023 157.468 112.048 157.095C112.042 156.973 109.428 155.933 108.409 154.929C107.864 154.392 107.606 154.133 107.377 153.939C107.252 153.834 107.123 153.736 106.988 153.646C106.645 152.448 106.631 151.18 106.945 149.975C105.402 150.677 104.202 151.788 103.33 152.769H103.323C102.727 152.014 102.769 149.527 102.803 149.007C102.796 148.975 102.359 149.234 102.302 149.273C101.777 149.648 101.285 150.069 100.834 150.531C100.321 151.051 99.8517 151.614 99.4319 152.213C99.4319 152.214 99.4314 152.214 99.4312 152.215C99.4312 152.214 99.4316 152.214 99.4319 152.213C98.466 153.582 97.781 155.128 97.4164 156.763C97.4093 156.796 97.4032 156.829 97.3962 156.862C97.3679 156.994 97.2408 157.666 97.2231 157.809C97.2217 157.821 97.2244 157.798 97.2231 157.809C97.1071 158.503 97.0332 159.203 97.0016 159.905C97.0016 159.931 97 159.956 97 159.982C97 168.276 103.725 175 112.02 175C119.449 175 125.618 169.607 126.825 162.523C126.851 162.331 126.871 162.138 126.894 161.944C127.192 159.368 126.861 156.661 125.919 154.397ZM124.429 155.168C124.43 155.174 124.431 155.179 124.432 155.184L124.431 155.183L124.429 155.168Z"
            fill="url(#paint23_linear_4455_9529)"
        />
<path
            d="M125.919 256.397C125.267 254.827 123.944 253.131 122.906 252.596C123.751 254.252 124.24 255.914 124.427 257.154C124.427 257.157 124.428 257.163 124.43 257.179C122.732 252.946 119.852 251.239 117.5 247.522C117.381 247.334 117.262 247.146 117.146 246.947C117.087 246.846 117.032 246.742 116.981 246.636C116.883 246.448 116.808 246.248 116.756 246.042C116.757 246.032 116.753 246.023 116.747 246.015C116.741 246.008 116.732 246.003 116.722 246.002C116.713 245.999 116.703 245.999 116.694 246.002C116.692 246.003 116.689 246.005 116.686 246.006C116.683 246.007 116.679 246.01 116.675 246.012C116.677 246.01 116.681 246.005 116.682 246.004C112.909 248.214 111.629 252.301 111.511 254.347C110.004 254.45 108.564 255.005 107.377 255.94C107.253 255.835 107.123 255.737 106.988 255.646C106.646 254.448 106.631 253.18 106.946 251.975C105.403 252.678 104.203 253.788 103.33 254.769H103.323C102.728 254.015 102.77 251.527 102.804 251.007C102.797 250.975 102.36 251.234 102.302 251.273C101.777 251.648 101.286 252.069 100.835 252.531C100.321 253.051 99.8519 253.614 99.4319 254.213C99.4319 254.214 99.4314 254.214 99.4312 254.215C99.4312 254.214 99.4316 254.214 99.4319 254.213C98.466 255.582 97.781 257.128 97.4164 258.763C97.4093 258.796 97.4032 258.829 97.3962 258.862C97.3679 258.994 97.2662 259.656 97.2484 259.8C97.247 259.811 97.2464 259.821 97.2451 259.832C97.1135 260.516 97.0321 261.209 97.0013 261.905C97.0013 261.93 96.9998 261.956 96.9998 261.981C97 270.276 103.725 277 112.02 277C119.449 277 125.618 271.607 126.825 264.523C126.851 264.331 126.871 264.138 126.894 263.944C127.192 261.368 126.861 258.661 125.919 256.397ZM108.607 268.153C108.678 268.186 108.744 268.223 108.816 268.255C108.819 268.257 108.823 268.26 108.826 268.262C108.752 268.226 108.68 268.19 108.607 268.153ZM124.431 257.183L124.429 257.168C124.43 257.174 124.431 257.179 124.432 257.184L124.431 257.183Z"
            fill="url(#paint24_linear_4455_9529)"
        />
<path
            d="M125.919 256.397C125.267 254.827 123.944 253.132 122.906 252.596C123.751 254.252 124.24 255.914 124.427 257.154C124.427 257.151 124.428 257.157 124.429 257.168C124.43 257.174 124.431 257.179 124.432 257.185C125.849 261.026 125.077 264.933 123.964 267.32C122.243 271.014 118.076 274.8 111.553 274.615C104.506 274.416 98.2979 269.187 97.1389 262.338C96.9278 261.258 97.1389 260.71 97.2452 259.833C97.1158 260.509 97.0664 260.704 97.0014 261.905C97.0014 261.931 96.9999 261.956 96.9999 261.982C97 270.276 103.725 277 112.02 277C119.449 277 125.618 271.607 126.825 264.523C126.851 264.331 126.871 264.138 126.894 263.944C127.192 261.368 126.861 258.661 125.919 256.397Z"
            fill="url(#paint25_radial_4455_9529)"
        />
<path
            d="M125.919 256.397C125.267 254.827 123.944 253.132 122.906 252.596C123.751 254.252 124.24 255.914 124.427 257.154C124.427 257.151 124.428 257.157 124.429 257.168C124.43 257.174 124.431 257.179 124.432 257.185C125.849 261.026 125.077 264.933 123.964 267.32C122.243 271.014 118.076 274.8 111.553 274.615C104.506 274.416 98.2979 269.187 97.1389 262.338C96.9278 261.258 97.1389 260.71 97.2452 259.833C97.1158 260.509 97.0664 260.704 97.0014 261.905C97.0014 261.931 96.9999 261.956 96.9999 261.982C97 270.276 103.725 277 112.02 277C119.449 277 125.618 271.607 126.825 264.523C126.851 264.331 126.871 264.138 126.894 263.944C127.192 261.368 126.861 258.661 125.919 256.397Z"
            fill="url(#paint26_radial_4455_9529)"
        />
<path
            d="M118.62 258.162C118.653 258.185 118.683 258.208 118.713 258.231C118.336 257.562 117.867 256.949 117.319 256.412C112.65 251.743 116.095 246.289 116.676 246.012C116.677 246.01 116.681 246.005 116.682 246.003C112.909 248.213 111.629 252.301 111.511 254.346C111.686 254.334 111.861 254.319 112.039 254.319C114.854 254.319 117.307 255.867 118.62 258.162Z"
            fill="url(#paint27_radial_4455_9529)"
        />
<path
            d="M112.048 259.094C112.024 259.468 110.704 260.757 110.242 260.757C105.971 260.757 105.278 263.34 105.278 263.34C105.467 265.516 106.981 267.307 108.816 268.255C108.899 268.298 108.984 268.337 109.069 268.376C109.214 268.44 109.361 268.501 109.51 268.556C110.139 268.779 110.798 268.906 111.464 268.933C118.951 269.285 120.401 259.984 114.999 257.283C116.382 257.042 117.818 257.599 118.62 258.162C117.307 255.867 114.855 254.319 112.039 254.319C111.861 254.319 111.686 254.334 111.511 254.346C110.005 254.45 108.564 255.005 107.377 255.939C107.606 256.133 107.865 256.392 108.41 256.928C109.428 257.933 112.043 258.972 112.048 259.094Z"
            fill="url(#paint28_radial_4455_9529)"
        />
<path
            d="M112.048 259.094C112.024 259.468 110.704 260.757 110.242 260.757C105.971 260.757 105.278 263.34 105.278 263.34C105.467 265.516 106.981 267.307 108.816 268.255C108.899 268.298 108.984 268.337 109.069 268.376C109.214 268.44 109.361 268.501 109.51 268.556C110.139 268.779 110.798 268.906 111.464 268.933C118.951 269.285 120.401 259.984 114.999 257.283C116.382 257.042 117.818 257.599 118.62 258.162C117.307 255.867 114.855 254.319 112.039 254.319C111.861 254.319 111.686 254.334 111.511 254.346C110.005 254.45 108.564 255.005 107.377 255.939C107.606 256.133 107.865 256.392 108.41 256.928C109.428 257.933 112.043 258.972 112.048 259.094Z"
            fill="url(#paint29_radial_4455_9529)"
        />
<path
            d="M106.677 255.44C106.781 255.507 106.885 255.576 106.988 255.646C106.646 254.448 106.631 253.18 106.946 251.975C105.403 252.678 104.203 253.788 103.33 254.769C103.403 254.767 105.581 254.728 106.677 255.44Z"
            fill="url(#paint30_radial_4455_9529)"
        />
<path
            d="M97.1389 262.338C98.2979 269.187 104.506 274.416 111.553 274.615C118.076 274.8 122.243 271.014 123.964 267.321C125.077 264.933 125.849 261.027 124.432 257.185L124.431 257.183L124.429 257.169C124.428 257.157 124.427 257.151 124.427 257.154C124.427 257.157 124.428 257.163 124.43 257.179C124.963 260.658 123.193 264.028 120.427 266.307L120.419 266.327C115.028 270.716 109.87 268.975 108.826 268.262C108.752 268.227 108.679 268.19 108.607 268.153C105.464 266.651 104.166 263.788 104.445 261.333C101.791 261.333 100.886 259.095 100.886 259.095C100.886 259.095 103.269 257.396 106.409 258.874C109.317 260.242 112.048 259.095 112.048 259.095C112.043 258.973 109.428 257.933 108.409 256.929C107.865 256.392 107.606 256.134 107.377 255.94C107.253 255.835 107.123 255.737 106.988 255.646C106.885 255.576 106.781 255.507 106.677 255.44C105.581 254.728 103.402 254.767 103.33 254.769H103.323C102.728 254.014 102.77 251.527 102.804 251.007C102.797 250.975 102.36 251.234 102.302 251.273C101.777 251.648 101.286 252.069 100.834 252.531C100.321 253.051 99.8518 253.614 99.4319 254.213C99.4319 254.214 99.4314 254.215 99.4312 254.215C99.4312 254.215 99.4316 254.214 99.4319 254.213C98.466 255.582 97.781 257.128 97.4164 258.763C97.4092 258.796 96.8758 261.128 97.1389 262.338Z"
            fill="url(#paint31_radial_4455_9529)"
        />
<path
            d="M117.319 256.412C117.867 256.95 118.336 257.562 118.713 258.231C118.796 258.293 118.873 258.355 118.939 258.416C122.344 261.553 120.56 265.991 120.427 266.307C123.193 264.028 124.963 260.658 124.43 257.179C122.732 252.946 119.852 251.239 117.5 247.522C117.381 247.334 117.262 247.146 117.146 246.947C117.087 246.846 117.032 246.742 116.981 246.636C116.883 246.448 116.808 246.248 116.756 246.042C116.757 246.032 116.753 246.023 116.747 246.015C116.741 246.008 116.732 246.003 116.722 246.002C116.713 245.999 116.703 245.999 116.694 246.002C116.692 246.003 116.689 246.005 116.686 246.006C116.683 246.007 116.679 246.01 116.675 246.012C116.095 246.289 112.65 251.743 117.319 256.412Z"
            fill="url(#paint32_radial_4455_9529)"
        />
<path
            d="M118.939 258.416C118.873 258.355 118.796 258.293 118.713 258.231C118.683 258.208 118.653 258.185 118.62 258.162C117.818 257.599 116.382 257.043 114.998 257.283C120.401 259.984 118.951 269.285 111.464 268.934C110.798 268.906 110.139 268.779 109.51 268.557C109.361 268.501 109.214 268.441 109.069 268.376C108.984 268.338 108.899 268.299 108.816 268.255C108.819 268.257 108.823 268.26 108.826 268.262C109.87 268.974 115.028 270.715 120.419 266.326L120.427 266.307C120.56 265.991 122.344 261.553 118.939 258.416Z"
            fill="url(#paint33_radial_4455_9529)"
        />
<path
            d="M105.277 263.34C105.277 263.34 105.971 260.757 110.242 260.757C110.704 260.757 112.024 259.468 112.048 259.095C112.073 258.721 109.317 260.242 106.409 258.873C103.269 257.396 100.886 259.095 100.886 259.095C100.886 259.095 101.791 261.333 104.445 261.333C104.166 263.788 105.465 266.651 108.607 268.153C108.677 268.186 108.743 268.223 108.815 268.255C106.981 267.307 105.467 265.516 105.277 263.34Z"
            fill="url(#paint34_radial_4455_9529)"
        />
<path
            d="M125.919 256.397C125.267 254.827 123.944 253.131 122.906 252.596C123.751 254.252 124.24 255.914 124.427 257.154C124.427 257.157 124.428 257.163 124.43 257.179C122.732 252.946 119.852 251.239 117.5 247.522C117.381 247.334 117.262 247.146 117.146 246.947C117.087 246.846 117.032 246.742 116.981 246.636C116.883 246.448 116.808 246.248 116.756 246.042C116.757 246.032 116.753 246.023 116.747 246.015C116.741 246.008 116.732 246.003 116.722 246.002C116.713 245.999 116.703 245.999 116.694 246.002C116.692 246.003 116.689 246.005 116.686 246.006C116.683 246.007 116.679 246.01 116.675 246.012C116.677 246.01 116.681 246.005 116.682 246.004C112.909 248.214 111.629 252.301 111.511 254.347C111.686 254.334 111.86 254.32 112.039 254.32C114.854 254.32 117.307 255.868 118.62 258.162C117.818 257.599 116.382 257.043 114.998 257.283C120.401 259.984 118.95 269.285 111.464 268.934C110.797 268.907 110.139 268.78 109.51 268.557C109.361 268.501 109.214 268.441 109.068 268.376C108.984 268.338 108.899 268.299 108.815 268.256C108.818 268.258 108.822 268.26 108.825 268.262C108.752 268.226 108.679 268.19 108.607 268.153C108.677 268.186 108.743 268.223 108.815 268.255C106.981 267.307 105.466 265.516 105.277 263.34C105.277 263.34 105.97 260.757 110.241 260.757C110.703 260.757 112.023 259.468 112.048 259.095C112.042 258.973 109.428 257.933 108.409 256.929C107.864 256.392 107.606 256.133 107.377 255.939C107.252 255.834 107.123 255.736 106.988 255.646C106.645 254.448 106.631 253.18 106.945 251.975C105.402 252.677 104.202 253.788 103.33 254.769H103.323C102.727 254.014 102.769 251.527 102.803 251.007C102.796 250.975 102.359 251.234 102.302 251.273C101.777 251.648 101.285 252.069 100.834 252.531C100.321 253.051 99.8517 253.614 99.4319 254.213C99.4319 254.214 99.4314 254.214 99.4312 254.215C99.4312 254.214 99.4316 254.214 99.4319 254.213C98.466 255.582 97.781 257.128 97.4164 258.763C97.4093 258.796 97.4032 258.829 97.3962 258.862C97.3679 258.994 97.2408 259.666 97.2231 259.809C97.2217 259.821 97.2244 259.798 97.2231 259.809C97.1071 260.503 97.0332 261.203 97.0016 261.905C97.0016 261.931 97 261.956 97 261.982C97 270.276 103.725 277 112.02 277C119.449 277 125.618 271.607 126.825 264.523C126.851 264.331 126.871 264.138 126.894 263.944C127.192 261.368 126.861 258.661 125.919 256.397ZM124.429 257.168C124.43 257.174 124.431 257.179 124.432 257.184L124.431 257.183L124.429 257.168Z"
            fill="url(#paint35_linear_4455_9529)"
        />
<path
            d="M137 103C137 99.6863 139.686 97 143 97H376C379.314 97 382 99.6863 382 103C382 106.314 379.314 109 376 109H143C139.686 109 137 106.314 137 103Z"
            fill="#C4C4C4"
        />
<path
            d="M137 154C137 150.686 139.686 148 143 148H304C307.314 148 310 150.686 310 154C310 157.314 307.314 160 304 160H143C139.686 160 137 157.314 137 154Z"
            fill="#C4C4C4"
        />
<path
            d="M137 205C137 201.686 139.686 199 143 199H185C188.314 199 191 201.686 191 205C191 208.314 188.314 211 185 211H143C139.686 211 137 208.314 137 205Z"
            fill="#C4C4C4"
        />
<path
            d="M137 256C137 252.686 139.686 250 143 250H248C251.314 250 254 252.686 254 256C254 259.314 251.314 262 248 262H143C139.686 262 137 259.314 137 256Z"
            fill="#C4C4C4"
        />
<path
            d="M137 307C137 303.686 139.686 301 143 301H232C235.314 301 238 303.686 238 307C238 310.314 235.314 313 232 313H143C139.686 313 137 310.314 137 307Z"
            fill="#C4C4C4"
        />
<path
            d="M137 117C137 114.791 138.791 113 141 113H214C216.209 113 218 114.791 218 117C218 119.209 216.209 121 214 121H141C138.791 121 137 119.209 137 117Z"
            fill="#C4C4C4"
        />
<path
            d="M137 168C137 165.791 138.791 164 141 164H214C216.209 164 218 165.791 218 168C218 170.209 216.209 172 214 172H141C138.791 172 137 170.209 137 168Z"
            fill="#C4C4C4"
        />
<path
            d="M137 219C137 216.791 138.791 215 141 215H167C169.209 215 171 216.791 171 219C171 221.209 169.209 223 167 223H141C138.791 223 137 221.209 137 219Z"
            fill="#C4C4C4"
        />
<path
            d="M137 270C137 267.791 138.791 266 141 266H214C216.209 266 218 267.791 218 270C218 272.209 216.209 274 214 274H141C138.791 274 137 272.209 137 270Z"
            fill="#C4C4C4"
        />
<path
            d="M137 321C137 318.791 138.791 317 141 317H196C198.209 317 200 318.791 200 321C200 323.209 198.209 325 196 325H141C138.791 325 137 323.209 137 321Z"
            fill="#C4C4C4"
        />
<path
            d="M73 268.5V258.57C73 258.016 73.5 258 73.5 258H78V262H75V267.002H83V265H85V268.5C85 269 84.5 269 84.5 269H73.5C73.5 269 73 269 73 268.5Z"
            fill="#C4C4C4"
        />
<path
            d="M73 319.5V309.57C73 309.016 73.5 309 73.5 309H78V313H75V318.002H83V316H85V319.5C85 320 84.5 320 84.5 320H73.5C73.5 320 73 320 73 319.5Z"
            fill="#C4C4C4"
        />
<path d="M83 255H85V263H83V255Z" fill="#C4C4C4" />
<path d="M80 258H88V260H80V258Z" fill="#C4C4C4" />
<path d="M83 306H85V314H83V306Z" fill="#C4C4C4" />
<path d="M80 309H88V311H80V309Z" fill="#C4C4C4" />
<path
            d="M97 202C97 200.895 97.8954 200 99 200H107.975C108.397 200 108.809 200.134 109.151 200.383L110.849 201.617C111.191 201.866 111.603 202 112.025 202H125C126.105 202 127 202.895 127 204V220C127 221.105 126.105 222 125 222H99C97.8954 222 97 221.105 97 220V202Z"
            fill="#00717C"
        />
<path
            d="M97 206C97 204.895 97.8954 204 99 204H125C126.105 204 127 204.895 127 206V220C127 221.105 126.105 222 125 222H99C97.8954 222 97 221.105 97 220V206Z"
            fill="url(#paint36_linear_4455_9529)"
        />
<path
            d="M98.9714 320.125H105.719C105.767 320.125 105.817 320.119 105.861 320.099C105.981 320.046 106.068 319.955 106.099 319.849L107.971 312.812L101.028 311.125L98.9714 320.125Z"
            fill="url(#paint37_linear_4455_9529)"
        />
<path
            d="M106 302C106 300.895 106.895 300 108 300H116C117.105 300 118 300.895 118 302V310C118 311.105 117.105 312 116 312H108C106.895 312 106 311.105 106 310V302Z"
            fill="url(#paint38_linear_4455_9529)"
        />
<path
            d="M112.238 312H116C117.105 312 118 311.104 118 310V302C118 301.245 117.582 300.588 116.965 300.248C116.688 305.602 114.811 310.083 112.238 312Z"
            fill="url(#paint39_linear_4455_9529)"
        />
<path
            d="M100.403 306.526C100.25 305.432 101.012 304.421 102.106 304.267L110.028 303.154C111.121 303 112.133 303.762 112.287 304.856L113.4 312.778C113.554 313.872 112.792 314.883 111.698 315.037L103.776 316.15C102.682 316.304 101.67 315.542 101.517 314.448L100.403 306.526Z"
            fill="url(#paint40_linear_4455_9529)"
        />
<path
            d="M106.873 315.715C108.837 313.371 110.125 309.446 110.125 305C110.125 304.372 110.099 303.755 110.05 303.151C111.135 303.01 112.134 303.769 112.287 304.856L113.4 312.778C113.554 313.872 112.792 314.883 111.698 315.037L106.873 315.715Z"
            fill="#05919F"
        />
<path
            d="M111.235 308.245C111.313 307.143 112.268 306.313 113.37 306.39L121.351 306.948C122.453 307.025 123.283 307.981 123.206 309.082L122.648 317.063C122.571 318.165 121.615 318.996 120.514 318.919L112.533 318.36C111.431 318.283 110.6 317.328 110.677 316.226L111.235 308.245Z"
            fill="url(#paint41_linear_4455_9529)"
        />
<path
            d="M121.994 307.102C121.844 312.605 118.714 317 114.875 317C113.34 317 111.919 316.297 110.756 315.103L110.677 316.225C110.6 317.327 111.431 318.283 112.533 318.36L120.514 318.918C121.615 318.995 122.571 318.164 122.648 317.062L123.206 309.082C123.267 308.208 122.758 307.426 121.994 307.102Z"
            fill="#D38F00"
        />
<path
            d="M101 311L119 310V326L101.498 325.028C101.218 325.012 101 324.793 101 324.529V311Z"
            fill="url(#paint42_linear_4455_9529)"
        />
<path
            d="M119 310L123 312.125V323.661C123 323.866 122.9 324.05 122.749 324.126L119 326V310Z"
            fill="url(#paint43_linear_4455_9529)"
        />
<path
            d="M109.097 313C108.861 313 108.635 313.094 108.468 313.262C108.301 313.429 108.25 313.669 108.25 313.906V318.375H106.125L110 324L113.875 318.375H111.75V313.891C111.75 313.654 111.671 313.429 111.504 313.262C111.338 313.094 111.111 313 110.875 313H109.097Z"
            fill="#102A4C"
        />
<path
            d="M121.375 320.813C121.39 320.887 121.425 320.975 121.551 320.989C121.575 320.991 121.598 320.987 121.621 320.98L125 320L123 312.125L119 310L121.375 320.813Z"
            fill="url(#paint44_linear_4455_9529)"
        />
</g>
<defs>
<filter
            id="filter0_d_4455_9529"
            x="0"
            y="0"
            width="601"
            height="382"
            filterUnits="userSpaceOnUse"
            color-interpolation-filters="sRGB"
        >
<feFlood flood-opacity="0" result="BackgroundImageFix" />
<feColorMatrix
                in="SourceAlpha"
                type="matrix"
                values="0 0 0 0 0 0 0 0 0 0 0 0 0 0 0 0 0 0 127 0"
                result="hardAlpha"
            />
<feOffset dy="4" />
<feGaussianBlur stdDeviation="8" />
<feComposite in2="hardAlpha" operator="out" />
<feColorMatrix
                type="matrix"
                values="0 0 0 0 0 0 0 0 0 0 0 0 0 0 0 0 0 0 0.32 0"
            />
<feBlend
                mode="normal"
                in2="BackgroundImageFix"
                result="effect1_dropShadow_4455_9529"
            />
<feBlend
                mode="normal"
                in="SourceGraphic"
                in2="effect1_dropShadow_4455_9529"
                result="shape"
            />
</filter>
<linearGradient
            id="paint0_linear_4455_9529"
            x1="2714.52"
            y1="573.499"
            x2="302.726"
            y2="2900.02"
            gradientUnits="userSpaceOnUse"
        >
<stop offset="0.05" stop-color="#FFF44F" />
<stop offset="0.37" stop-color="#FF980E" />
<stop offset="0.53" stop-color="#FF3647" />
<stop offset="0.7" stop-color="#E31587" />
</linearGradient>
<radialGradient
            id="paint1_radial_4455_9529"
            cx="0"
            cy="0"
            r="1"
            gradientUnits="userSpaceOnUse"
            gradientTransform="translate(2194.42 -215.211) scale(3072.01 3123.74)"
        >
<stop offset="0.13" stop-color="#FFBD4F" />
<stop offset="0.28" stop-color="#FF980E" />
<stop offset="0.47" stop-color="#FF3750" />
<stop offset="0.78" stop-color="#EB0878" />
<stop offset="0.86" stop-color="#E50080" />
</radialGradient>
<radialGradient
            id="paint2_radial_4455_9529"
            cx="0"
            cy="0"
            r="1"
            gradientUnits="userSpaceOnUse"
            gradientTransform="translate(1302.23 1075.77) scale(3148.81 3123.74)"
        >
<stop offset="0.3" stop-color="#960E18" />
<stop offset="0.35" stop-color="#B11927" stop-opacity="0.74" />
<stop offset="0.43" stop-color="#DB293D" stop-opacity="0.34" />
<stop offset="0.5" stop-color="#F5334B" stop-opacity="0.09" />
<stop offset="0.53" stop-color="#FF3750" stop-opacity="0" />
</radialGradient>
<radialGradient
            id="paint3_radial_4455_9529"
            cx="0"
            cy="0"
            r="1"
            gradientUnits="userSpaceOnUse"
            gradientTransform="translate(457.219 -53.7282) scale(1008.32 1711.87)"
        >
<stop offset="0.13" stop-color="#FFF44F" />
<stop offset="0.53" stop-color="#FF980E" />
</radialGradient>
<radialGradient
            id="paint4_radial_4455_9529"
            cx="0"
            cy="0"
            r="1"
            gradientUnits="userSpaceOnUse"
            gradientTransform="translate(408.957 1711.54) scale(1334.27 1462.37)"
        >
<stop offset="0.35" stop-color="#3A8EE6" />
<stop offset="0.67" stop-color="#9059FF" />
<stop offset="1" stop-color="#C139E6" />
</radialGradient>
<radialGradient
            id="paint5_radial_4455_9529"
            cx="0"
            cy="0"
            r="1"
            gradientUnits="userSpaceOnUse"
            gradientTransform="translate(728.788 583.903) scale(708.497 862.801)"
        >
<stop offset="0.21" stop-color="#9059FF" stop-opacity="0" />
<stop offset="0.97" stop-color="#6E008B" stop-opacity="0.6" />
</radialGradient>
<radialGradient
            id="paint6_radial_4455_9529"
            cx="0"
            cy="0"
            r="1"
            gradientUnits="userSpaceOnUse"
            gradientTransform="translate(871.458 -268.1) scale(1060.75 1064.52)"
        >
<stop offset="0.1" stop-color="#FFE226" />
<stop offset="0.79" stop-color="#FF7139" />
</radialGradient>
<radialGradient
            id="paint7_radial_4455_9529"
            cx="0"
            cy="0"
            r="1"
            gradientUnits="userSpaceOnUse"
            gradientTransform="translate(2460.38 -870.313) scale(5064.24 4251.15)"
        >
<stop offset="0.11" stop-color="#FFF44F" />
<stop offset="0.46" stop-color="#FF980E" />
<stop offset="0.72" stop-color="#FF3647" />
<stop offset="0.9" stop-color="#E31587" />
</radialGradient>
<radialGradient
            id="paint8_radial_4455_9529"
            cx="0"
            cy="0"
            r="1"
            gradientUnits="userSpaceOnUse"
            gradientTransform="translate(489.797 155.641) rotate(77.3946) scale(1606.71 6950.38)"
        >
<stop stop-color="#FFF44F" />
<stop offset="0.3" stop-color="#FF980E" />
<stop offset="0.57" stop-color="#FF3647" />
<stop offset="0.74" stop-color="#E31587" />
</radialGradient>
<radialGradient
            id="paint9_radial_4455_9529"
            cx="0"
            cy="0"
            r="1"
            gradientUnits="userSpaceOnUse"
            gradientTransform="translate(339.327 -405.014) scale(2907.61 2856.54)"
        >
<stop offset="0.14" stop-color="#FFF44F" />
<stop offset="0.48" stop-color="#FF980E" />
<stop offset="0.66" stop-color="#FF3647" />
<stop offset="0.9" stop-color="#E31587" />
</radialGradient>
<radialGradient
            id="paint10_radial_4455_9529"
            cx="0"
            cy="0"
            r="1"
            gradientUnits="userSpaceOnUse"
            gradientTransform="translate(1879.01 -341.297) scale(3494.85 3126.56)"
        >
<stop offset="0.09" stop-color="#FFF44F" />
<stop offset="0.63" stop-color="#FF980E" />
</radialGradient>
<linearGradient
            id="paint11_linear_4455_9529"
            x1="2497"
            y1="526.999"
            x2="568.402"
            y2="2634.21"
            gradientUnits="userSpaceOnUse"
        >
<stop offset="0.17" stop-color="#FFF44F" stop-opacity="0.8" />
<stop offset="0.6" stop-color="#FFF44F" stop-opacity="0" />
</linearGradient>
<linearGradient
            id="paint12_linear_4455_9529"
            x1="2714.52"
            y1="624.499"
            x2="302.726"
            y2="2951.02"
            gradientUnits="userSpaceOnUse"
        >
<stop offset="0.05" stop-color="#FFF44F" />
<stop offset="0.37" stop-color="#FF980E" />
<stop offset="0.53" stop-color="#FF3647" />
<stop offset="0.7" stop-color="#E31587" />
</linearGradient>
<radialGradient
            id="paint13_radial_4455_9529"
            cx="0"
            cy="0"
            r="1"
            gradientUnits="userSpaceOnUse"
            gradientTransform="translate(2194.42 -164.211) scale(3072.01 3123.74)"
        >
<stop offset="0.13" stop-color="#FFBD4F" />
<stop offset="0.28" stop-color="#FF980E" />
<stop offset="0.47" stop-color="#FF3750" />
<stop offset="0.78" stop-color="#EB0878" />
<stop offset="0.86" stop-color="#E50080" />
</radialGradient>
<radialGradient
            id="paint14_radial_4455_9529"
            cx="0"
            cy="0"
            r="1"
            gradientUnits="userSpaceOnUse"
            gradientTransform="translate(1302.23 1126.77) scale(3148.81 3123.74)"
        >
<stop offset="0.3" stop-color="#960E18" />
<stop offset="0.35" stop-color="#B11927" stop-opacity="0.74" />
<stop offset="0.43" stop-color="#DB293D" stop-opacity="0.34" />
<stop offset="0.5" stop-color="#F5334B" stop-opacity="0.09" />
<stop offset="0.53" stop-color="#FF3750" stop-opacity="0" />
</radialGradient>
<radialGradient
            id="paint15_radial_4455_9529"
            cx="0"
            cy="0"
            r="1"
            gradientUnits="userSpaceOnUse"
            gradientTransform="translate(457.219 -2.72817) scale(1008.32 1711.87)"
        >
<stop offset="0.13" stop-color="#FFF44F" />
<stop offset="0.53" stop-color="#FF980E" />
</radialGradient>
<radialGradient
            id="paint16_radial_4455_9529"
            cx="0"
            cy="0"
            r="1"
            gradientUnits="userSpaceOnUse"
            gradientTransform="translate(408.957 1762.54) scale(1334.27 1462.37)"
        >
<stop offset="0.35" stop-color="#3A8EE6" />
<stop offset="0.67" stop-color="#9059FF" />
<stop offset="1" stop-color="#C139E6" />
</radialGradient>
<radialGradient
            id="paint17_radial_4455_9529"
            cx="0"
            cy="0"
            r="1"
            gradientUnits="userSpaceOnUse"
            gradientTransform="translate(728.788 634.903) scale(708.497 862.801)"
        >
<stop offset="0.21" stop-color="#9059FF" stop-opacity="0" />
<stop offset="0.97" stop-color="#6E008B" stop-opacity="0.6" />
</radialGradient>
<radialGradient
            id="paint18_radial_4455_9529"
            cx="0"
            cy="0"
            r="1"
            gradientUnits="userSpaceOnUse"
            gradientTransform="translate(871.458 -217.1) scale(1060.75 1064.52)"
        >
<stop offset="0.1" stop-color="#FFE226" />
<stop offset="0.79" stop-color="#FF7139" />
</radialGradient>
<radialGradient
            id="paint19_radial_4455_9529"
            cx="0"
            cy="0"
            r="1"
            gradientUnits="userSpaceOnUse"
            gradientTransform="translate(2460.38 -819.313) scale(5064.24 4251.15)"
        >
<stop offset="0.11" stop-color="#FFF44F" />
<stop offset="0.46" stop-color="#FF980E" />
<stop offset="0.72" stop-color="#FF3647" />
<stop offset="0.9" stop-color="#E31587" />
</radialGradient>
<radialGradient
            id="paint20_radial_4455_9529"
            cx="0"
            cy="0"
            r="1"
            gradientUnits="userSpaceOnUse"
            gradientTransform="translate(489.797 206.641) rotate(77.3946) scale(1606.71 6950.38)"
        >
<stop stop-color="#FFF44F" />
<stop offset="0.3" stop-color="#FF980E" />
<stop offset="0.57" stop-color="#FF3647" />
<stop offset="0.74" stop-color="#E31587" />
</radialGradient>
<radialGradient
            id="paint21_radial_4455_9529"
            cx="0"
            cy="0"
            r="1"
            gradientUnits="userSpaceOnUse"
            gradientTransform="translate(339.327 -354.014) scale(2907.61 2856.54)"
        >
<stop offset="0.14" stop-color="#FFF44F" />
<stop offset="0.48" stop-color="#FF980E" />
<stop offset="0.66" stop-color="#FF3647" />
<stop offset="0.9" stop-color="#E31587" />
</radialGradient>
<radialGradient
            id="paint22_radial_4455_9529"
            cx="0"
            cy="0"
            r="1"
            gradientUnits="userSpaceOnUse"
            gradientTransform="translate(1879.01 -290.297) scale(3494.85 3126.56)"
        >
<stop offset="0.09" stop-color="#FFF44F" />
<stop offset="0.63" stop-color="#FF980E" />
</radialGradient>
<linearGradient
            id="paint23_linear_4455_9529"
            x1="2497"
            y1="577.999"
            x2="568.402"
            y2="2685.21"
            gradientUnits="userSpaceOnUse"
        >
<stop offset="0.17" stop-color="#FFF44F" stop-opacity="0.8" />
<stop offset="0.6" stop-color="#FFF44F" stop-opacity="0" />
</linearGradient>
<linearGradient
            id="paint24_linear_4455_9529"
            x1="2714.52"
            y1="726.499"
            x2="302.726"
            y2="3053.02"
            gradientUnits="userSpaceOnUse"
        >
<stop offset="0.05" stop-color="#FFF44F" />
<stop offset="0.37" stop-color="#FF980E" />
<stop offset="0.53" stop-color="#FF3647" />
<stop offset="0.7" stop-color="#E31587" />
</linearGradient>
<radialGradient
            id="paint25_radial_4455_9529"
            cx="0"
            cy="0"
            r="1"
            gradientUnits="userSpaceOnUse"
            gradientTransform="translate(2194.42 -62.2112) scale(3072.01 3123.74)"
        >
<stop offset="0.13" stop-color="#FFBD4F" />
<stop offset="0.28" stop-color="#FF980E" />
<stop offset="0.47" stop-color="#FF3750" />
<stop offset="0.78" stop-color="#EB0878" />
<stop offset="0.86" stop-color="#E50080" />
</radialGradient>
<radialGradient
            id="paint26_radial_4455_9529"
            cx="0"
            cy="0"
            r="1"
            gradientUnits="userSpaceOnUse"
            gradientTransform="translate(1302.23 1228.77) scale(3148.81 3123.74)"
        >
<stop offset="0.3" stop-color="#960E18" />
<stop offset="0.35" stop-color="#B11927" stop-opacity="0.74" />
<stop offset="0.43" stop-color="#DB293D" stop-opacity="0.34" />
<stop offset="0.5" stop-color="#F5334B" stop-opacity="0.09" />
<stop offset="0.53" stop-color="#FF3750" stop-opacity="0" />
</radialGradient>
<radialGradient
            id="paint27_radial_4455_9529"
            cx="0"
            cy="0"
            r="1"
            gradientUnits="userSpaceOnUse"
            gradientTransform="translate(457.219 99.2718) scale(1008.32 1711.87)"
        >
<stop offset="0.13" stop-color="#FFF44F" />
<stop offset="0.53" stop-color="#FF980E" />
</radialGradient>
<radialGradient
            id="paint28_radial_4455_9529"
            cx="0"
            cy="0"
            r="1"
            gradientUnits="userSpaceOnUse"
            gradientTransform="translate(408.957 1864.54) scale(1334.27 1462.37)"
        >
<stop offset="0.35" stop-color="#3A8EE6" />
<stop offset="0.67" stop-color="#9059FF" />
<stop offset="1" stop-color="#C139E6" />
</radialGradient>
<radialGradient
            id="paint29_radial_4455_9529"
            cx="0"
            cy="0"
            r="1"
            gradientUnits="userSpaceOnUse"
            gradientTransform="translate(728.788 736.903) scale(708.497 862.801)"
        >
<stop offset="0.21" stop-color="#9059FF" stop-opacity="0" />
<stop offset="0.97" stop-color="#6E008B" stop-opacity="0.6" />
</radialGradient>
<radialGradient
            id="paint30_radial_4455_9529"
            cx="0"
            cy="0"
            r="1"
            gradientUnits="userSpaceOnUse"
            gradientTransform="translate(871.458 -115.1) scale(1060.75 1064.52)"
        >
<stop offset="0.1" stop-color="#FFE226" />
<stop offset="0.79" stop-color="#FF7139" />
</radialGradient>
<radialGradient
            id="paint31_radial_4455_9529"
            cx="0"
            cy="0"
            r="1"
            gradientUnits="userSpaceOnUse"
            gradientTransform="translate(2460.38 -717.313) scale(5064.24 4251.15)"
        >
<stop offset="0.11" stop-color="#FFF44F" />
<stop offset="0.46" stop-color="#FF980E" />
<stop offset="0.72" stop-color="#FF3647" />
<stop offset="0.9" stop-color="#E31587" />
</radialGradient>
<radialGradient
            id="paint32_radial_4455_9529"
            cx="0"
            cy="0"
            r="1"
            gradientUnits="userSpaceOnUse"
            gradientTransform="translate(489.797 308.641) rotate(77.3946) scale(1606.71 6950.38)"
        >
<stop stop-color="#FFF44F" />
<stop offset="0.3" stop-color="#FF980E" />
<stop offset="0.57" stop-color="#FF3647" />
<stop offset="0.74" stop-color="#E31587" />
</radialGradient>
<radialGradient
            id="paint33_radial_4455_9529"
            cx="0"
            cy="0"
            r="1"
            gradientUnits="userSpaceOnUse"
            gradientTransform="translate(339.327 -252.014) scale(2907.61 2856.54)"
        >
<stop offset="0.14" stop-color="#FFF44F" />
<stop offset="0.48" stop-color="#FF980E" />
<stop offset="0.66" stop-color="#FF3647" />
<stop offset="0.9" stop-color="#E31587" />
</radialGradient>
<radialGradient
            id="paint34_radial_4455_9529"
            cx="0"
            cy="0"
            r="1"
            gradientUnits="userSpaceOnUse"
            gradientTransform="translate(1879.01 -188.297) scale(3494.85 3126.56)"
        >
<stop offset="0.09" stop-color="#FFF44F" />
<stop offset="0.63" stop-color="#FF980E" />
</radialGradient>
<linearGradient
            id="paint35_linear_4455_9529"
            x1="2497"
            y1="679.999"
            x2="568.402"
            y2="2787.21"
            gradientUnits="userSpaceOnUse"
        >
<stop offset="0.17" stop-color="#FFF44F" stop-opacity="0.8" />
<stop offset="0.6" stop-color="#FFF44F" stop-opacity="0" />
</linearGradient>
<linearGradient
            id="paint36_linear_4455_9529"
            x1="127"
            y1="204"
            x2="101.105"
            y2="226.685"
            gradientUnits="userSpaceOnUse"
        >
<stop stop-color="#49BAC8" />
<stop offset="1" stop-color="#05919F" />
</linearGradient>
<linearGradient
            id="paint37_linear_4455_9529"
            x1="99"
            y1="320.125"
            x2="104.964"
            y2="310.855"
            gradientUnits="userSpaceOnUse"
        >
<stop stop-color="#48658B" />
<stop offset="1" stop-color="#6582AA" />
</linearGradient>
<linearGradient
            id="paint38_linear_4455_9529"
            x1="106"
            y1="312"
            x2="118.247"
            y2="300.258"
            gradientUnits="userSpaceOnUse"
        >
<stop stop-color="#AE46DE" />
<stop offset="1" stop-color="#CC66FF" />
</linearGradient>
<linearGradient
            id="paint39_linear_4455_9529"
            x1="106"
            y1="312"
            x2="118.247"
            y2="300.258"
            gradientUnits="userSpaceOnUse"
        >
<stop stop-color="#A252D2" />
<stop offset="1" stop-color="#A252D2" />
</linearGradient>
<linearGradient
            id="paint40_linear_4455_9529"
            x1="102.625"
            y1="316.125"
            x2="111.52"
            y2="303.312"
            gradientUnits="userSpaceOnUse"
        >
<stop stop-color="#05919F" />
<stop offset="1" stop-color="#49BAC8" />
</linearGradient>
<linearGradient
            id="paint41_linear_4455_9529"
            x1="110.672"
            y1="318.923"
            x2="123.469"
            y2="306.654"
            gradientUnits="userSpaceOnUse"
        >
<stop stop-color="#D38F00" />
<stop offset="1" stop-color="#FFAD00" />
</linearGradient>
<linearGradient
            id="paint42_linear_4455_9529"
            x1="101"
            y1="325.063"
            x2="118.09"
            y2="309.03"
            gradientUnits="userSpaceOnUse"
        >
<stop stop-color="#6582AA" />
<stop offset="1" stop-color="#A1C0EB" />
</linearGradient>
<linearGradient
            id="paint43_linear_4455_9529"
            x1="119"
            y1="326"
            x2="124.882"
            y2="312.708"
            gradientUnits="userSpaceOnUse"
        >
<stop stop-color="#48658B" />
<stop offset="1" stop-color="#6582AA" />
</linearGradient>
<linearGradient
            id="paint44_linear_4455_9529"
            x1="125"
            y1="324"
            x2="120.209"
            y2="309.841"
            gradientUnits="userSpaceOnUse"
        >
<stop stop-color="#6582AA" />
<stop offset="1" stop-color="#A1C0EB" />
</linearGradient>
<clipPath id="clip0_4455_9529">
<rect width="601" height="382" fill="white" />
</clipPath>
</defs>
</svg>
