<svg width="1920" height="1080" viewBox="0 0 1920 1080" fill="none" xmlns="http://www.w3.org/2000/svg">
<path d="M0 8.00002C0 3.58174 3.58172 0 8 0H1912C1916.42 0 1920 3.58172 1920 8V1072C1920 1076.42 1916.42 1080 1912 1080H7.99999C3.58171 1080 0 1076.42 0 1072V8.00002Z" fill="url(#paint0_linear_4447_436)"/>
<path d="M16 24C16 19.5817 19.5817 16 24 16H944C948.418 16 952 19.5817 952 24V1056C952 1060.42 948.418 1064 944 1064H24C19.5817 1064 16 1060.42 16 1056V24Z" fill="#C9C9C9" fill-opacity="0.15"/>
<path d="M968 24C968 19.5817 971.582 16 976 16H1896C1900.42 16 1904 19.5817 1904 24V528C1904 532.418 1900.42 536 1896 536H976C971.582 536 968 532.418 968 528V24Z" fill="#C9C9C9" fill-opacity="0.15"/>
<path d="M976 560C976 555.582 979.582 552 984 552H1424C1428.42 552 1432 555.582 1432 560V1048C1432 1052.42 1428.42 1056 1424 1056H984C979.582 1056 976 1052.42 976 1048V560Z" fill="#C9C9C9" fill-opacity="0.15"/>
<path d="M1440 559C1440 554.582 1443.58 551 1448 551H1888C1892.42 551 1896 554.582 1896 559V1047C1896 1051.42 1892.42 1055 1888 1055H1448C1443.58 1055 1440 1051.42 1440 1047V559Z" fill="#C9C9C9" fill-opacity="0.4"/>
<path d="M31 39C31 34.5818 34.5817 31 39 31H929C933.418 31 937 34.5817 937 39V1041C937 1045.42 933.418 1049 929 1049H39C34.5817 1049 31 1045.42 31 1041V39Z" fill="#3D3D3D"/>
<path d="M32 40C32 35.5817 35.5817 32 40 32H928C932.418 32 936 35.5817 936 40V1040C936 1044.42 932.418 1048 928 1048H40C35.5817 1048 32 1044.42 32 1040V40Z" fill="#1B1B1B"/>
<path d="M68 51C68 50.446 67.554 50 67 50H59C58.446 50 58 50.446 58 51C58 51.554 58.446 52 59 52H67C67.554 52 68 51.554 68 51ZM68 55C68 54.446 67.554 54 67 54H59C58.446 54 58 54.446 58 55C58 55.554 58.446 56 59 56H67C67.554 56 68 55.554 68 55ZM68 59C68 58.446 67.554 58 67 58H59C58.446 58 58 58.446 58 59C58 59.554 58.446 60 59 60H67C67.554 60 68 59.554 68 59Z" fill="#63D0DF"/>
<path d="M95 55C95 51.6863 97.6863 49 101 49H121C124.314 49 127 51.6863 127 55C127 58.3137 124.314 61 121 61H101C97.6863 61 95 58.3137 95 55Z" fill="#63D0DF"/>
<path d="M143 55C143 51.6863 145.686 49 149 49H169C172.314 49 175 51.6863 175 55C175 58.3137 172.314 61 169 61H149C145.686 61 143 58.3137 143 55Z" fill="#63D0DF"/>
<path d="M191 55C191 51.6863 193.686 49 197 49H217C220.314 49 223 51.6863 223 55C223 58.3137 220.314 61 217 61H197C193.686 61 191 58.3137 191 55Z" fill="#63D0DF"/>
<path fill-rule="evenodd" clip-rule="evenodd" d="M821 57V59H829V57H821Z" fill="#63D0DF"/>
<path d="M861 59H865L863.5 57.5L864.789 56.1579C864.789 56.1579 865.263 55.6842 864.789 55.2105C864.316 54.7368 863.842 55.2105 863.842 55.2105L862.5 56.5L861 55V59Z" fill="#63D0DF"/>
<path d="M869 51H865L866.5 52.5L865.211 53.8421C865.211 53.8421 864.737 54.3158 865.211 54.7895C865.684 55.2632 866.158 54.7895 866.158 54.7895L867.5 53.5L869 55V51Z" fill="#63D0DF"/>
<path d="M902 51.0039C901.735 51.0039 901.48 51.1093 901.293 51.2968C901.105 51.4843 901 51.7387 901 52.0039C901 52.2691 901.105 52.5234 901.293 52.7109L903.586 55.0039L901.293 57.2969C901.105 57.4844 901 57.7387 901 58.0039C901 58.2691 901.105 58.5235 901.293 58.711C901.48 58.8985 901.735 59.0039 902 59.0039C902.265 59.0038 902.52 58.8985 902.707 58.7109L905 56.4179L907.283 58.7009C907.376 58.7968 907.488 58.873 907.611 58.925C907.734 58.9771 907.866 59.0039 908 59.0039C908.265 59.0039 908.52 58.8985 908.707 58.711C908.895 58.5235 909 58.2691 909 58.0039C909 57.7387 908.895 57.4844 908.707 57.2969L906.414 55.0039L908.697 52.7209C908.793 52.6277 908.869 52.5163 908.921 52.3931C908.973 52.2699 909 52.1376 909 52.0039C909 51.7387 908.895 51.4843 908.707 51.2968C908.52 51.1093 908.265 51.0039 908 51.0039C907.735 51.004 907.48 51.1094 907.293 51.2969L905 53.5899L902.717 51.3069C902.714 51.3035 902.71 51.3002 902.707 51.2969C902.52 51.1094 902.265 51.004 902 51.0039Z" fill="#63D0DF"/>
<path d="M984 39C984 34.5817 987.582 31 992 31H1880C1884.42 31 1888 34.5817 1888 39V512C1888 516.418 1884.42 520 1880 520H992C987.582 520 984 516.418 984 512V39Z" fill="#3D3D3D"/>
<path d="M985 40C985 35.5817 988.582 32 993 32H1879C1883.42 32 1887 35.5817 1887 40V511C1887 515.418 1883.42 519 1879 519H993C988.582 519 985 515.418 985 511V40Z" fill="#1B1B1B"/>
<path d="M992 576C992 571.582 995.582 568 1000 568H1408C1412.42 568 1416 571.582 1416 576V1032C1416 1036.42 1412.42 1040 1408 1040H1000C995.582 1040 992 1036.42 992 1032V576Z" fill="#3D3D3D"/>
<path d="M993 577C993 572.582 996.582 569 1001 569H1407C1411.42 569 1415 572.582 1415 577V1031C1415 1035.42 1411.42 1039 1407 1039H1001C996.582 1039 993 1035.42 993 1031V577Z" fill="#1B1B1B"/>
<path d="M1456 576C1456 571.582 1459.58 568 1464 568H1872C1876.42 568 1880 571.582 1880 576V1032C1880 1036.42 1876.42 1040 1872 1040H1464C1459.58 1040 1456 1036.42 1456 1032V576Z" fill="#63D0DF"/>
<path d="M1462 582C1462 577.582 1465.58 574 1470 574H1867C1871.42 574 1875 577.582 1875 582V1027C1875 1031.42 1871.42 1035 1867 1035H1470C1465.58 1035 1462 1031.42 1462 1027V582Z" fill="#1B1B1B"/>
<path d="M1021 51C1021 50.446 1020.55 50 1020 50H1012C1011.45 50 1011 50.446 1011 51C1011 51.554 1011.45 52 1012 52H1020C1020.55 52 1021 51.554 1021 51ZM1021 55C1021 54.446 1020.55 54 1020 54H1012C1011.45 54 1011 54.446 1011 55C1011 55.554 1011.45 56 1012 56H1020C1020.55 56 1021 55.554 1021 55ZM1021 59C1021 58.446 1020.55 58 1020 58H1012C1011.45 58 1011 58.446 1011 59C1011 59.554 1011.45 60 1012 60H1020C1020.55 60 1021 59.554 1021 59Z" fill="#63D0DF"/>
<path d="M1048 55C1048 51.6863 1050.69 49 1054 49H1074C1077.31 49 1080 51.6863 1080 55C1080 58.3137 1077.31 61 1074 61H1054C1050.69 61 1048 58.3137 1048 55Z" fill="#63D0DF"/>
<path d="M1096 55C1096 51.6863 1098.69 49 1102 49H1122C1125.31 49 1128 51.6863 1128 55C1128 58.3137 1125.31 61 1122 61H1102C1098.69 61 1096 58.3137 1096 55Z" fill="#63D0DF"/>
<path d="M1144 55C1144 51.6863 1146.69 49 1150 49H1170C1173.31 49 1176 51.6863 1176 55C1176 58.3137 1173.31 61 1170 61H1150C1146.69 61 1144 58.3137 1144 55Z" fill="#63D0DF"/>
<path d="M1853 51.0039C1852.73 51.0039 1852.48 51.1093 1852.29 51.2968C1852.11 51.4843 1852 51.7387 1852 52.0039C1852 52.2691 1852.11 52.5234 1852.29 52.7109L1854.59 55.0039L1852.29 57.2969C1852.11 57.4844 1852 57.7387 1852 58.0039C1852 58.2691 1852.11 58.5235 1852.29 58.711C1852.48 58.8985 1852.73 59.0039 1853 59.0039C1853.27 59.0038 1853.52 58.8985 1853.71 58.7109L1856 56.4179L1858.28 58.7009C1858.38 58.7968 1858.49 58.873 1858.61 58.925C1858.73 58.9771 1858.87 59.0039 1859 59.0039C1859.27 59.0039 1859.52 58.8985 1859.71 58.711C1859.89 58.5235 1860 58.2691 1860 58.0039C1860 57.7387 1859.89 57.4844 1859.71 57.2969L1857.41 55.0039L1859.7 52.7209C1859.79 52.6277 1859.87 52.5163 1859.92 52.3931C1859.97 52.2699 1860 52.1376 1860 52.0039C1860 51.7387 1859.89 51.4843 1859.71 51.2968C1859.52 51.1093 1859.27 51.0039 1859 51.0039C1858.73 51.004 1858.48 51.1094 1858.29 51.2969L1856 53.5899L1853.72 51.3069C1853.71 51.3035 1853.71 51.3002 1853.71 51.2969C1853.52 51.1094 1853.27 51.004 1853 51.0039Z" fill="#63D0DF"/>
<path d="M1812 59H1816L1814.5 57.5L1815.79 56.1579C1815.79 56.1579 1816.26 55.6842 1815.79 55.2105C1815.32 54.7368 1814.84 55.2105 1814.84 55.2105L1813.5 56.5L1812 55V59Z" fill="#63D0DF"/>
<path d="M1820 51H1816L1817.5 52.5L1816.21 53.8421C1816.21 53.8421 1815.74 54.3158 1816.21 54.7895C1816.68 55.2632 1817.16 54.7895 1817.16 54.7895L1818.5 53.5L1820 55V51Z" fill="#63D0DF"/>
<path fill-rule="evenodd" clip-rule="evenodd" d="M1772 57V59H1780V57H1772Z" fill="#63D0DF"/>
<path d="M1381 588.004C1380.73 588.004 1380.48 588.109 1380.29 588.297C1380.11 588.484 1380 588.739 1380 589.004C1380 589.269 1380.11 589.523 1380.29 589.711L1382.59 592.004L1380.29 594.297C1380.11 594.484 1380 594.739 1380 595.004C1380 595.269 1380.11 595.523 1380.29 595.711C1380.48 595.899 1380.73 596.004 1381 596.004C1381.27 596.004 1381.52 595.898 1381.71 595.711L1384 593.418L1386.28 595.701C1386.38 595.797 1386.49 595.873 1386.61 595.925C1386.73 595.977 1386.87 596.004 1387 596.004C1387.27 596.004 1387.52 595.899 1387.71 595.711C1387.89 595.523 1388 595.269 1388 595.004C1388 594.739 1387.89 594.484 1387.71 594.297L1385.41 592.004L1387.7 589.721C1387.79 589.628 1387.87 589.516 1387.92 589.393C1387.97 589.27 1388 589.138 1388 589.004C1388 588.739 1387.89 588.484 1387.71 588.297C1387.52 588.109 1387.27 588.004 1387 588.004C1386.73 588.004 1386.48 588.109 1386.29 588.297L1384 590.59L1381.72 588.307C1381.71 588.304 1381.71 588.3 1381.71 588.297C1381.52 588.109 1381.27 588.004 1381 588.004Z" fill="#63D0DF"/>
<path d="M1340 596H1344L1342.5 594.5L1343.79 593.158C1343.79 593.158 1344.26 592.684 1343.79 592.211C1343.32 591.737 1342.84 592.211 1342.84 592.211L1341.5 593.5L1340 592V596Z" fill="#63D0DF"/>
<path d="M1348 588H1344L1345.5 589.5L1344.21 590.842C1344.21 590.842 1343.74 591.316 1344.21 591.789C1344.68 592.263 1345.16 591.789 1345.16 591.789L1346.5 590.5L1348 592V588Z" fill="#63D0DF"/>
<path fill-rule="evenodd" clip-rule="evenodd" d="M1300 594V596H1308V594H1300Z" fill="#63D0DF"/>
<path d="M1029 588C1029 587.446 1028.55 587 1028 587H1020C1019.45 587 1019 587.446 1019 588C1019 588.554 1019.45 589 1020 589H1028C1028.55 589 1029 588.554 1029 588ZM1029 592C1029 591.446 1028.55 591 1028 591H1020C1019.45 591 1019 591.446 1019 592C1019 592.554 1019.45 593 1020 593H1028C1028.55 593 1029 592.554 1029 592ZM1029 596C1029 595.446 1028.55 595 1028 595H1020C1019.45 595 1019 595.446 1019 596C1019 596.554 1019.45 597 1020 597H1028C1028.55 597 1029 596.554 1029 596Z" fill="#63D0DF"/>
<path d="M1845 588.004C1844.73 588.004 1844.48 588.109 1844.29 588.297C1844.11 588.484 1844 588.739 1844 589.004C1844 589.269 1844.11 589.523 1844.29 589.711L1846.59 592.004L1844.29 594.297C1844.11 594.484 1844 594.739 1844 595.004C1844 595.269 1844.11 595.523 1844.29 595.711C1844.48 595.899 1844.73 596.004 1845 596.004C1845.27 596.004 1845.52 595.898 1845.71 595.711L1848 593.418L1850.28 595.701C1850.38 595.797 1850.49 595.873 1850.61 595.925C1850.73 595.977 1850.87 596.004 1851 596.004C1851.27 596.004 1851.52 595.899 1851.71 595.711C1851.89 595.523 1852 595.269 1852 595.004C1852 594.739 1851.89 594.484 1851.71 594.297L1849.41 592.004L1851.7 589.721C1851.79 589.628 1851.87 589.516 1851.92 589.393C1851.97 589.27 1852 589.138 1852 589.004C1852 588.739 1851.89 588.484 1851.71 588.297C1851.52 588.109 1851.27 588.004 1851 588.004C1850.73 588.004 1850.48 588.109 1850.29 588.297L1848 590.59L1845.72 588.307C1845.71 588.304 1845.71 588.3 1845.71 588.297C1845.52 588.109 1845.27 588.004 1845 588.004Z" fill="#63D0DF"/>
<path d="M1804 596H1808L1806.5 594.5L1807.79 593.158C1807.79 593.158 1808.26 592.684 1807.79 592.211C1807.32 591.737 1806.84 592.211 1806.84 592.211L1805.5 593.5L1804 592V596Z" fill="#63D0DF"/>
<path d="M1812 588H1808L1809.5 589.5L1808.21 590.842C1808.21 590.842 1807.74 591.316 1808.21 591.789C1808.68 592.263 1809.16 591.789 1809.16 591.789L1810.5 590.5L1812 592V588Z" fill="#63D0DF"/>
<path fill-rule="evenodd" clip-rule="evenodd" d="M1764 594V596H1772V594H1764Z" fill="#63D0DF"/>
<path d="M1520 592C1520 588.686 1522.69 586 1526 586H1546C1549.31 586 1552 588.686 1552 592C1552 595.314 1549.31 598 1546 598H1526C1522.69 598 1520 595.314 1520 592Z" fill="#63D0DF"/>
<path d="M1568 592C1568 588.686 1570.69 586 1574 586H1594C1597.31 586 1600 588.686 1600 592C1600 595.314 1597.31 598 1594 598H1574C1570.69 598 1568 595.314 1568 592Z" fill="#63D0DF"/>
<path d="M1616 592C1616 588.686 1618.69 586 1622 586H1642C1645.31 586 1648 588.686 1648 592C1648 595.314 1645.31 598 1642 598H1622C1618.69 598 1616 595.314 1616 592Z" fill="#63D0DF"/>
<path d="M1493 588C1493 587.446 1492.55 587 1492 587H1484C1483.45 587 1483 587.446 1483 588C1483 588.554 1483.45 589 1484 589H1492C1492.55 589 1493 588.554 1493 588ZM1493 592C1493 591.446 1492.55 591 1492 591H1484C1483.45 591 1483 591.446 1483 592C1483 592.554 1483.45 593 1484 593H1492C1492.55 593 1493 592.554 1493 592ZM1493 596C1493 595.446 1492.55 595 1492 595H1484C1483.45 595 1483 595.446 1483 596C1483 596.554 1483.45 597 1484 597H1492C1492.55 597 1493 596.554 1493 596Z" fill="#63D0DF"/>
<path d="M632 563.333C632 553.76 639.163 546 648 546H776C784.837 546 792 553.76 792 563.333V632.667C792 642.24 784.837 650 776 650H648C639.163 650 632 642.24 632 632.667V563.333Z" fill="#808080"/>
<path d="M632 562C632 553.163 639.163 546 648 546H776C784.837 546 792 553.163 792 562V626C792 634.837 784.837 642 776 642H648C639.163 642 632 634.837 632 626V562Z" fill="#BEBEBE"/>
<path d="M683.438 603.672C683.438 605.703 682.938 607.453 681.938 608.922C680.953 610.391 679.531 611.516 677.672 612.297C675.828 613.078 673.625 613.469 671.062 613.469C669.812 613.469 668.617 613.398 667.477 613.258C666.336 613.117 665.258 612.914 664.242 612.648C663.242 612.367 662.328 612.031 661.5 611.641V606.344C662.891 606.953 664.445 607.508 666.164 608.008C667.883 608.492 669.633 608.734 671.414 608.734C672.867 608.734 674.07 608.547 675.023 608.172C675.992 607.781 676.711 607.234 677.18 606.531C677.648 605.812 677.883 604.977 677.883 604.023C677.883 603.008 677.609 602.148 677.062 601.445C676.516 600.742 675.688 600.102 674.578 599.523C673.484 598.93 672.109 598.297 670.453 597.625C669.328 597.172 668.25 596.656 667.219 596.078C666.203 595.5 665.297 594.82 664.5 594.039C663.703 593.258 663.07 592.336 662.602 591.273C662.148 590.195 661.922 588.93 661.922 587.477C661.922 585.539 662.383 583.883 663.305 582.508C664.242 581.133 665.555 580.078 667.242 579.344C668.945 578.609 670.93 578.242 673.195 578.242C674.992 578.242 676.68 578.43 678.258 578.805C679.852 579.18 681.414 579.711 682.945 580.398L681.164 584.922C679.758 584.344 678.391 583.883 677.062 583.539C675.75 583.195 674.406 583.023 673.031 583.023C671.844 583.023 670.836 583.203 670.008 583.562C669.18 583.922 668.547 584.43 668.109 585.086C667.688 585.727 667.477 586.492 667.477 587.383C667.477 588.383 667.719 589.227 668.203 589.914C668.703 590.586 669.469 591.203 670.5 591.766C671.547 592.328 672.891 592.953 674.531 593.641C676.422 594.422 678.023 595.242 679.336 596.102C680.664 596.961 681.68 597.992 682.383 599.195C683.086 600.383 683.438 601.875 683.438 603.672Z" fill="#030303"/>
<path d="M694.992 576.531V585.695C694.992 586.648 694.961 587.578 694.898 588.484C694.852 589.391 694.797 590.094 694.734 590.594H695.039C695.586 589.688 696.258 588.945 697.055 588.367C697.852 587.773 698.742 587.328 699.727 587.031C700.727 586.734 701.789 586.586 702.914 586.586C704.898 586.586 706.586 586.922 707.977 587.594C709.367 588.25 710.43 589.273 711.164 590.664C711.914 592.055 712.289 593.859 712.289 596.078V613H706.781V597.109C706.781 595.094 706.367 593.586 705.539 592.586C704.711 591.57 703.43 591.062 701.695 591.062C700.023 591.062 698.695 591.414 697.711 592.117C696.742 592.805 696.047 593.828 695.625 595.188C695.203 596.531 694.992 598.172 694.992 600.109V613H689.484V576.531H694.992Z" fill="#030303"/>
<path d="M725.508 587.055V613H720V587.055H725.508ZM722.789 577.117C723.633 577.117 724.359 577.344 724.969 577.797C725.594 578.25 725.906 579.031 725.906 580.141C725.906 581.234 725.594 582.016 724.969 582.484C724.359 582.938 723.633 583.164 722.789 583.164C721.914 583.164 721.172 582.938 720.562 582.484C719.969 582.016 719.672 581.234 719.672 580.141C719.672 579.031 719.969 578.25 720.562 577.797C721.172 577.344 721.914 577.117 722.789 577.117Z" fill="#030303"/>
<path d="M746.367 591.25H740.062V613H734.555V591.25H730.312V588.602L734.555 586.984V585.18C734.555 582.977 734.898 581.227 735.586 579.93C736.289 578.633 737.289 577.703 738.586 577.141C739.898 576.562 741.461 576.273 743.273 576.273C744.461 576.273 745.547 576.375 746.531 576.578C747.516 576.766 748.344 576.984 749.016 577.234L747.586 581.406C747.055 581.234 746.461 581.078 745.805 580.938C745.148 580.781 744.445 580.703 743.695 580.703C742.445 580.703 741.523 581.094 740.93 581.875C740.352 582.656 740.062 583.797 740.062 585.297V587.055H746.367V591.25Z" fill="#030303"/>
<path d="M760.453 609.016C761.172 609.016 761.883 608.953 762.586 608.828C763.289 608.688 763.93 608.523 764.508 608.336V612.508C763.898 612.773 763.109 613 762.141 613.188C761.172 613.375 760.164 613.469 759.117 613.469C757.648 613.469 756.328 613.227 755.156 612.742C753.984 612.242 753.055 611.391 752.367 610.188C751.68 608.984 751.336 607.32 751.336 605.195V591.25H747.797V588.789L751.594 586.844L753.398 581.289H756.867V587.055H764.297V591.25H756.867V605.125C756.867 606.438 757.195 607.414 757.852 608.055C758.508 608.695 759.375 609.016 760.453 609.016Z" fill="#030303"/>
<path d="M804 563.333C804 553.76 811.163 546 820 546H948C956.837 546 964 553.76 964 563.333V632.667C964 642.24 956.837 650 948 650H820C811.163 650 804 642.24 804 632.667V563.333Z" fill="#808080"/>
<path d="M804 562C804 553.163 811.163 546 820 546H948C956.837 546 964 553.163 964 562V626C964 634.837 956.837 642 948 642H820C811.163 642 804 634.837 804 626V562Z" fill="#BEBEBE"/>
<path d="M840.688 602.672C840.688 604.703 840.188 606.453 839.188 607.922C838.203 609.391 836.781 610.516 834.922 611.297C833.078 612.078 830.875 612.469 828.312 612.469C827.062 612.469 825.867 612.398 824.727 612.258C823.586 612.117 822.508 611.914 821.492 611.648C820.492 611.367 819.578 611.031 818.75 610.641V605.344C820.141 605.953 821.695 606.508 823.414 607.008C825.133 607.492 826.883 607.734 828.664 607.734C830.117 607.734 831.32 607.547 832.273 607.172C833.242 606.781 833.961 606.234 834.43 605.531C834.898 604.812 835.133 603.977 835.133 603.023C835.133 602.008 834.859 601.148 834.312 600.445C833.766 599.742 832.938 599.102 831.828 598.523C830.734 597.93 829.359 597.297 827.703 596.625C826.578 596.172 825.5 595.656 824.469 595.078C823.453 594.5 822.547 593.82 821.75 593.039C820.953 592.258 820.32 591.336 819.852 590.273C819.398 589.195 819.172 587.93 819.172 586.477C819.172 584.539 819.633 582.883 820.555 581.508C821.492 580.133 822.805 579.078 824.492 578.344C826.195 577.609 828.18 577.242 830.445 577.242C832.242 577.242 833.93 577.43 835.508 577.805C837.102 578.18 838.664 578.711 840.195 579.398L838.414 583.922C837.008 583.344 835.641 582.883 834.312 582.539C833 582.195 831.656 582.023 830.281 582.023C829.094 582.023 828.086 582.203 827.258 582.562C826.43 582.922 825.797 583.43 825.359 584.086C824.938 584.727 824.727 585.492 824.727 586.383C824.727 587.383 824.969 588.227 825.453 588.914C825.953 589.586 826.719 590.203 827.75 590.766C828.797 591.328 830.141 591.953 831.781 592.641C833.672 593.422 835.273 594.242 836.586 595.102C837.914 595.961 838.93 596.992 839.633 598.195C840.336 599.383 840.688 600.875 840.688 602.672Z" fill="#030303"/>
<path d="M869.352 586.055V612H865.016L864.266 608.508H863.961C863.414 609.398 862.719 610.141 861.875 610.734C861.031 611.312 860.094 611.742 859.062 612.023C858.031 612.32 856.945 612.469 855.805 612.469C853.852 612.469 852.18 612.141 850.789 611.484C849.414 610.812 848.359 609.781 847.625 608.391C846.891 607 846.523 605.203 846.523 603V586.055H852.055V601.969C852.055 603.984 852.461 605.492 853.273 606.492C854.102 607.492 855.383 607.992 857.117 607.992C858.789 607.992 860.117 607.648 861.102 606.961C862.086 606.273 862.781 605.258 863.188 603.914C863.609 602.57 863.82 600.922 863.82 598.969V586.055H869.352Z" fill="#030303"/>
<path d="M890.562 585.562C893.641 585.562 896.109 586.688 897.969 588.938C899.844 591.188 900.781 594.531 900.781 598.969C900.781 601.906 900.344 604.383 899.469 606.398C898.609 608.398 897.398 609.914 895.836 610.945C894.289 611.961 892.484 612.469 890.422 612.469C889.109 612.469 887.969 612.297 887 611.953C886.031 611.609 885.203 611.164 884.516 610.617C883.828 610.055 883.25 609.445 882.781 608.789H882.453C882.531 609.414 882.602 610.109 882.664 610.875C882.742 611.625 882.781 612.312 882.781 612.938V623.508H877.25V586.055H881.75L882.523 589.641H882.781C883.266 588.906 883.852 588.227 884.539 587.602C885.242 586.977 886.086 586.484 887.07 586.125C888.07 585.75 889.234 585.562 890.562 585.562ZM889.086 590.062C887.57 590.062 886.352 590.367 885.43 590.977C884.523 591.57 883.859 592.469 883.438 593.672C883.031 594.875 882.812 596.383 882.781 598.195V598.969C882.781 600.891 882.977 602.523 883.367 603.867C883.773 605.195 884.438 606.211 885.359 606.914C886.297 607.602 887.562 607.945 889.156 607.945C890.5 607.945 891.609 607.578 892.484 606.844C893.375 606.109 894.039 605.062 894.477 603.703C894.914 602.344 895.133 600.742 895.133 598.898C895.133 596.102 894.633 593.93 893.633 592.383C892.648 590.836 891.133 590.062 889.086 590.062Z" fill="#030303"/>
<path d="M917.492 585.562C919.805 585.562 921.789 586.039 923.445 586.992C925.102 587.945 926.375 589.297 927.266 591.047C928.156 592.797 928.602 594.891 928.602 597.328V600.281H911.281C911.344 602.797 912.016 604.734 913.297 606.094C914.594 607.453 916.406 608.133 918.734 608.133C920.391 608.133 921.875 607.977 923.188 607.664C924.516 607.336 925.883 606.859 927.289 606.234V610.711C925.992 611.32 924.672 611.766 923.328 612.047C921.984 612.328 920.375 612.469 918.5 612.469C915.953 612.469 913.711 611.977 911.773 610.992C909.852 609.992 908.344 608.508 907.25 606.539C906.172 604.57 905.633 602.125 905.633 599.203C905.633 596.297 906.125 593.828 907.109 591.797C908.094 589.766 909.477 588.219 911.258 587.156C913.039 586.094 915.117 585.562 917.492 585.562ZM917.492 589.711C915.758 589.711 914.352 590.273 913.273 591.398C912.211 592.523 911.586 594.172 911.398 596.344H923.211C923.195 595.047 922.977 593.898 922.555 592.898C922.148 591.898 921.523 591.117 920.68 590.555C919.852 589.992 918.789 589.711 917.492 589.711Z" fill="#030303"/>
<path d="M947.961 585.562C948.398 585.562 948.875 585.586 949.391 585.633C949.906 585.68 950.352 585.742 950.727 585.82L950.211 590.977C949.883 590.883 949.477 590.812 948.992 590.766C948.523 590.719 948.102 590.695 947.727 590.695C946.742 590.695 945.805 590.859 944.914 591.188C944.023 591.5 943.234 591.984 942.547 592.641C941.859 593.281 941.32 594.086 940.93 595.055C940.539 596.023 940.344 597.148 940.344 598.43V612H934.812V586.055H939.125L939.875 590.625H940.133C940.648 589.703 941.289 588.859 942.055 588.094C942.82 587.328 943.695 586.719 944.68 586.266C945.68 585.797 946.773 585.562 947.961 585.562Z" fill="#030303"/>
<path d="M976 563.333C976 553.76 980.298 546 985.6 546H1062.4C1067.7 546 1072 553.76 1072 563.333V632.667C1072 642.24 1067.7 650 1062.4 650H985.6C980.298 650 976 642.24 976 632.667V563.333Z" fill="#808080"/>
<path d="M976 562C976 553.163 980.298 546 985.6 546H1062.4C1067.7 546 1072 553.163 1072 562V626C1072 634.837 1067.7 642 1062.4 642H985.6C980.298 642 976 634.837 976 626V562Z" fill="#BEBEBE"/>
<path d="M1030 575L990 598L1030 621V602H1054C1054 602 1058 602 1058 598C1058 594 1054 594 1054 594H1030V575Z" fill="#030303"/>
<path d="M1084 563.333C1084 553.76 1088.3 546 1093.6 546H1170.4C1175.7 546 1180 553.76 1180 563.333V632.667C1180 642.24 1175.7 650 1170.4 650H1093.6C1088.3 650 1084 642.24 1084 632.667V563.333Z" fill="#808080"/>
<path d="M1084 562C1084 553.163 1088.3 546 1093.6 546H1170.4C1175.7 546 1180 553.163 1180 562V626C1180 634.837 1175.7 642 1170.4 642H1093.6C1088.3 642 1084 634.837 1084 626V562Z" fill="#BEBEBE"/>
<path d="M1109 588L1132 628L1155 588H1136V564C1136 564 1136 560 1132 560C1128 560 1128 564 1128 564V588H1109Z" fill="#030303"/>
<path d="M1192 563.333C1192 553.76 1196.3 546 1201.6 546H1278.4C1283.7 546 1288 553.76 1288 563.333V632.667C1288 642.24 1283.7 650 1278.4 650H1201.6C1196.3 650 1192 642.24 1192 632.667V563.333Z" fill="#808080"/>
<path d="M1192 562C1192 553.163 1196.3 546 1201.6 546H1278.4C1283.7 546 1288 553.163 1288 562V626C1288 634.837 1283.7 642 1278.4 642H1201.6C1196.3 642 1192 634.837 1192 626V562Z" fill="#BEBEBE"/>
<path d="M1234 621L1274 598L1234 575V594H1210C1210 594 1206 594 1206 598C1206 602 1210 602 1210 602H1234V621Z" fill="#030303"/>
<path d="M1084 447.333C1084 437.76 1088.3 430 1093.6 430H1170.4C1175.7 430 1180 437.76 1180 447.333V516.667C1180 526.24 1175.7 534 1170.4 534H1093.6C1088.3 534 1084 526.24 1084 516.667V447.333Z" fill="#808080"/>
<path d="M1084 446C1084 437.163 1088.3 430 1093.6 430H1170.4C1175.7 430 1180 437.163 1180 446V510C1180 518.837 1175.7 526 1170.4 526H1093.6C1088.3 526 1084 518.837 1084 510V446Z" fill="#BEBEBE"/>
<path d="M1155 484L1132 444L1109 484H1128V508C1128 508 1128 512 1132 512C1136 512 1136 508 1136 508V484H1155Z" fill="#030303"/>
<defs>
<linearGradient id="paint0_linear_4447_436" x1="960" y1="0" x2="960" y2="1080" gradientUnits="userSpaceOnUse">
<stop stop-color="#00525A"/>
<stop offset="1" stop-color="#2E496D"/>
</linearGradient>
</defs>
</svg>
