<svg width="1920" height="1080" viewBox="0 0 1920 1080" fill="none" xmlns="http://www.w3.org/2000/svg">
<g clip-path="url(#clip0_4454_400)">
<path d="M0 0H1920V1080H0V0Z" fill="url(#paint0_linear_4454_400)"/>
<path d="M308.954 704.229C307.875 703.992 307.192 702.926 307.428 701.847L389.362 328.028C389.599 326.949 390.665 326.266 391.744 326.502C392.823 326.739 393.506 327.805 393.269 328.884L311.335 702.704C311.099 703.783 310.033 704.465 308.954 704.229Z" fill="url(#paint1_radial_4454_400)"/>
<path d="M327.944 683.538C327.423 682.565 327.789 681.353 328.763 680.831L808.316 423.943C809.29 423.422 810.502 423.788 811.023 424.762C811.545 425.736 811.178 426.948 810.205 427.469L330.652 684.357C329.678 684.879 328.466 684.512 327.944 683.538Z" fill="url(#paint2_radial_4454_400)"/>
<path d="M1407.37 543.508C1407.67 542.443 1408.77 541.819 1409.83 542.114L1643.83 606.899C1644.89 607.193 1645.51 608.295 1645.22 609.36C1644.93 610.424 1643.82 611.048 1642.76 610.754L1408.77 545.969C1407.7 545.674 1407.08 544.572 1407.37 543.508Z" fill="url(#paint3_radial_4454_400)"/>
<path d="M1108.83 870.953C1108.37 869.947 1108.82 868.761 1109.82 868.306L1731.48 586.698C1732.49 586.243 1733.68 586.689 1734.13 587.695C1734.59 588.701 1734.14 589.886 1733.13 590.342L1111.47 871.949C1110.47 872.405 1109.28 871.959 1108.83 870.953Z" fill="url(#paint4_radial_4454_400)"/>
<path d="M1508.78 293.712C1509.75 293.18 1510.96 293.535 1511.49 294.504L1687.47 615.417C1688 616.385 1687.64 617.601 1686.67 618.132C1685.71 618.663 1684.49 618.309 1683.96 617.34L1507.98 296.427C1507.45 295.458 1507.81 294.243 1508.78 293.712Z" fill="url(#paint5_radial_4454_400)"/>
<path d="M542 217C542 287.692 484.692 345 414 345C343.308 345 286 287.692 286 217C286 146.308 343.308 89 414 89C484.692 89 542 146.308 542 217Z" fill="url(#paint6_linear_4454_400)"/>
<path d="M1388 510C1388 545.346 1359.35 574 1324 574C1288.65 574 1260 545.346 1260 510C1260 474.654 1288.65 446 1324 446C1359.35 446 1388 474.654 1388 510Z" fill="url(#paint7_linear_4454_400)"/>
<path d="M960 396C960 449.019 917.019 492 864 492C810.981 492 768 449.019 768 396C768 342.981 810.981 300 864 300C917.019 300 960 342.981 960 396Z" fill="url(#paint8_linear_4454_400)"/>
<path d="M1159 891C1159 961.692 1101.69 1019 1031 1019C960.308 1019 903 961.692 903 891C903 820.308 960.308 763 1031 763C1101.69 763 1159 820.308 1159 891Z" fill="url(#paint9_linear_4454_400)"/>
<path d="M1832 606C1832 659.019 1789.02 702 1736 702C1682.98 702 1640 659.019 1640 606C1640 552.981 1682.98 510 1736 510C1789.02 510 1832 552.981 1832 606Z" fill="#142E50"/>
<path d="M1772 606C1772 659.019 1729.02 702 1676 702C1622.98 702 1580 659.019 1580 606C1580 552.981 1622.98 510 1676 510C1729.02 510 1772 552.981 1772 606Z" fill="url(#paint10_linear_4454_400)"/>
<path d="M1580 166C1580 236.692 1522.69 294 1452 294C1381.31 294 1324 236.692 1324 166C1324 95.3076 1381.31 38 1452 38C1522.69 38 1580 95.3076 1580 166Z" fill="url(#paint11_linear_4454_400)"/>
<path d="M613 732C613 811.529 548.529 876 469 876C389.471 876 325 811.529 325 732C325 652.471 389.471 588 469 588C548.529 588 613 652.471 613 732Z" fill="url(#paint12_linear_4454_400)"/>
<path d="M475 682C475 770.366 403.366 842 315 842C226.634 842 155 770.366 155 682C155 593.634 226.634 522 315 522C403.366 522 475 593.634 475 682Z" fill="url(#paint13_linear_4454_400)"/>
<path d="M233.75 613.25C233.75 606.346 239.346 600.75 246.25 600.75H383.75C390.654 600.75 396.25 606.346 396.25 613.25V750.75C396.25 757.654 390.654 763.25 383.75 763.25H246.25C239.346 763.25 233.75 757.654 233.75 750.75V613.25Z" fill="url(#paint14_linear_4454_400)"/>
<path d="M386.094 682C386.094 721.695 353.914 753.875 314.219 753.875C274.523 753.875 242.344 721.695 242.344 682C242.344 642.305 274.523 610.125 314.219 610.125C353.914 610.125 386.094 642.305 386.094 682Z" fill="url(#paint15_linear_4454_400)"/>
<path d="M374.375 682C374.375 714.792 347.792 741.375 315 741.375C282.208 741.375 255.625 714.792 255.625 682C255.625 649.208 282.208 622.625 315 622.625C347.792 622.625 374.375 649.208 374.375 682Z" fill="url(#paint16_linear_4454_400)"/>
<path d="M368.125 682C368.125 711.34 344.34 735.125 315 735.125C285.66 735.125 261.875 711.34 261.875 682C261.875 652.66 285.66 628.875 315 628.875C344.34 628.875 368.125 652.66 368.125 682Z" fill="url(#paint17_linear_4454_400)"/>
<path d="M274.375 682C274.375 670.782 283.469 661.688 294.688 661.688H335.312C346.531 661.688 355.625 670.782 355.625 682C355.625 693.218 346.531 702.312 335.312 702.312H294.688C283.469 702.312 274.375 693.218 274.375 682Z" fill="#00717C"/>
<path d="M351.719 682C351.719 691.061 344.373 698.406 335.312 698.406C326.252 698.406 318.906 691.061 318.906 682C318.906 672.939 326.252 665.594 335.312 665.594C344.373 665.594 351.719 672.939 351.719 682Z" fill="white"/>
<path d="M335.828 259.75H376.311C376.604 259.75 376.9 259.716 377.167 259.596C377.886 259.274 378.407 258.731 378.593 258.092L389.828 215.875L348.171 205.75L335.828 259.75Z" fill="url(#paint18_linear_4454_400)"/>
<path d="M378 151C378 144.373 383.373 139 390 139H438C444.627 139 450 144.373 450 151V199C450 205.627 444.627 211 438 211H390C383.373 211 378 205.627 378 199V151Z" fill="url(#paint19_linear_4454_400)"/>
<path d="M415.427 211H438C444.627 211 450 205.627 450 199V151C450 146.472 447.492 142.529 443.788 140.486C442.13 172.614 430.867 199.498 415.427 211Z" fill="url(#paint20_linear_4454_400)"/>
<path d="M344.42 178.153C343.498 171.59 348.07 165.522 354.633 164.6L402.166 157.92C408.729 156.997 414.797 161.57 415.719 168.133L422.4 215.666C423.322 222.228 418.749 228.296 412.186 229.219L364.654 235.899C358.091 236.822 352.023 232.249 351.1 225.686L344.42 178.153Z" fill="url(#paint21_linear_4454_400)"/>
<path d="M383.24 233.287C395.024 219.222 402.75 195.674 402.75 168.999C402.75 165.231 402.596 161.526 402.298 157.902C408.81 157.059 414.803 161.614 415.719 168.133L422.4 215.666C423.322 222.228 418.749 228.296 412.186 229.219L383.24 233.287Z" fill="#05919F"/>
<path d="M409.413 188.471C409.875 181.859 415.61 176.875 422.221 177.337L470.104 180.685C476.715 181.147 481.7 186.882 481.238 193.493L477.889 241.376C477.427 247.987 471.693 252.972 465.081 252.51L417.198 249.161C410.587 248.699 405.602 242.965 406.065 236.354L409.413 188.471Z" fill="url(#paint22_linear_4454_400)"/>
<path d="M473.966 181.611C473.065 214.631 454.285 241 431.25 241C422.042 241 413.514 236.786 406.536 229.618L406.065 236.354C405.602 242.965 410.587 248.699 417.198 249.161L465.081 252.51C471.693 252.972 477.427 247.987 477.889 241.376L481.238 193.493C481.604 188.25 478.545 183.559 473.966 181.611Z" fill="#D38F00"/>
<path d="M348 205L456 199V295L350.99 289.166C349.311 289.073 348 287.76 348 286.171V205Z" fill="url(#paint23_linear_4454_400)"/>
<path d="M456 199L480 211.75V280.969C480 282.196 479.403 283.299 478.491 283.754L456 295V199Z" fill="url(#paint24_linear_4454_400)"/>
<path d="M396.582 217C395.167 217 393.809 217.565 392.809 218.571C391.808 219.576 391.5 221.015 391.5 222.438V249.25H378.75L402 283L425.25 249.25H412.5V222.346C412.5 220.924 412.026 219.576 411.026 218.571C410.025 217.565 408.668 217 407.253 217H396.582Z" fill="#102A4C"/>
<path d="M470.25 263.875C470.338 264.32 470.551 264.848 471.308 264.931C471.448 264.947 471.59 264.922 471.726 264.883L492 259L480 211.75L456 199L470.25 263.875Z" fill="url(#paint25_linear_4454_400)"/>
<path d="M1373.25 118.75C1373.25 112.951 1377.95 108.25 1383.75 108.25H1430.87C1433.09 108.25 1435.25 108.953 1437.04 110.258L1445.96 116.742C1447.75 118.047 1449.91 118.75 1452.13 118.75H1520.25C1526.05 118.75 1530.75 123.451 1530.75 129.25V213.25C1530.75 219.049 1526.05 223.75 1520.25 223.75H1383.75C1377.95 223.75 1373.25 219.049 1373.25 213.25V118.75Z" fill="#00717C"/>
<path d="M1373.25 139.75C1373.25 133.951 1377.95 129.25 1383.75 129.25H1520.25C1526.05 129.25 1530.75 133.951 1530.75 139.75V213.25C1530.75 219.049 1526.05 223.75 1520.25 223.75H1383.75C1377.95 223.75 1373.25 219.049 1373.25 213.25V139.75Z" fill="url(#paint26_linear_4454_400)"/>
<path d="M952.25 843.75C952.25 837.951 956.951 833.25 962.75 833.25H1099.25C1105.05 833.25 1109.75 837.951 1109.75 843.75V938.25C1109.75 944.049 1105.05 948.75 1099.25 948.75H962.75C956.951 948.75 952.25 944.049 952.25 938.25V843.75Z" fill="url(#paint27_linear_4454_400)"/>
<path fill-rule="evenodd" clip-rule="evenodd" d="M962.75 833.25C956.951 833.25 952.25 837.951 952.25 843.75V938.25C952.25 944.049 956.951 948.75 962.75 948.75H1099.25C1105.05 948.75 1109.75 944.049 1109.75 938.25V843.75C1109.75 837.951 1105.05 833.25 1099.25 833.25H962.75ZM962.75 838.5C959.851 838.5 957.5 840.851 957.5 843.75V938.25C957.5 941.149 959.851 943.5 962.75 943.5H1099.25C1102.15 943.5 1104.5 941.149 1104.5 938.25V843.75C1104.5 840.851 1102.15 838.5 1099.25 838.5H962.75Z" fill="url(#paint28_linear_4454_400)"/>
<path d="M987.688 883.125C987.688 881.675 988.863 880.5 990.312 880.5H1008.69C1010.14 880.5 1011.31 881.675 1011.31 883.125C1011.31 884.575 1010.14 885.75 1008.69 885.75H990.312C988.863 885.75 987.688 884.575 987.688 883.125Z" fill="#FFAD00"/>
<path d="M977.899 855.13C983.772 860.937 992.938 870 992.938 870C992.938 870 983.956 878.882 977.899 884.87C976.959 885.8 975.55 886.264 974.14 884.87C972.73 883.476 973.2 882.082 974.14 881.153C978.728 876.616 985.418 870 985.418 870C985.418 870 978.544 863.203 974.14 858.847C973.2 857.918 972.73 856.524 974.14 855.13C975.55 853.736 976.959 854.2 977.899 855.13Z" fill="#FFAD00"/>
<path d="M812 352C812 347.582 815.582 344 820 344H908C912.418 344 916 347.582 916 352V440C916 444.418 912.418 448 908 448H820C815.582 448 812 444.418 812 440V352Z" fill="url(#paint29_linear_4454_400)"/>
<path d="M820 390C820 388.895 820.895 388 822 388H906C907.105 388 908 388.895 908 390C908 391.105 907.105 392 906 392H822C820.895 392 820 391.105 820 390Z" fill="#2E496D"/>
<path d="M820 356C820 353.791 821.791 352 824 352H904C906.209 352 908 353.791 908 356V368C908 370.209 906.209 372 904 372H824C821.791 372 820 370.209 820 368V356Z" fill="#2E496D"/>
<path d="M820 379C820 377.343 821.343 376 823 376H905C906.657 376 908 377.343 908 379V381C908 382.657 906.657 384 905 384H823C821.343 384 820 382.657 820 381V379Z" fill="#2E496D"/>
<path d="M820 398C820 396.895 820.895 396 822 396H850C851.105 396 852 396.895 852 398C852 399.105 851.105 400 850 400H822C820.895 400 820 399.105 820 398Z" fill="#2E496D"/>
<path d="M820 406C820 404.895 820.895 404 822 404H842C843.105 404 844 404.895 844 406C844 407.105 843.105 408 842 408H822C820.895 408 820 407.105 820 406Z" fill="#2E496D"/>
<path d="M837.007 438.144L851.624 444.652L839.721 455.407C839.721 455.407 838.722 456.422 837.808 456.015C836.894 455.608 836.98 454.187 836.98 454.187L837.007 438.144Z" fill="#48B9C7"/>
<path d="M881.139 339.025C881.139 339.025 883.376 334 890.684 337.254C897.993 340.508 895.756 345.533 895.756 345.533L851.625 444.652L839.721 455.407C839.721 455.407 838.722 456.422 837.809 456.015C836.895 455.608 836.981 454.187 836.981 454.187L837.008 438.144L881.139 339.025Z" fill="#63D0DF"/>
<path d="M869.274 393.947C882.391 364.485 890.684 337.254 890.684 337.254C897.992 340.508 895.755 345.532 895.755 345.532L851.624 444.652L839.721 455.407C839.721 455.407 838.722 456.422 837.808 456.015C836.895 455.608 836.98 454.187 836.98 454.187C836.98 454.187 847.208 443.507 869.274 393.947Z" fill="url(#paint30_linear_4454_400)"/>
<path d="M884.589 341.108C885.488 339.09 887.852 338.183 889.87 339.081C891.889 339.98 892.796 342.344 891.898 344.362L851.224 435.717C850.325 437.735 847.961 438.643 845.943 437.744C843.925 436.845 843.017 434.481 843.916 432.463L884.589 341.108Z" fill="#48B9C7"/>
<path d="M886.263 343.495C886.6 342.739 887.487 342.398 888.244 342.735C889 343.072 889.341 343.959 889.004 344.716L885.343 352.938C885.006 353.694 884.12 354.035 883.363 353.698C882.606 353.361 882.266 352.474 882.603 351.717L886.263 343.495Z" fill="white"/>
<path d="M1616 570C1616 565.582 1619.58 562 1624 562H1728C1732.42 562 1736 565.582 1736 570V642C1736 646.418 1732.42 650 1728 650H1624C1619.58 650 1616 646.418 1616 642V570Z" fill="url(#paint31_linear_4454_400)"/>
<path d="M1624 572.5C1624 569.186 1626.69 566.5 1630 566.5H1722C1725.31 566.5 1728 569.186 1728 572.5V625.5C1728 628.814 1725.31 631.5 1722 631.5H1630C1626.69 631.5 1624 628.814 1624 625.5V572.5Z" fill="url(#paint32_linear_4454_400)"/>
<path d="M1697 600.5C1697 612.098 1687.6 621.5 1676 621.5C1664.4 621.5 1655 612.098 1655 600.5C1655 588.902 1664.4 579.5 1676 579.5C1687.6 579.5 1697 588.902 1697 600.5Z" fill="url(#paint33_linear_4454_400)"/>
<path d="M1669.12 589.5C1668.58 589.501 1668.06 589.703 1667.67 590.064C1667.28 590.426 1667.04 590.919 1667.01 591.445H1667V591.498L1667 591.567C1667 591.614 1667 591.664 1667 591.711L1667 609.433C1667 609.982 1667.22 610.507 1667.62 610.895C1668.02 611.282 1668.55 611.5 1669.11 611.5C1669.42 611.499 1669.73 611.432 1670.01 611.304L1670.01 611.308L1670.06 611.279L1670.07 611.275C1670.14 611.244 1670.2 611.21 1670.26 611.173L1686.85 602.347L1686.87 602.339V602.333C1687.2 602.161 1687.49 601.904 1687.69 601.589C1687.88 601.274 1687.99 600.913 1688 600.543C1688.01 600.173 1687.91 599.808 1687.73 599.486C1687.54 599.164 1687.27 598.897 1686.94 598.712L1686.9 598.692L1686.89 598.688L1670.14 589.756H1670.13C1669.82 589.59 1669.47 589.502 1669.12 589.5H1669.12Z" fill="#001534"/>
<path d="M1624 640.5C1624 639.395 1624.9 638.5 1626 638.5H1726C1727.1 638.5 1728 639.395 1728 640.5C1728 641.605 1727.1 642.5 1726 642.5H1626C1624.9 642.5 1624 641.605 1624 640.5Z" fill="#001534"/>
<path d="M1716 640.5C1716 643.261 1713.76 645.5 1711 645.5C1708.24 645.5 1706 643.261 1706 640.5C1706 637.739 1708.24 635.5 1711 635.5C1713.76 635.5 1716 637.739 1716 640.5Z" fill="#001534"/>
<path d="M1286.5 487.5C1286.5 484.739 1288.74 482.5 1291.5 482.5H1356.5C1359.26 482.5 1361.5 484.739 1361.5 487.5V532.5C1361.5 535.261 1359.26 537.5 1356.5 537.5H1291.5C1288.74 537.5 1286.5 535.261 1286.5 532.5V487.5Z" fill="url(#paint34_linear_4454_400)"/>
<path d="M1321.5 513.125C1321.5 511.744 1322.62 510.625 1324 510.625H1329.11C1329.44 510.625 1329.76 510.493 1329.99 510.259L1332.64 507.607C1333.11 507.138 1333.75 506.875 1334.41 506.875H1343.59C1344.25 506.875 1344.89 507.138 1345.36 507.607L1348.01 510.259C1348.24 510.493 1348.56 510.625 1348.89 510.625H1354C1355.38 510.625 1356.5 511.744 1356.5 513.125V530C1356.5 531.381 1355.38 532.5 1354 532.5H1324C1322.62 532.5 1321.5 531.381 1321.5 530V513.125Z" fill="#102A4C"/>
<path d="M1347.75 521.562C1347.75 526.395 1343.83 530.312 1339 530.312C1334.17 530.312 1330.25 526.395 1330.25 521.562C1330.25 516.73 1334.17 512.812 1339 512.812C1343.83 512.812 1347.75 516.73 1347.75 521.562Z" fill="url(#paint35_linear_4454_400)"/>
<path d="M1344.62 521.562C1344.62 524.669 1342.11 527.188 1339 527.188C1335.89 527.188 1333.38 524.669 1333.38 521.562C1333.38 518.456 1335.89 515.938 1339 515.938C1342.11 515.938 1344.62 518.456 1344.62 521.562Z" fill="#142E50"/>
<path d="M1291.51 489.744C1291.5 489.828 1291.5 489.914 1291.5 490V497.5C1291.5 498.881 1292.62 500 1294 500C1295.38 500 1296.5 498.881 1296.5 497.5V493.75C1296.5 493.06 1297.06 492.5 1297.75 492.5H1309C1310.38 492.5 1311.5 491.381 1311.5 490C1311.5 488.619 1310.38 487.5 1309 487.5H1294C1292.71 487.5 1291.64 488.484 1291.51 489.744Z" fill="url(#paint36_linear_4454_400)"/>
<path d="M1294 532.5C1292.62 532.5 1291.5 531.381 1291.5 530V522.5C1291.5 521.119 1292.62 520 1294 520C1295.38 520 1296.5 521.119 1296.5 522.5V526.25C1296.5 526.94 1297.06 527.5 1297.75 527.5H1309C1310.38 527.5 1311.5 528.619 1311.5 530C1311.5 531.381 1310.38 532.5 1309 532.5H1294Z" fill="url(#paint37_linear_4454_400)"/>
<path d="M1356.5 490C1356.5 488.619 1355.38 487.5 1354 487.5H1339C1337.62 487.5 1336.5 488.619 1336.5 490C1336.5 491.381 1337.62 492.5 1339 492.5H1350.25C1350.94 492.5 1351.5 493.06 1351.5 493.75V497.5C1351.5 498.881 1352.62 500 1354 500C1355.38 500 1356.5 498.881 1356.5 497.5V490Z" fill="url(#paint38_linear_4454_400)"/>
<path d="M1315.25 490C1315.25 488.619 1316.37 487.5 1317.75 487.5H1330.25C1331.63 487.5 1332.75 488.619 1332.75 490C1332.75 491.381 1331.63 492.5 1330.25 492.5H1317.75C1316.37 492.5 1315.25 491.381 1315.25 490Z" fill="url(#paint39_linear_4454_400)"/>
<path d="M1291.5 513.75C1291.5 515.131 1292.62 516.25 1294 516.25C1295.38 516.25 1296.5 515.131 1296.5 513.75V506.25C1296.5 504.869 1295.38 503.75 1294 503.75C1292.62 503.75 1291.5 504.869 1291.5 506.25V513.75Z" fill="url(#paint40_linear_4454_400)"/>
</g>
<defs>
<linearGradient id="paint0_linear_4454_400" x1="1920" y1="-6.23332e-05" x2="743.5" y2="1080" gradientUnits="userSpaceOnUse">
<stop stop-color="#865900"/>
<stop offset="1" stop-color="#48658B"/>
</linearGradient>
<radialGradient id="paint1_radial_4454_400" cx="0" cy="0" r="1" gradientUnits="userSpaceOnUse" gradientTransform="translate(350.348 515.366) rotate(102.363) scale(193.347 2)">
<stop stop-color="#A1C0EB"/>
<stop offset="1" stop-color="#A1C0EB" stop-opacity="0"/>
</radialGradient>
<radialGradient id="paint2_radial_4454_400" cx="0" cy="0" r="1" gradientUnits="userSpaceOnUse" gradientTransform="translate(569.484 554.149) rotate(-28.1771) scale(274.012 2)">
<stop stop-color="#A1C0EB"/>
<stop offset="1" stop-color="#A1C0EB" stop-opacity="0"/>
</radialGradient>
<radialGradient id="paint3_radial_4454_400" cx="0" cy="0" r="1" gradientUnits="userSpaceOnUse" gradientTransform="translate(1526.3 576.433) rotate(15.4756) scale(123.398 2)">
<stop stop-color="#A1C0EB"/>
<stop offset="1" stop-color="#A1C0EB" stop-opacity="0"/>
</radialGradient>
<radialGradient id="paint4_radial_4454_400" cx="0" cy="0" r="1" gradientUnits="userSpaceOnUse" gradientTransform="translate(1421.48 729.324) rotate(-24.3701) scale(343.235 2)">
<stop stop-color="#A1C0EB"/>
<stop offset="1" stop-color="#A1C0EB" stop-opacity="0"/>
</radialGradient>
<radialGradient id="paint5_radial_4454_400" cx="0" cy="0" r="1" gradientUnits="userSpaceOnUse" gradientTransform="translate(1597.72 455.922) rotate(61.2617) scale(184.997 2)">
<stop stop-color="#A1C0EB"/>
<stop offset="1" stop-color="#A1C0EB" stop-opacity="0"/>
</radialGradient>
<linearGradient id="paint6_linear_4454_400" x1="512.331" y1="131.013" x2="331.349" y2="314.016" gradientUnits="userSpaceOnUse">
<stop stop-color="#213B5E"/>
<stop offset="1" stop-color="#00434A"/>
</linearGradient>
<linearGradient id="paint7_linear_4454_400" x1="1371.95" y1="462.322" x2="1278.55" y2="554.178" gradientUnits="userSpaceOnUse">
<stop stop-color="#484848"/>
<stop offset="1" stop-color="#2E496D"/>
</linearGradient>
<linearGradient id="paint8_linear_4454_400" x1="934.502" y1="328.905" x2="794.998" y2="467.095" gradientUnits="userSpaceOnUse">
<stop stop-color="#443B00"/>
<stop offset="1" stop-color="#213B5E"/>
</linearGradient>
<linearGradient id="paint9_linear_4454_400" x1="1123.13" y1="801.615" x2="936.369" y2="986.885" gradientUnits="userSpaceOnUse">
<stop stop-color="#453732"/>
<stop offset="1" stop-color="#213B5E"/>
</linearGradient>
<linearGradient id="paint10_linear_4454_400" x1="1618" y1="688" x2="1787.5" y2="489.5" gradientUnits="userSpaceOnUse">
<stop stop-color="#2E496D"/>
<stop offset="1" stop-color="#AC7300"/>
</linearGradient>
<linearGradient id="paint11_linear_4454_400" x1="1547.24" y1="77.2518" x2="1358.76" y2="265.248" gradientUnits="userSpaceOnUse">
<stop stop-color="#624000"/>
<stop offset="1" stop-color="#534800"/>
</linearGradient>
<linearGradient id="paint12_linear_4454_400" x1="577.5" y1="508.5" x2="426" y2="858" gradientUnits="userSpaceOnUse">
<stop stop-color="#A1C0EB"/>
<stop offset="0.828308" stop-color="#6582AA"/>
</linearGradient>
<linearGradient id="paint13_linear_4454_400" x1="434.5" y1="560" x2="216" y2="821.5" gradientUnits="userSpaceOnUse">
<stop offset="1" stop-color="#142E50"/>
</linearGradient>
<linearGradient id="paint14_linear_4454_400" x1="233.75" y1="763.25" x2="396.25" y2="600.75" gradientUnits="userSpaceOnUse">
<stop stop-color="#05919F"/>
<stop offset="1" stop-color="#49BAC8"/>
</linearGradient>
<linearGradient id="paint15_linear_4454_400" x1="242.344" y1="753.875" x2="386.094" y2="610.125" gradientUnits="userSpaceOnUse">
<stop stop-color="#63D0DF"/>
<stop offset="1" stop-color="#88F1FF"/>
</linearGradient>
<linearGradient id="paint16_linear_4454_400" x1="255.625" y1="741.375" x2="374.375" y2="622.625" gradientUnits="userSpaceOnUse">
<stop stop-color="#CC66FF"/>
<stop offset="1" stop-color="#6582AA"/>
</linearGradient>
<linearGradient id="paint17_linear_4454_400" x1="261.875" y1="735.125" x2="368.125" y2="628.875" gradientUnits="userSpaceOnUse">
<stop stop-color="#C9F9FF"/>
<stop offset="1" stop-color="#F5FEFF"/>
</linearGradient>
<linearGradient id="paint18_linear_4454_400" x1="336" y1="259.75" x2="371.781" y2="204.131" gradientUnits="userSpaceOnUse">
<stop stop-color="#48658B"/>
<stop offset="1" stop-color="#6582AA"/>
</linearGradient>
<linearGradient id="paint19_linear_4454_400" x1="378" y1="211" x2="451.483" y2="140.547" gradientUnits="userSpaceOnUse">
<stop stop-color="#AE46DE"/>
<stop offset="1" stop-color="#CC66FF"/>
</linearGradient>
<linearGradient id="paint20_linear_4454_400" x1="378" y1="211" x2="451.483" y2="140.547" gradientUnits="userSpaceOnUse">
<stop stop-color="#A252D2"/>
<stop offset="1" stop-color="#A252D2"/>
</linearGradient>
<linearGradient id="paint21_linear_4454_400" x1="357.75" y1="235.75" x2="411.118" y2="158.873" gradientUnits="userSpaceOnUse">
<stop stop-color="#05919F"/>
<stop offset="1" stop-color="#49BAC8"/>
</linearGradient>
<linearGradient id="paint22_linear_4454_400" x1="406.035" y1="252.54" x2="482.817" y2="178.923" gradientUnits="userSpaceOnUse">
<stop stop-color="#D38F00"/>
<stop offset="1" stop-color="#FFAD00"/>
</linearGradient>
<linearGradient id="paint23_linear_4454_400" x1="348" y1="289.375" x2="450.539" y2="193.179" gradientUnits="userSpaceOnUse">
<stop stop-color="#6582AA"/>
<stop offset="1" stop-color="#A1C0EB"/>
</linearGradient>
<linearGradient id="paint24_linear_4454_400" x1="456" y1="295" x2="491.29" y2="215.245" gradientUnits="userSpaceOnUse">
<stop stop-color="#48658B"/>
<stop offset="1" stop-color="#6582AA"/>
</linearGradient>
<linearGradient id="paint25_linear_4454_400" x1="492" y1="283" x2="463.256" y2="198.045" gradientUnits="userSpaceOnUse">
<stop stop-color="#6582AA"/>
<stop offset="1" stop-color="#A1C0EB"/>
</linearGradient>
<linearGradient id="paint26_linear_4454_400" x1="1530.75" y1="129.25" x2="1394.8" y2="248.348" gradientUnits="userSpaceOnUse">
<stop stop-color="#49BAC8"/>
<stop offset="1" stop-color="#05919F"/>
</linearGradient>
<linearGradient id="paint27_linear_4454_400" x1="1109.75" y1="833.25" x2="951.014" y2="947.026" gradientUnits="userSpaceOnUse">
<stop stop-color="#102A4C"/>
<stop offset="1" stop-color="#072142"/>
</linearGradient>
<linearGradient id="paint28_linear_4454_400" x1="1109.75" y1="833.25" x2="951.014" y2="947.026" gradientUnits="userSpaceOnUse">
<stop stop-color="#BEBEBE"/>
<stop offset="1" stop-color="#9E9E9E"/>
</linearGradient>
<linearGradient id="paint29_linear_4454_400" x1="812" y1="448" x2="916" y2="344" gradientUnits="userSpaceOnUse">
<stop stop-color="#9E9E9E"/>
<stop offset="1" stop-color="#BEBEBE"/>
</linearGradient>
<linearGradient id="paint30_linear_4454_400" x1="893.653" y1="338.576" x2="840.777" y2="457.337" gradientUnits="userSpaceOnUse">
<stop offset="0.619792" stop-color="#05919F"/>
<stop offset="1" stop-color="#48B9C7"/>
</linearGradient>
<linearGradient id="paint31_linear_4454_400" x1="1676" y1="562" x2="1676" y2="650" gradientUnits="userSpaceOnUse">
<stop stop-color="#82A1CA"/>
<stop offset="1" stop-color="#6582AA"/>
</linearGradient>
<linearGradient id="paint32_linear_4454_400" x1="1676" y1="566.5" x2="1676" y2="631.5" gradientUnits="userSpaceOnUse">
<stop stop-color="#142E50"/>
<stop offset="1" stop-color="#001534"/>
</linearGradient>
<linearGradient id="paint33_linear_4454_400" x1="1697" y1="579.5" x2="1655" y2="621.5" gradientUnits="userSpaceOnUse">
<stop stop-color="#FAFCFF"/>
<stop offset="1" stop-color="#E4F0FF"/>
</linearGradient>
<linearGradient id="paint34_linear_4454_400" x1="1286.5" y1="537.5" x2="1361.5" y2="482.5" gradientUnits="userSpaceOnUse">
<stop stop-color="#6582AA"/>
<stop offset="1" stop-color="#82A1CA"/>
</linearGradient>
<linearGradient id="paint35_linear_4454_400" x1="1347.75" y1="512.812" x2="1330.25" y2="530.312" gradientUnits="userSpaceOnUse">
<stop stop-color="#C9E0FF"/>
<stop offset="1" stop-color="#E4F0FF"/>
</linearGradient>
<linearGradient id="paint36_linear_4454_400" x1="1291.5" y1="532.5" x2="1356.5" y2="487.5" gradientUnits="userSpaceOnUse">
<stop stop-color="#C9E0FF"/>
<stop offset="1" stop-color="#EED2FF"/>
</linearGradient>
<linearGradient id="paint37_linear_4454_400" x1="1291.5" y1="532.5" x2="1356.5" y2="487.5" gradientUnits="userSpaceOnUse">
<stop stop-color="#C9E0FF"/>
<stop offset="1" stop-color="#EED2FF"/>
</linearGradient>
<linearGradient id="paint38_linear_4454_400" x1="1291.5" y1="532.5" x2="1356.5" y2="487.5" gradientUnits="userSpaceOnUse">
<stop stop-color="#C9E0FF"/>
<stop offset="1" stop-color="#EED2FF"/>
</linearGradient>
<linearGradient id="paint39_linear_4454_400" x1="1291.5" y1="532.5" x2="1356.5" y2="487.5" gradientUnits="userSpaceOnUse">
<stop stop-color="#C9E0FF"/>
<stop offset="1" stop-color="#EED2FF"/>
</linearGradient>
<linearGradient id="paint40_linear_4454_400" x1="1291.5" y1="532.5" x2="1356.5" y2="487.5" gradientUnits="userSpaceOnUse">
<stop stop-color="#C9E0FF"/>
<stop offset="1" stop-color="#EED2FF"/>
</linearGradient>
<clipPath id="clip0_4454_400">
<rect width="1920" height="1080" rx="8" fill="white"/>
</clipPath>
</defs>
</svg>
