<svg width="1027" height="578" viewBox="0 0 1027 578" fill="none" xmlns="http://www.w3.org/2000/svg">
<g clip-path="url(#clip0_4447_268)">
<rect width="1027" height="578" fill="url(#paint0_linear_4447_268)"/>
<path d="M490 235C490 230.582 493.582 227 498 227H1027V578H490V235Z" fill="#1B1B1B"/>
<path d="M498 308H1027V578H498V308Z" fill="#2E2E2E"/>
<g filter="url(#filter0_d_4447_268)">
<path d="M490 203C490 191.954 498.954 183 510 183H526C537.046 183 546 191.954 546 203C546 214.046 537.046 223 526 223H510C498.954 223 490 214.046 490 203Z" fill="#2E2E2E" shape-rendering="crispEdges"/>
<path d="M510 183.5H526C536.77 183.5 545.5 192.23 545.5 203C545.5 213.77 536.77 222.5 526 222.5H510C499.23 222.5 490.5 213.77 490.5 203C490.5 192.23 499.23 183.5 510 183.5Z" stroke="#636363" shape-rendering="crispEdges"/>
<path d="M490 203C490 191.954 498.954 183 510 183H526C537.046 183 546 191.954 546 203C546 214.046 537.046 223 526 223H510C498.954 223 490 214.046 490 203Z" fill="#3D3D3D"/>
<path d="M491 203C491 192.507 499.507 184 510 184H526C536.493 184 545 192.507 545 203C545 213.493 536.493 222 526 222H510C499.507 222 491 213.493 491 203Z" fill="#1B1B1B"/>
</g>
<path d="M509 196.305C509 195 510 194 511.199 194H524.672C526.066 194 527 195 527 196.262V209.77C527 211 526 212 524.73 212H511.258C510 212 509 211 509 209.809V196.305Z" fill="url(#paint1_linear_4447_268)"/>
<path d="M511 196.6C511 196.269 511.285 196 511.636 196H524.364C524.715 196 525 196.269 525 196.6V198.4C525 198.731 524.715 199 524.364 199H511.636C511.285 199 511 198.731 511 198.4V196.6Z" fill="#2E496D"/>
<path d="M511 205.5C511 205.224 511.224 205 511.5 205H513.5C513.776 205 514 205.224 514 205.5C514 205.776 513.776 206 513.5 206H511.5C511.224 206 511 205.776 511 205.5Z" fill="#2E496D"/>
<path d="M511 203.5C511 203.224 511.224 203 511.5 203H524.5C524.776 203 525 203.224 525 203.5C525 203.776 524.776 204 524.5 204H511.5C511.224 204 511 203.776 511 203.5Z" fill="#2E496D"/>
<path d="M511 200.5C511 200.224 511.224 200 511.5 200H524.5C524.776 200 525 200.224 525 200.5V201.5C525 201.776 524.776 202 524.5 202H511.5C511.224 202 511 201.776 511 201.5V200.5Z" fill="#2E496D"/>
<path d="M511 207.5C511 207.224 511.224 207 511.5 207H512.5C512.776 207 513 207.224 513 207.5C513 207.776 512.776 208 512.5 208H511.5C511.224 208 511 207.776 511 207.5Z" fill="#2E496D"/>
<path d="M513.005 210.001L515.441 211.086L513.457 212.879C513.457 212.879 513.291 213.048 513.138 212.98C512.986 212.912 513 212.675 513 212.675L513.005 210.001Z" fill="#48B9C7"/>
<path d="M520.362 193.478C520.362 193.478 520.734 192.641 521.953 193.183C523.171 193.725 522.798 194.563 522.798 194.563L515.442 211.085L513.458 212.878C513.458 212.878 513.291 213.047 513.139 212.979C512.987 212.911 513.001 212.674 513.001 212.674L513.005 210L520.362 193.478Z" fill="#63D0DF"/>
<path d="M518.384 202.634C520.57 197.723 521.953 193.184 521.953 193.184C523.171 193.726 522.798 194.564 522.798 194.564L515.442 211.086L513.458 212.879C513.458 212.879 513.291 213.048 513.139 212.98C512.987 212.912 513.001 212.675 513.001 212.675C513.001 212.675 514.706 210.895 518.384 202.634Z" fill="url(#paint2_linear_4447_268)"/>
<path d="M520.936 193.826C521.086 193.489 521.48 193.338 521.817 193.488C522.153 193.638 522.304 194.032 522.155 194.368L515.375 209.596C515.225 209.932 514.831 210.083 514.494 209.934C514.158 209.784 514.007 209.39 514.157 209.053L520.936 193.826Z" fill="#48B9C7"/>
<path d="M521.215 194.224C521.272 194.098 521.419 194.041 521.546 194.097C521.672 194.153 521.728 194.301 521.672 194.427L521.062 195.798C521.006 195.924 520.858 195.981 520.732 195.924C520.606 195.868 520.549 195.72 520.605 195.594L521.215 194.224Z" fill="white"/>
<path d="M506 283C506 278.582 509.582 275 514 275H738C742.418 275 746 278.582 746 283V303H506V283Z" fill="#4D4D4D" fill-opacity="0.3"/>
<path d="M658 291C658 293.209 656.209 295 654 295C651.791 295 650 293.209 650 291C650 288.791 651.791 287 654 287C656.209 287 658 288.791 658 291Z" fill="#63D0DF"/>
<path d="M546 291C546 287.686 548.686 285 552 285H636C639.314 285 642 287.686 642 291C642 294.314 639.314 297 636 297H552C548.686 297 546 294.314 546 291Z" fill="#63D0DF"/>
<path d="M719 287.004C718.735 287.004 718.48 287.109 718.293 287.297C718.105 287.484 718 287.739 718 288.004C718 288.269 718.105 288.523 718.293 288.711L720.586 291.004L718.293 293.297C718.105 293.484 718 293.739 718 294.004C718 294.269 718.105 294.523 718.293 294.711C718.48 294.899 718.735 295.004 719 295.004C719.265 295.004 719.52 294.898 719.707 294.711L722 292.418L724.283 294.701C724.376 294.797 724.488 294.873 724.611 294.925C724.734 294.977 724.866 295.004 725 295.004C725.265 295.004 725.52 294.899 725.707 294.711C725.895 294.523 726 294.269 726 294.004C726 293.739 725.895 293.484 725.707 293.297L723.414 291.004L725.697 288.721C725.793 288.628 725.869 288.516 725.921 288.393C725.973 288.27 726 288.138 726 288.004C726 287.739 725.895 287.484 725.707 287.297C725.52 287.109 725.265 287.004 725 287.004C724.735 287.004 724.48 287.109 724.293 287.297L722 289.59L719.717 287.307C719.714 287.304 719.71 287.3 719.707 287.297C719.52 287.109 719.265 287.004 719 287.004Z" fill="#DEDEDE"/>
<path d="M762 286C761.735 286 761.48 286.105 761.293 286.293C761.105 286.48 761 286.735 761 287V289.996L758 290C757.735 290 757.48 290.105 757.293 290.293C757.105 290.48 757 290.735 757 291C757 291.265 757.105 291.52 757.293 291.707C757.48 291.895 757.735 292 758 292L761 291.996V295C761 295.265 761.105 295.52 761.293 295.707C761.48 295.895 761.735 296 762 296C762.265 296 762.52 295.895 762.707 295.707C762.895 295.52 763 295.265 763 295V291.996L766 292C766.265 292 766.52 291.895 766.707 291.707C766.895 291.52 767 291.265 767 291C767 290.735 766.895 290.48 766.707 290.293C766.52 290.105 766.265 290 766 290L763 289.996V287C763 286.735 762.895 286.48 762.707 286.293C762.52 286.105 762.265 286 762 286Z" fill="#C4C4C4"/>
<path d="M562 316H563V336H562V316Z" fill="white"/>
<path d="M527.663 321.319V330.72H525.85V323.181L523.785 324.462L522.994 323.181L526.032 321.319H527.663ZM529.546 329.579V331H523.505V329.579H529.546Z" fill="#DEDEDE"/>
<path d="M544 324L539 329L534 324H544Z" fill="#DEDEDE"/>
<path d="M506 303H746V307H506V303Z" fill="#63D0DF"/>
<path d="M527 247C527 246.446 526.554 246 526 246H518C517.446 246 517 246.446 517 247C517 247.554 517.446 248 518 248H526C526.554 248 527 247.554 527 247ZM527 251C527 250.446 526.554 250 526 250H518C517.446 250 517 250.446 517 251C517 251.554 517.446 252 518 252H526C526.554 252 527 251.554 527 251ZM527 255C527 254.446 526.554 254 526 254H518C517.446 254 517 254.446 517 255C517 255.554 517.446 256 518 256H526C526.554 256 527 255.554 527 255Z" fill="#63D0DF"/>
<rect x="554" y="245" width="32" height="12" rx="6" fill="#63D0DF"/>
<rect x="602" y="245" width="32" height="12" rx="6" fill="#63D0DF"/>
<rect x="650" y="245" width="32" height="12" rx="6" fill="#63D0DF"/>
<path d="M498 307H1027V308H498V307Z" fill="#63D0DF"/>
<path d="M8 56C8 51.5817 11.5817 48 16 48H256C260.418 48 264 51.5817 264 56V578H8V56Z" fill="#1B1B1B"/>
<path d="M24 72C24 67.5817 27.5817 64 32 64H240C244.418 64 248 67.5817 248 72V182C248 186.418 244.418 190 240 190H32C27.5817 190 24 186.418 24 182V72Z" fill="url(#paint3_linear_4447_268)"/>
<path d="M60 87C60 84.7909 61.7909 83 64 83H208C210.209 83 212 84.7909 212 87V164C212 166.209 210.209 168 208 168H64C61.7909 168 60 166.209 60 164V87Z" fill="#1B1B1B"/>
<path d="M64 83.5H208C209.933 83.5 211.5 85.067 211.5 87V164C211.5 165.933 209.933 167.5 208 167.5H64C62.067 167.5 60.5 165.933 60.5 164V87C60.5 85.067 62.067 83.5 64 83.5Z" stroke="#C4C4C4" stroke-opacity="0.2"/>
<path d="M88 94.5C88 94.2239 88.2239 94 88.5 94H209.5C209.776 94 210 94.2239 210 94.5C210 94.7761 209.776 95 209.5 95H88.5C88.2239 95 88 94.7761 88 94.5Z" fill="#63D0DF"/>
<path d="M63 86C63 85.4477 63.4477 85 64 85C64.5523 85 65 85.4477 65 86C65 86.5523 64.5523 87 64 87C63.4477 87 63 86.5523 63 86Z" fill="#63D0DF"/>
<path d="M67 86C67 85.4477 67.4477 85 68 85H70C70.5523 85 71 85.4477 71 86C71 86.5523 70.5523 87 70 87H68C67.4477 87 67 86.5523 67 86Z" fill="#63D0DF"/>
<path d="M73 86C73 85.4477 73.4477 85 74 85H76C76.5523 85 77 85.4477 77 86C77 86.5523 76.5523 87 76 87H74C73.4477 87 73 86.5523 73 86Z" fill="#63D0DF"/>
<path d="M79 86C79 85.4477 79.4477 85 80 85H82C82.5523 85 83 85.4477 83 86C83 86.5523 82.5523 87 82 87H80C79.4477 87 79 86.5523 79 86Z" fill="#63D0DF"/>
<path d="M207 86C207 85.4477 207.448 85 208 85C208.552 85 209 85.4477 209 86C209 86.5523 208.552 87 208 87C207.448 87 207 86.5523 207 86Z" fill="#63D0DF"/>
<path d="M203 86C203 85.4477 203.448 85 204 85C204.552 85 205 85.4477 205 86C205 86.5523 204.552 87 204 87C203.448 87 203 86.5523 203 86Z" fill="#63D0DF"/>
<path d="M199 86C199 85.4477 199.448 85 200 85C200.552 85 201 85.4477 201 86C201 86.5523 200.552 87 200 87C199.448 87 199 86.5523 199 86Z" fill="#63D0DF"/>
<path d="M62 91C62 89.8954 62.8954 89 64 89H84C85.1046 89 86 89.8954 86 91V164C86 165.105 85.1046 166 84 166H64C62.8954 166 62 165.105 62 164V91Z" fill="#2E2E2E"/>
<path d="M89 91L91.0231 89.153C91.2466 88.949 91.6089 88.949 91.8324 89.153C92.0559 89.357 92.0559 89.6878 91.8324 89.8918L90.6185 91L91.8324 92.1082C92.0559 92.3122 92.0559 92.643 91.8324 92.847C91.6089 93.051 91.2466 93.051 91.0231 92.847L89 91Z" fill="#C4C4C4"/>
<path d="M97 91L94.9769 92.847C94.7534 93.051 94.3911 93.051 94.1676 92.847C93.9441 92.643 93.9441 92.3122 94.1676 92.1082L95.3815 91L94.1676 89.8918C93.9441 89.6878 93.9441 89.357 94.1676 89.153C94.3911 88.949 94.7534 88.949 94.9769 89.153L97 91Z" fill="#C4C4C4"/>
<path d="M100 91C100 89.8954 100.895 89 102 89H114C115.105 89 116 89.8954 116 91C116 92.1046 115.105 93 114 93H102C100.895 93 100 92.1046 100 91Z" fill="#63D0DF"/>
<path d="M91 99C91 98.4477 91.4477 98 92 98H100C100.552 98 101 98.4477 101 99V105C101 105.552 100.552 106 100 106H92C91.4477 106 91 105.552 91 105V99Z" fill="#BEBEBE"/>
<path d="M91 121C91 120.448 91.4477 120 92 120H100C100.552 120 101 120.448 101 121V127C101 127.552 100.552 128 100 128H92C91.4477 128 91 127.552 91 127V121Z" fill="#BEBEBE"/>
<path d="M106 99C106 98.4477 106.448 98 107 98H115C115.552 98 116 98.4477 116 99V105C116 105.552 115.552 106 115 106H107C106.448 106 106 105.552 106 105V99Z" fill="#BEBEBE"/>
<path d="M106 121C106 120.448 106.448 120 107 120H115C115.552 120 116 120.448 116 121V127C116 127.552 115.552 128 115 128H107C106.448 128 106 127.552 106 127V121Z" fill="#BEBEBE"/>
<path d="M121 99C121 98.4477 121.448 98 122 98H130C130.552 98 131 98.4477 131 99V105C131 105.552 130.552 106 130 106H122C121.448 106 121 105.552 121 105V99Z" fill="#BEBEBE"/>
<path d="M121 121C121 120.448 121.448 120 122 120H130C130.552 120 131 120.448 131 121V127C131 127.552 130.552 128 130 128H122C121.448 128 121 127.552 121 127V121Z" fill="#BEBEBE"/>
<path d="M136 99C136 98.4477 136.448 98 137 98H145C145.552 98 146 98.4477 146 99V105C146 105.552 145.552 106 145 106H137C136.448 106 136 105.552 136 105V99Z" fill="#BEBEBE"/>
<path d="M136 121C136 120.448 136.448 120 137 120H145C145.552 120 146 120.448 146 121V127C146 127.552 145.552 128 145 128H137C136.448 128 136 127.552 136 127V121Z" fill="#BEBEBE"/>
<path d="M151 99C151 98.4477 151.448 98 152 98H160C160.552 98 161 98.4477 161 99V105C161 105.552 160.552 106 160 106H152C151.448 106 151 105.552 151 105V99Z" fill="#BEBEBE"/>
<path d="M151 121C151 120.448 151.448 120 152 120H160C160.552 120 161 120.448 161 121V127C161 127.552 160.552 128 160 128H152C151.448 128 151 127.552 151 127V121Z" fill="#BEBEBE"/>
<path d="M166 99C166 98.4477 166.448 98 167 98H175C175.552 98 176 98.4477 176 99V105C176 105.552 175.552 106 175 106H167C166.448 106 166 105.552 166 105V99Z" fill="#BEBEBE"/>
<path d="M166 121C166 120.448 166.448 120 167 120H175C175.552 120 176 120.448 176 121V127C176 127.552 175.552 128 175 128H167C166.448 128 166 127.552 166 127V121Z" fill="#BEBEBE"/>
<path d="M181 99C181 98.4477 181.448 98 182 98H190C190.552 98 191 98.4477 191 99V105C191 105.552 190.552 106 190 106H182C181.448 106 181 105.552 181 105V99Z" fill="#BEBEBE"/>
<path d="M181 121C181 120.448 181.448 120 182 120H190C190.552 120 191 120.448 191 121V127C191 127.552 190.552 128 190 128H182C181.448 128 181 127.552 181 127V121Z" fill="#BEBEBE"/>
<path d="M196 99C196 98.4477 196.448 98 197 98H205C205.552 98 206 98.4477 206 99V105C206 105.552 205.552 106 205 106H197C196.448 106 196 105.552 196 105V99Z" fill="#BEBEBE"/>
<path d="M196 121C196 120.448 196.448 120 197 120H205C205.552 120 206 120.448 206 121V127C206 127.552 205.552 128 205 128H197C196.448 128 196 127.552 196 127V121Z" fill="#BEBEBE"/>
<path d="M91 110C91 109.448 91.4477 109 92 109H100C100.552 109 101 109.448 101 110V116C101 116.552 100.552 117 100 117H92C91.4477 117 91 116.552 91 116V110Z" fill="#BEBEBE"/>
<path d="M91 132C91 131.448 91.4477 131 92 131H100C100.552 131 101 131.448 101 132V138C101 138.552 100.552 139 100 139H92C91.4477 139 91 138.552 91 138V132Z" fill="#BEBEBE"/>
<path d="M106 110C106 109.448 106.448 109 107 109H115C115.552 109 116 109.448 116 110V116C116 116.552 115.552 117 115 117H107C106.448 117 106 116.552 106 116V110Z" fill="#BEBEBE"/>
<path d="M106 132C106 131.448 106.448 131 107 131H115C115.552 131 116 131.448 116 132V138C116 138.552 115.552 139 115 139H107C106.448 139 106 138.552 106 138V132Z" fill="#BEBEBE"/>
<path d="M121 110C121 109.448 121.448 109 122 109H130C130.552 109 131 109.448 131 110V116C131 116.552 130.552 117 130 117H122C121.448 117 121 116.552 121 116V110Z" fill="#BEBEBE"/>
<path d="M121 132C121 131.448 121.448 131 122 131H130C130.552 131 131 131.448 131 132V138C131 138.552 130.552 139 130 139H122C121.448 139 121 138.552 121 138V132Z" fill="#BEBEBE"/>
<path d="M136 110C136 109.448 136.448 109 137 109H145C145.552 109 146 109.448 146 110V116C146 116.552 145.552 117 145 117H137C136.448 117 136 116.552 136 116V110Z" fill="#BEBEBE"/>
<path d="M136 132C136 131.448 136.448 131 137 131H145C145.552 131 146 131.448 146 132V138C146 138.552 145.552 139 145 139H137C136.448 139 136 138.552 136 138V132Z" fill="#BEBEBE"/>
<path d="M151 110C151 109.448 151.448 109 152 109H160C160.552 109 161 109.448 161 110V116C161 116.552 160.552 117 160 117H152C151.448 117 151 116.552 151 116V110Z" fill="#BEBEBE"/>
<path d="M151 132C151 131.448 151.448 131 152 131H160C160.552 131 161 131.448 161 132V138C161 138.552 160.552 139 160 139H152C151.448 139 151 138.552 151 138V132Z" fill="#BEBEBE"/>
<path d="M166 110C166 109.448 166.448 109 167 109H175C175.552 109 176 109.448 176 110V116C176 116.552 175.552 117 175 117H167C166.448 117 166 116.552 166 116V110Z" fill="#BEBEBE"/>
<path d="M166 132C166 131.448 166.448 131 167 131H175C175.552 131 176 131.448 176 132V138C176 138.552 175.552 139 175 139H167C166.448 139 166 138.552 166 138V132Z" fill="#BEBEBE"/>
<path d="M181 110C181 109.448 181.448 109 182 109H190C190.552 109 191 109.448 191 110V116C191 116.552 190.552 117 190 117H182C181.448 117 181 116.552 181 116V110Z" fill="#BEBEBE"/>
<path d="M181 132C181 131.448 181.448 131 182 131H190C190.552 131 191 131.448 191 132V138C191 138.552 190.552 139 190 139H182C181.448 139 181 138.552 181 138V132Z" fill="#BEBEBE"/>
<path d="M196 111C196 110.448 196.448 110 197 110H205C205.552 110 206 110.448 206 111V117C206 117.552 205.552 118 205 118H197C196.448 118 196 117.552 196 117V111Z" fill="#BEBEBE"/>
<path d="M196 132C196 131.448 196.448 131 197 131H205C205.552 131 206 131.448 206 132V138C206 138.552 205.552 139 205 139H197C196.448 139 196 138.552 196 138V132Z" fill="#BEBEBE"/>
<path d="M137.494 199.638V209.004H136.206V201.01L134.022 202.34L133.462 201.43L136.36 199.638H137.494Z" fill="#C4C4C4"/>
<path d="M216 206C216 199.373 221.373 194 228 194H236C242.627 194 248 199.373 248 206C248 212.627 242.627 218 236 218H228C221.373 218 216 212.627 216 206Z" fill="#63D0DF"/>
<path d="M239 204L234 199C233.415 199.781 233.28 200.774 233.574 201.648L229.686 204.37C228.653 203.822 227.359 203.913 226.403 204.677L226 205L229 208L226.5 210.5C226.224 210.776 226.224 211.224 226.5 211.5C226.776 211.776 227.224 211.776 227.5 211.5L230 209L233 212L233.323 211.597C234.088 210.641 234.179 209.347 233.63 208.315L236.352 204.426C237.226 204.72 238.219 204.586 239 204Z" fill="#161616"/>
<rect x="18" y="232.004" width="236" height="162.004" rx="12" stroke="#63D0DF" stroke-width="4"/>
<path d="M23 247C23 242.582 26.5817 239 31 239H239C243.418 239 247 242.582 247 247V357C247 361.418 243.418 365 239 365H31C26.5817 365 23 361.418 23 357V247Z" fill="url(#paint4_linear_4447_268)"/>
<path d="M69 267C69 264.79 70.7909 263 73 263H199C201.209 263 203 264.79 203 267V334C203 336.209 201.209 338 199 338H73C70.7909 338 69 336.209 69 334V267Z" fill="#1B1B1B"/>
<path d="M73 263.5H199C200.933 263.5 202.5 265.067 202.5 267V334C202.5 335.933 200.933 337.5 199 337.5H73C71.067 337.5 69.5 335.933 69.5 334V267C69.5 265.067 71.067 263.5 73 263.5Z" stroke="#C4C4C4" stroke-opacity="0.2"/>
<path d="M71 275H201V332C201 334.209 199.209 336 197 336H75C72.7909 336 71 334.209 71 332V275Z" fill="#2E2E2E"/>
<path d="M71 274H201V275H71V274Z" fill="#63D0DF"/>
<path d="M72 272C72 270.895 72.8954 270 74 270H94C95.1046 270 96 270.895 96 272V274H72V272Z" fill="#4D4D4D" fill-opacity="0.3"/>
<path d="M74 272C74 271.447 74.4477 271 75 271H93C93.5523 271 94 271.447 94 272C94 272.552 93.5523 273 93 273H75C74.4477 273 74 272.552 74 272Z" fill="#63D0DF"/>
<path d="M72 266C72 265.447 72.4477 265 73 265C73.5523 265 74 265.447 74 266C74 266.552 73.5523 267 73 267C72.4477 267 72 266.552 72 266Z" fill="#63D0DF"/>
<path d="M76 266C76 265.447 76.4477 265 77 265H79C79.5523 265 80 265.447 80 266C80 266.552 79.5523 267 79 267H77C76.4477 267 76 266.552 76 266Z" fill="#63D0DF"/>
<path d="M82 266C82 265.447 82.4477 265 83 265H85C85.5523 265 86 265.447 86 266C86 266.552 85.5523 267 85 267H83C82.4477 267 82 266.552 82 266Z" fill="#63D0DF"/>
<path d="M88 266C88 265.447 88.4477 265 89 265H91C91.5523 265 92 265.447 92 266C92 266.552 91.5523 267 91 267H89C88.4477 267 88 266.552 88 266Z" fill="#63D0DF"/>
<path d="M198 266C198 265.447 198.448 265 199 265C199.552 265 200 265.447 200 266C200 266.552 199.552 267 199 267C198.448 267 198 266.552 198 266Z" fill="#63D0DF"/>
<path d="M194 266C194 265.447 194.448 265 195 265C195.552 265 196 265.447 196 266C196 266.552 195.552 267 195 267C194.448 267 194 266.552 194 266Z" fill="#63D0DF"/>
<path d="M190 266C190 265.447 190.448 265 191 265C191.552 265 192 265.447 192 266C192 266.552 191.552 267 191 267C190.448 267 190 266.552 190 266Z" fill="#63D0DF"/>
<path d="M135.726 373.503C136.286 373.503 136.776 373.615 137.196 373.839C137.625 374.063 137.957 374.371 138.19 374.763C138.423 375.146 138.54 375.58 138.54 376.065C138.54 376.634 138.409 377.18 138.148 377.703C137.896 378.226 137.504 378.79 136.972 379.397C136.44 380.004 135.633 380.848 134.55 381.931H138.764L138.61 383.009H133.08V381.987C134.331 380.69 135.217 379.742 135.74 379.145C136.263 378.538 136.636 378.011 136.86 377.563C137.084 377.115 137.196 376.634 137.196 376.121C137.196 375.636 137.056 375.258 136.776 374.987C136.496 374.707 136.123 374.567 135.656 374.567C135.273 374.567 134.937 374.646 134.648 374.805C134.359 374.964 134.051 375.225 133.724 375.589L132.884 374.917C133.267 374.441 133.691 374.086 134.158 373.853C134.625 373.62 135.147 373.503 135.726 373.503Z" fill="#C4C4C4"/>
<path d="M24 420C24 415.582 27.5817 412 32 412H240C244.418 412 248 415.582 248 420V530C248 534.418 244.418 538 240 538H32C27.5817 538 24 534.418 24 530V420Z" fill="url(#paint5_linear_4447_268)"/>
<path d="M42 427C42 424.791 43.7909 423 46 423H190C192.209 423 194 424.791 194 427V504C194 506.209 192.209 508 190 508H46C43.7909 508 42 506.209 42 504V427Z" fill="#1B1B1B"/>
<path d="M46 423.5H190C191.933 423.5 193.5 425.067 193.5 427V504C193.5 505.933 191.933 507.5 190 507.5H46C44.067 507.5 42.5 505.933 42.5 504V427C42.5 425.067 44.067 423.5 46 423.5Z" stroke="#C4C4C4" stroke-opacity="0.2"/>
<path d="M70 433.5C70 433.224 70.2239 433 70.5 433H191.5C191.776 433 192 433.224 192 433.5C192 433.776 191.776 434 191.5 434H70.5C70.2239 434 70 433.776 70 433.5Z" fill="#63D0DF"/>
<path d="M45 426C45 425.448 45.4477 425 46 425C46.5523 425 47 425.448 47 426C47 426.553 46.5523 427 46 427C45.4477 427 45 426.553 45 426Z" fill="#63D0DF"/>
<path d="M49 426C49 425.448 49.4477 425 50 425H52C52.5523 425 53 425.448 53 426C53 426.553 52.5523 427 52 427H50C49.4477 427 49 426.553 49 426Z" fill="#63D0DF"/>
<path d="M55 426C55 425.448 55.4477 425 56 425H58C58.5523 425 59 425.448 59 426C59 426.553 58.5523 427 58 427H56C55.4477 427 55 426.553 55 426Z" fill="#63D0DF"/>
<path d="M61 426C61 425.448 61.4477 425 62 425H64C64.5523 425 65 425.448 65 426C65 426.553 64.5523 427 64 427H62C61.4477 427 61 426.553 61 426Z" fill="#63D0DF"/>
<path d="M189 426C189 425.448 189.448 425 190 425C190.552 425 191 425.448 191 426C191 426.553 190.552 427 190 427C189.448 427 189 426.553 189 426Z" fill="#63D0DF"/>
<path d="M185 426C185 425.448 185.448 425 186 425C186.552 425 187 425.448 187 426C187 426.553 186.552 427 186 427C185.448 427 185 426.553 185 426Z" fill="#63D0DF"/>
<path d="M181 426C181 425.448 181.448 425 182 425C182.552 425 183 425.448 183 426C183 426.553 182.552 427 182 427C181.448 427 181 426.553 181 426Z" fill="#63D0DF"/>
<path d="M44 430C44 428.896 44.8954 428 46 428H66C67.1046 428 68 428.896 68 430V504C68 505.105 67.1046 506 66 506H46C44.8954 506 44 505.105 44 504V430Z" fill="#2E2E2E"/>
<path d="M71 430L73.0231 428.153C73.2466 427.949 73.6089 427.949 73.8324 428.153C74.0559 428.357 74.0559 428.688 73.8324 428.892L72.6185 430L73.8324 431.108C74.0559 431.312 74.0559 431.643 73.8324 431.847C73.6089 432.051 73.2466 432.051 73.0231 431.847L71 430Z" fill="#C4C4C4"/>
<path d="M79 430L76.9769 431.847C76.7534 432.051 76.3911 432.051 76.1676 431.847C75.9441 431.643 75.9441 431.312 76.1676 431.108L77.3815 430L76.1676 428.892C75.9441 428.688 75.9441 428.357 76.1676 428.153C76.3911 427.949 76.7534 427.949 76.9769 428.153L79 430Z" fill="#C4C4C4"/>
<path d="M82 430C82 428.896 82.8954 428 84 428H96C97.1046 428 98 428.896 98 430C98 431.105 97.1046 432 96 432H84C82.8954 432 82 431.105 82 430Z" fill="#63D0DF"/>
<path d="M71 441C71 438.791 72.7909 437 75 437H219C221.209 437 223 438.791 223 441V518C223 520.209 221.209 522 219 522H75C72.7909 522 71 520.209 71 518V441Z" fill="#1B1B1B"/>
<path d="M75 437.5H219C220.933 437.5 222.5 439.067 222.5 441V518C222.5 519.933 220.933 521.5 219 521.5H75C73.067 521.5 71.5 519.933 71.5 518V441C71.5 439.067 73.067 437.5 75 437.5Z" stroke="#C4C4C4" stroke-opacity="0.2"/>
<path d="M74 440C74 439.448 74.4477 439 75 439C75.5523 439 76 439.448 76 440C76 440.553 75.5523 441 75 441C74.4477 441 74 440.553 74 440Z" fill="#63D0DF"/>
<path d="M78 440C78 439.448 78.4477 439 79 439H81C81.5523 439 82 439.448 82 440C82 440.553 81.5523 441 81 441H79C78.4477 441 78 440.553 78 440Z" fill="#63D0DF"/>
<path d="M84 440C84 439.448 84.4477 439 85 439H87C87.5523 439 88 439.448 88 440C88 440.553 87.5523 441 87 441H85C84.4477 441 84 440.553 84 440Z" fill="#63D0DF"/>
<path d="M90 440C90 439.448 90.4477 439 91 439H93C93.5523 439 94 439.448 94 440C94 440.553 93.5523 441 93 441H91C90.4477 441 90 440.553 90 440Z" fill="#63D0DF"/>
<path d="M218 440C218 439.448 218.448 439 219 439C219.552 439 220 439.448 220 440C220 440.553 219.552 441 219 441C218.448 441 218 440.553 218 440Z" fill="#63D0DF"/>
<path d="M214 440C214 439.448 214.448 439 215 439C215.552 439 216 439.448 216 440C216 440.553 215.552 441 215 441C214.448 441 214 440.553 214 440Z" fill="#63D0DF"/>
<path d="M210 440C210 439.448 210.448 439 211 439C211.552 439 212 439.448 212 440C212 440.553 211.552 441 211 441C210.448 441 210 440.553 210 440Z" fill="#63D0DF"/>
<path d="M73 444C73 442.896 73.8954 442 75 442H95C96.1046 442 97 442.896 97 444V518C97 519.105 96.1046 520 95 520H75C73.8954 520 73 519.105 73 518V444Z" fill="#2E2E2E"/>
<path d="M100 444L101.349 443.077C101.498 442.975 101.739 442.975 101.888 443.077C102.037 443.179 102.037 443.344 101.888 443.446L101.079 444L101.888 444.554C102.037 444.656 102.037 444.822 101.888 444.924C101.739 445.026 101.498 445.026 101.349 444.924L100 444Z" fill="#63D0DF"/>
<path d="M120 487C120 485.896 120.895 485 122 485H194C195.105 485 196 485.896 196 487V521H120V487Z" fill="#5D5D5D"/>
<path d="M103 444C103 443.448 103.448 443 104 443H118C118.552 443 119 443.448 119 444C119 444.553 118.552 445 118 445H104C103.448 445 103 444.553 103 444Z" fill="#63D0DF"/>
<path d="M126 451C126 449.896 126.895 449 128 449H148C149.105 449 150 449.896 150 451C150 452.105 149.105 453 148 453H128C126.895 453 126 452.105 126 451Z" fill="#C4C4C4"/>
<path d="M105 473C105 472.448 105.448 472 106 472H128C128.552 472 129 472.448 129 473C129 473.553 128.552 474 128 474H106C105.448 474 105 473.553 105 473Z" fill="#C4C4C4"/>
<path d="M148 473C148 472.448 148.448 472 149 472H171C171.552 472 172 472.448 172 473C172 473.553 171.552 474 171 474H149C148.448 474 148 473.553 148 473Z" fill="#C4C4C4"/>
<path d="M100 470.5C100 470.224 100.224 470 100.5 470H218.5C218.776 470 219 470.224 219 470.5C219 470.776 218.776 471 218.5 471H100.5C100.224 471 100 470.776 100 470.5Z" fill="#C4C4C4" fill-opacity="0.2"/>
<path d="M100 478.5C100 478.224 100.224 478 100.5 478H218.5C218.776 478 219 478.224 219 478.5C219 478.776 218.776 479 218.5 479H100.5C100.224 479 100 478.776 100 478.5Z" fill="#C4C4C4" fill-opacity="0.2"/>
<path d="M151 476C151 475.448 151.448 475 152 475H167C167.552 475 168 475.448 168 476C168 476.553 167.552 477 167 477H152C151.448 477 151 476.553 151 476Z" fill="#C4C4C4"/>
<path d="M194 476C194 475.448 194.448 475 195 475H209C209.552 475 210 475.448 210 476C210 476.553 209.552 477 209 477H195C194.448 477 194 476.553 194 476Z" fill="#C4C4C4"/>
<path d="M191 473C191 472.448 191.448 472 192 472H214C214.552 472 215 472.448 215 473C215 473.553 214.552 474 214 474H192C191.448 474 191 473.553 191 473Z" fill="#C4C4C4"/>
<path d="M126 462.5C126 461.672 126.672 461 127.5 461H136.5C137.328 461 138 461.672 138 462.5C138 463.329 137.328 464 136.5 464H127.5C126.672 464 126 463.329 126 462.5Z" fill="#63D0DF"/>
<path d="M126 456C126 455.448 126.448 455 127 455H163C163.552 455 164 455.448 164 456C164 456.553 163.552 457 163 457H127C126.448 457 126 456.553 126 456Z" fill="#C4C4C4"/>
<path d="M147 498.5C147 501.538 144.538 504 141.5 504C138.462 504 136 501.538 136 498.5C136 495.463 138.462 493 141.5 493C144.538 493 147 495.463 147 498.5Z" fill="#AEAEAE"/>
<path d="M142.5 518C140.223 518 137.5 521 137.5 521H146C145 520 144.5 518 142.5 518Z" fill="#AEAEAE"/>
<path d="M172.5 502C168 502 156 521 156 521H185.5C180 513 176.227 502 172.5 502Z" fill="#AEAEAE"/>
<path d="M102 451.25C102 450.008 103.007 449 104.25 449H119.75C120.993 449 122 450.008 122 451.25V462.75C122 463.993 120.993 465 119.75 465H104.25C103.007 465 102 463.993 102 462.75V451.25Z" fill="url(#paint6_linear_4447_268)"/>
<path d="M103 452.5C103 451.672 103.672 451 104.5 451H119.5C120.328 451 121 451.672 121 452.5V461.5C121 462.329 120.328 463 119.5 463H104.5C103.672 463 103 462.329 103 461.5V452.5Z" fill="url(#paint7_linear_4447_268)"/>
<path d="M116 457C116 459.209 114.209 461 112 461C109.791 461 108 459.209 108 457C108 454.791 109.791 453 112 453C114.209 453 116 454.791 116 457Z" fill="url(#paint8_linear_4447_268)"/>
<path d="M110.504 454C110.376 454.001 110.253 454.056 110.159 454.154C110.066 454.253 110.01 454.387 110.003 454.531H110.001V454.545L110 454.564C110 454.577 110 454.59 110.001 454.603L110 459.437C110 459.586 110.053 459.729 110.147 459.835C110.242 459.941 110.37 460 110.503 460C110.577 460 110.649 459.982 110.716 459.947L110.717 459.948L110.729 459.94L110.732 459.939C110.747 459.93 110.761 459.921 110.776 459.911L114.726 457.504L114.731 457.502V457.5C114.811 457.453 114.878 457.383 114.925 457.297C114.972 457.211 114.998 457.113 115 457.012C115.002 456.911 114.979 456.812 114.935 456.724C114.89 456.636 114.826 456.563 114.747 456.513L114.738 456.507L114.736 456.506L110.747 454.07C110.673 454.025 110.588 454.001 110.504 454Z" fill="#001534"/>
<path d="M135.657 547.508C136.236 547.508 136.73 547.615 137.141 547.83C137.561 548.044 137.878 548.334 138.093 548.698C138.317 549.062 138.429 549.458 138.429 549.888C138.429 550.457 138.261 550.928 137.925 551.302C137.598 551.666 137.16 551.913 136.609 552.044C137.234 552.1 137.743 552.324 138.135 552.716C138.527 553.108 138.723 553.64 138.723 554.312C138.723 554.853 138.592 555.343 138.331 555.782C138.07 556.22 137.696 556.566 137.211 556.818C136.726 557.06 136.166 557.182 135.531 557.182C134.962 557.182 134.439 557.079 133.963 556.874C133.487 556.659 133.072 556.342 132.717 555.922L133.487 555.208C133.795 555.525 134.108 555.758 134.425 555.908C134.752 556.057 135.106 556.132 135.489 556.132C136.077 556.132 136.539 555.968 136.875 555.642C137.211 555.306 137.379 554.858 137.379 554.298C137.379 553.682 137.22 553.248 136.903 552.996C136.586 552.744 136.124 552.618 135.517 552.618H134.817L134.971 551.624H135.447C135.932 551.624 136.334 551.479 136.651 551.19C136.978 550.9 137.141 550.494 137.141 549.972C137.141 549.533 137.001 549.188 136.721 548.936C136.441 548.674 136.063 548.544 135.587 548.544C135.223 548.544 134.887 548.609 134.579 548.74C134.28 548.87 133.972 549.085 133.655 549.384L132.983 548.614C133.776 547.876 134.668 547.508 135.657 547.508Z" fill="#C4C4C4"/>
<path d="M216 554C216 547.373 221.373 542 228 542H236C242.627 542 248 547.373 248 554C248 560.628 242.627 566 236 566H228C221.373 566 216 560.628 216 554Z" fill="#63D0DF"/>
<path d="M239 552.001L234 547.001C233.415 547.782 233.28 548.775 233.574 549.649L229.686 552.371C228.653 551.822 227.359 551.914 226.403 552.678L226 553.001L229 556.001L226.5 558.501C226.224 558.777 226.224 559.225 226.5 559.501C226.776 559.777 227.224 559.777 227.5 559.501L230 557.001L233 560.001L233.323 559.598C234.088 558.642 234.179 557.348 233.63 556.316L236.352 552.427C237.226 552.721 238.219 552.587 239 552.001Z" fill="#161616"/>
<rect width="1027" height="40" fill="#1B1B1B"/>
<rect width="1026" height="40" fill="#1B1B1B"/>
<path d="M52 20.5C52 9.73045 60.7304 1 71.5 1H80.5C91.2696 1 100 9.73045 100 20.5C100 31.2696 91.2696 40 80.5 40H71.5C60.7304 40 52 31.2696 52 20.5Z" fill="#4D4D4D" fill-opacity="0.75"/>
<rect x="62.6667" y="9.33325" width="26.6667" height="21.3333" rx="2.25" fill="url(#paint9_linear_4447_268)"/>
<rect x="64" y="10.6667" width="13.3333" height="8" rx="0.7" fill="white"/>
<rect x="69.3333" y="21.3333" width="13.3333" height="8" rx="0.7" fill="white"/>
<rect x="80" y="12" width="8" height="5.33333" rx="0.7" fill="white"/>
<path d="M16 20C16 13.9249 20.9249 9 27 9H29C35.0751 9 40 13.9249 40 20C40 26.0751 35.0751 31 29 31H27C20.9249 31 16 26.0751 16 20Z" fill="#C4C4C4" fill-opacity="0.5"/>
<path d="M916 20C916 15.5817 919.582 12 924 12H996C1000.42 12 1004 15.5817 1004 20C1004 24.4183 1000.42 28 996 28H924C919.582 28 916 24.4183 916 20Z" fill="#C4C4C4" fill-opacity="0.5"/>
</g>
<rect x="0.5" y="0.5" width="1026" height="577" rx="7.5" stroke="#3D3D3D"/>
<defs>
<filter id="filter0_d_4447_268" x="474" y="171" width="88" height="72" filterUnits="userSpaceOnUse" color-interpolation-filters="sRGB">
<feFlood flood-opacity="0" result="BackgroundImageFix"/>
<feColorMatrix in="SourceAlpha" type="matrix" values="0 0 0 0 0 0 0 0 0 0 0 0 0 0 0 0 0 0 127 0" result="hardAlpha"/>
<feOffset dy="4"/>
<feGaussianBlur stdDeviation="8"/>
<feComposite in2="hardAlpha" operator="out"/>
<feColorMatrix type="matrix" values="0 0 0 0 0 0 0 0 0 0 0 0 0 0 0 0 0 0 0.32 0"/>
<feBlend mode="normal" in2="BackgroundImageFix" result="effect1_dropShadow_4447_268"/>
<feBlend mode="normal" in="SourceGraphic" in2="effect1_dropShadow_4447_268" result="shape"/>
</filter>
<linearGradient id="paint0_linear_4447_268" x1="513.5" y1="0" x2="513.5" y2="578" gradientUnits="userSpaceOnUse">
<stop stop-color="#00717C"/>
<stop offset="1" stop-color="#266A84"/>
</linearGradient>
<linearGradient id="paint1_linear_4447_268" x1="509" y1="212" x2="527" y2="194" gradientUnits="userSpaceOnUse">
<stop stop-color="#9E9E9E"/>
<stop offset="1" stop-color="#BEBEBE"/>
</linearGradient>
<linearGradient id="paint2_linear_4447_268" x1="522.448" y1="193.404" x2="513.634" y2="213.2" gradientUnits="userSpaceOnUse">
<stop offset="0.619792" stop-color="#05919F"/>
<stop offset="1" stop-color="#48B9C7"/>
</linearGradient>
<linearGradient id="paint3_linear_4447_268" x1="136" y1="64" x2="136" y2="190" gradientUnits="userSpaceOnUse">
<stop stop-color="#00717C"/>
<stop offset="1" stop-color="#48658B"/>
</linearGradient>
<linearGradient id="paint4_linear_4447_268" x1="135" y1="239" x2="135" y2="365" gradientUnits="userSpaceOnUse">
<stop stop-color="#00717C"/>
<stop offset="1" stop-color="#48658B"/>
</linearGradient>
<linearGradient id="paint5_linear_4447_268" x1="136" y1="412" x2="136" y2="538" gradientUnits="userSpaceOnUse">
<stop stop-color="#00717C"/>
<stop offset="1" stop-color="#48658B"/>
</linearGradient>
<linearGradient id="paint6_linear_4447_268" x1="112" y1="449" x2="112" y2="465" gradientUnits="userSpaceOnUse">
<stop stop-color="#82A1CA"/>
<stop offset="1" stop-color="#6582AA"/>
</linearGradient>
<linearGradient id="paint7_linear_4447_268" x1="112" y1="451" x2="112" y2="463" gradientUnits="userSpaceOnUse">
<stop stop-color="#142E50"/>
<stop offset="1" stop-color="#001534"/>
</linearGradient>
<linearGradient id="paint8_linear_4447_268" x1="116" y1="453" x2="108" y2="461" gradientUnits="userSpaceOnUse">
<stop stop-color="#FAFCFF"/>
<stop offset="1" stop-color="#E4F0FF"/>
</linearGradient>
<linearGradient id="paint9_linear_4447_268" x1="89.3334" y1="9.33325" x2="60.9171" y2="28.0037" gradientUnits="userSpaceOnUse">
<stop stop-color="#49BAC8"/>
<stop offset="1" stop-color="#05919F"/>
</linearGradient>
<clipPath id="clip0_4447_268">
<rect width="1027" height="578" rx="8" fill="white"/>
</clipPath>
</defs>
</svg>
